<mxfile host="app.diagrams.net" agent="Mozilla/5.0 (Windows NT 10.0; Win64; x64) AppleWebKit/537.36 (KHTML, like Gecko) Chrome/131.0.0.0 Safari/537.36" version="26.0.8">
  <diagram name="第 1 页" id="UDlxZD-7yvTXt20xS6oj">
    <mxGraphModel dx="1312" dy="1486" grid="1" gridSize="10" guides="1" tooltips="1" connect="1" arrows="1" fold="1" page="1" pageScale="1" pageWidth="827" pageHeight="1169" math="1" shadow="0">
      <root>
        <mxCell id="0" />
        <mxCell id="1" parent="0" />
        <mxCell id="5de8GxAfkGyDar-mVyjA-664" value="" style="rounded=1;whiteSpace=wrap;html=1;dashed=1;" vertex="1" parent="1">
          <mxGeometry x="206" y="-1010" width="851" height="340" as="geometry" />
        </mxCell>
        <mxCell id="5de8GxAfkGyDar-mVyjA-86" value="" style="shape=image;verticalLabelPosition=bottom;labelBackgroundColor=default;verticalAlign=top;aspect=fixed;imageAspect=0;image=data:image/jpeg,/9j/4AAQSkZJRgABAQAAAQABAAD/2wBDAAgGBgcGBQgHBwcJCQgKDBQNDAsLDBkSEw8UHRofHh0aHBwgJC4nICIsIxwcKDcpLDAxNDQ0Hyc5PTgyPC4zNDL/2wBDAQkJCQwLDBgNDRgyIRwhMjIyMjIyMjIyMjIyMjIyMjIyMjIyMjIyMjIyMjIyMjIyMjIyMjIyMjIyMjIyMjIyMjL/wAARCAHCAiYDASIAAhEBAxEB/8QAHwAAAQUBAQEBAQEAAAAAAAAAAAECAwQFBgcICQoL/8QAtRAAAgEDAwIEAwUFBAQAAAF9AQIDAAQRBRIhMUEGE1FhByJxFDKBkaEII0KxwRVS0fAkM2JyggkKFhcYGRolJicoKSo0NTY3ODk6Q0RFRkdISUpTVFVWV1hZWmNkZWZnaGlqc3R1dnd4eXqDhIWGh4iJipKTlJWWl5iZmqKjpKWmp6ipqrKztLW2t7i5usLDxMXGx8jJytLT1NXW19jZ2uHi4+Tl5ufo6erx8vP09fb3+Pn6/8QAHwEAAwEBAQEBAQEBAQAAAAAAAAECAwQFBgcICQoL/8QAtREAAgECBAQDBAcFBAQAAQJ3AAECAxEEBSExBhJBUQdhcRMiMoEIFEKRobHBCSMzUvAVYnLRChYkNOEl8RcYGRomJygpKjU2Nzg5OkNERUZHSElKU1RVVldYWVpjZGVmZ2hpanN0dXZ3eHl6goOEhYaHiImKkpOUlZaXmJmaoqOkpaanqKmqsrO0tba3uLm6wsPExcbHyMnK0tPU1dbX2Nna4uPk5ebn6Onq8vP09fb3+Pn6/9oADAMBAAIRAxEAPwDQjBUMc9elV7k/us5q44xv4qjcn5MEV0xd2cclZHO6zBJMibOeaZpdpIsoLJjitNiT1Q4FTWzFW+4fSt1Oyskc/Im7jbOxK3vmY4q9qKnyjj0rStIAY84wTUN3ACOc9Kw9o3K7N1RSi7HJy5FnN64rl2YBSOnJrsb2E+XKFBJNcwdNuGV8rnJ4rqhNbnM4taG3pn/HiK6awlLWirjLVhafbtHYiNgc10Wn2+1F57VlVmmi6UHe5JeE+Rg/SvO9VjmN+xCE9cV6XdR5Tp2rmbuJRMflyfWooza2Na0OpS0VH+zAOMHNdDD9wg1RtIxjaBgetakUeBgDNaTl3MoQIXUvGVApFjZI+eO9XYovmwelLcQjbisnI1jT6nA6+WF10IHqOtXPCYxM24dTU+pwBpySMn6U7TGW3fCqMk8cV0XvAwS987fO2349K5DWxm2fHXNdYufsoPtXLahKGZlYfpXNSumdVV+7uczp6sdQiJB69a9K07iEGuOtBGsynGMV12mtmAv0Uc59qvESurmeHVmV9THPtXCNpt/qmpvFZWskzE4yBx69a9CaNZ7kqfmPpngfX0rbtVijh8pUCBv4Yxg5rnWK9npFXZ1PDOesnZGT4e8Ny2VoovJUEmMlI+SPbP8AWuiigjOPLjAb+9jJ/wDr1LFCHG9vkXJOc459KuhFRflwqqMk9APrXJOpKTvI64U4xVokItIXOZoUmbGOeKhlVo4yIkjEXcA/071ZWeDGxEkm4wwC8D8ajdWIOyF4WPAYndWZdjJnWKZWTcFcepwM+n1xXm/i7Sp4LsSbN0TkhD6H0Nen3UQZRHcpvIGAx4b3rD1HT1mjlt5g0kEg289cf/WrejWdORNTDqojx2RduDnOQCAOoz2PvTD04NehT+CYL2N0tJDFP1QtyGPoR2riL/TrrSbuS0vYfKmj+8Oox2I9RXrUcRCp8LPLq0JU3aSKnIU8Ufw4Apxz1pCMYz29K3MRp55zUUxy3epscgjpUDAvMEz1OKio7RLpL3j0XwjAItLVu5qlr0m+9wTnFbujx/Z9KjGOdua5nUpN96+Ox61yUNZtna9kVVIBz2qVWyPrUQbnkYqRBmusklzgU1j+nOKXoBntTScdfrQAAgE4/KuV8Q5M4+ldSOvHJrl/EX+vX6VdPcUjD5AooNLWzQhue9KD+FIeaKV9RkqAE+1bOnKC38xWNH94cVtacv7zPrXdhtzKaMzUiPtbE+lVQat6n/x+Gqg64rCr8cjSOyD1qO7+4D71IPeo7rlBXhVjZDEGEpGp3QAU1xzWQyNuBTyMoPpTG6U8/wCrH0oEIvWl4zimrxS+tAHQQ/vPCMvzfMknI9s1z+TU0VxJHDJCCdj8kVDiimmgk7iil7UgorQgO1Boo7UhiCtTw7pUWt67b2E00sEUm5mkhj3uoC7sKvc8YxWX2rp/h6ZV8cWDW7IswEhjaQ4UN5bYz7UmwHeMvClj4chtriw1SS9tpXMbGWDy2VtqurAd1ZWBB+tFdH8V7691DQdPkvoLCBorx4BBZyiQR7YYshjgc57dgaKm7KsejNAM9PrUEtqrdRmrJljP8S/nSF4+oZefehNoiyZQ+wr6VKlkgGcCrIdB/EKcJE/vCnzMLR7CogUD0qOaPdwKmEq/3himtIh7ipuPQy5bIE5xmoRpybiNta5ZMZzTdyeo5qlJk8qKUVkAMYGM1fhi2DA9KVWXruFSKy8ktSbBRQyVMrWe9irsTitQsvXIphK9MihNobVyhHZKnQYqcQDPSpvl9aeCODRdi5UNSML071HMvymrAI9arzyBVOe1FxpGTPbQM+W696fb2lskitkcHvWDqt+EvCN+Kq/2sVHEhrqVNuO5yuaTO9aaLy9u9azJbOCRi24c1zK6sRj96aU6qf8AnrRGg09GDrxfQ6JNOgDA8cVakwkYt4TtA+8/v1wKwtLmk1CZlWUKijLMewrdjVZZ9pHCjL+x6gfgP51yYiTXunXhop+8W9Nt8AbcKo5O49T6mtG3nikcy5Jhzt3H/lp9PQdPrWFPei5uWtEJSzhGZ8fLuHZAf5+1SfbndscKDwqKOi57fWuJux22OmS5Mg3Y+UHaEjHJ9h/jV6OMuwkuSBjpGp6H1B/P61k2cojRWPLkHaq9QKt/agc8szdMRrnJ7/SlcrluajOmxV8vCnsvGB9KqXLWsYCNa/KRjg4/yaijYkbRb9e0jZqRgY0I8qNcDonBqblxgUpoo8/utyjBypOcfQ96qyRFmI2nB4PbvWk0W/OAR9ec02SEqB/nFS5HRCHQxZoZInDpwQeppniLQIvFmibkUR6jbKTFIR944+6T6EfrWq8XyspAOeuai06X7HeeXyqvwPY06NRwkpGeIo88bHg7RtFIyurK6EqwI6EdQfem/d6cV3vxK0KOy1RdUhXEd3y6gdJB1/SuDY5Jr6OlUU43PnJwcJWG87SehpdOi8/UolPPPNNcAITzzWx4StPtGpF9vC8ZqK0rI0pRe53fEOn/AEGK4ydg0zEnqc11utyC3sSoOCa43JGCTUYeOlzoYucnPapUOenFQ9Dyc1IhzjFdIiwp4FNYAHg5FGcduvamn1pWGJnn+dcv4gP78DIrpx2PXNcvr5PnjOeaqC1JZi0E0nal7V0LYQcUUlKKltDJYhyK3NOB3CsJDz71uaY2eoruwu5jMzNUH+lnHWqeauapgXlUwT6VjX+KRpHYU9qjuR8q/WpAf0ps3KrXg1UbojPUVG3WpKjbrWQDGqT+AfSozUp+4D7UgI1607vTQeafmmA3oc0ueKQ9aWqiJhQTkUUCqJEooHJoPekMO9dH4DAbxpp6sFMbl1lLPs2xlCGbPYgZ/HFc5XT/AA9lSPx3pW9BJvdkEbD5WYoQA3+znGaHsPqbvxJjhHhPS7mOO5Rp76bLS2f2VXCxxqCibj2GCc8kGij4kxm28LaJZNCYZHnluljFz56IrKgIDdvmVuPoe9FZ6jKo8Q6h1DigeI7/AD8z9KqLp0zOUAGfSlOmz9Am6vR9lA8/2rLo8R3/AEyPel/4SS+B4NZktrJEQG6ntUq6fOwyFJo9lEftWXx4lvuu78M0DxNfZzn9azfs7+YF6N0NSHT5+6mj2MRe1Ze/4SW+PXn8aVfEd974+tZsdnI6EhSccUGym6BCPwo9jEXtZGoPEt6P/wBdOHia+H+OayjaTbclSMH0pqW8jglQTR7GI/as2P8AhKL3vn86afFF7k9SKyxaS5+4fyppgZDgk8UexiCrM2D4rvAMYzTx4uu+4b86wfJYgY5NHkn2zR7GIe1kdB/wl11g4Dce9RSeKbqQYw2T71jG3YDlSP60ggZWI5z7UexjYPaskubiW7l812I7VHiQceYc1OI3UcqTS4zk1pZJWM+YrgzDo5pQ8ueH6dj3qwInbojEVNaW3nX0MTocFvmHTAHWlKyXMOOuh2mjWf8AZ2gRs4Pmy4kkJ6knkD8Bip5b8WGlu/DSMeF/vH/9fH4VHdXPmKiBgNi7z83UY/w/rVdod8UczZCx/dB7n/8AWf0rw5y5ndnt04csUkPtWMUR3ksxJaQn+Jyen5VoWTBpC5BbPQH+L0qiqFmCAZCkjPqa0LLaJlZjuC9v5n8a52zqUdDo4i0USqDmSQZZh3/+tVmBQq/M7IO20/rWdb+ZcOWY7QTk1pRxLg4NQ5G0adlqXI3gOChfH14PvU42seAuOlU4dsZA2gA1cTA5NTctU0SbcLkc+1QvjJU9MVK8mFB98VXI+bGcipZUU+pXlwGPPQ1UuYRPExHDYyD6GrUvO4EZJPaoQ+GK0RY5RRW8QacfEfhSSFgPtKncpHZwOPz/AK14WyMGIZSGBwR7/wD1un4V9CWGY2mC9CQwX9D+leReONJTSvE9yY1Cw3B86P2z1H55/OvawNXRxZ4ONpa3Rys3AxnJAruvB9j5FkZCOXrirWE3V7HH6tzXqNqi2Wnr2wvNbV5XZjTVjD8R3W6YRr061z5AJyO1WtQmM92zc4ziqvc8YrppK0bFvcCR2p6EdDUJNSIasRY6DGcmkJ6fqKAwNITg4GaQxOenP0rmPEBH2jjPHrXTDr94/wCNcz4gObkenvVQ3Jexi+lIad6UhNdAgoHWigUrIZKg5zW1ppO4dzisSPJIx+NbulE7hxXbhfiMpmXqp/00iqYHpV7VuLw8c1SHPNY1/ikXHoHSkl+4KCe1ErAhQBXhVTdEXYmoyCeaeR1PP0oEMrnhCR61i7IErkXIp5+5z2xTvJkBwVqYWzEdCDxzSuh2KnennrU0trJETuGcdxUJBwOOtFwsJ05pKcwwo9abVRJYvFHTpRRVkid6O1FHakMO9bvg7UrTSPFVne3hcW6B1kZY/MIDIV+7368isMmun+HcixeOdOd3CqglYsX2Bf3bc7sHb9e1JgWvGmtaTqXh/TtM0mUSPb3Mkzqln9nVAURQMEkn7p/DFFafxWiRbOxmeOKe7knYvqUVuEWdfLTC+YD+9K9d2Bnd0oqVYoi0u7LyXV0wG0dKueH7v7bJcb1GFbistR9m0MDHMnJ/GrnhFQDcADnNeieZLZso6vKxupAFwF6Vt6NKs2jmRl5x1qhe6aZbmQ7+taum2xttEdM54p9SG9Dlbq4ZbsSAcb8V097IItGE237wrlLlcygH/np/Wup1Mf8AEiiXB6UdRy6GINSS0sFwCWxk49627WVZNHa42EkLmuPlRhHzjArrLEf8U2Qf7tCvccrJIzrbVI7iCdG4IzjPWpvDcguJpY5F5WsJUMbuVwM/rW54VUrdzeoNGoSso3Qy/wBUW0vzGVO3NJfSJKySJjnrS6jpb3OosxxtzVIqUZk9Dimr3BrQC3HNRzPtXIHSpOgHTHpUM3MZz0qmJHR6Z5VxpnnFQWA71gzXPl3e/wDgDYPFb2ix40J+Oornbm2kZiAhI3VGtgW51FwkKaUJ8DJGc461iWVuby7Cj7oPOK2L7K6Ci5GQPy9qj8Mxj7PLMRg8nNVfQVitqF7DpzCMZJHUCr1nPDcwpcJ1AOT+Heub1EGa9kPv1rY8OoyaPcnP3n8sD2xlj+QrmxLahZdTpw0LzVjf0xTPDPM3IBC4PXGc4H1IA/GtIxOVDAbsEkZ6Y4Gfrn+VUtEYGxAAZ2ZgWHt1P/spFdQtqtvGFZQxB3H3x/jXkSPYjuZEdt5MH0B6+n+NTWo3NuxxkAD2qW4U5+ZeBwRTY2KIQMEjH65rnZ3QVzYjcLHgHp3q2ku0AZ68VjQPkAE8f1rSjYkZAGSB1qLm/KX0OeT0qzEQRknqaqL8wUj8asRcjGeaVh7ExUkYPSoV4LD05qYkAEHqKjwTJwOO9PlEmQu21R6iqrFcD0PrVuQemM9qqsoYHcORxStYdiW0yZsKQCVPP61xnxOsluNMs79WK+S5iI25JDDI/UGuqgfbPsz17/WqPiu1OoeHbu3XIdVDqT1BHPB+hrtw0+VqR5mKhe55n4TsPOujOQSB0JrqtauhBalO54puhWK2NjkjBxyaxdbuvOuiobIFejBc8zz1ojKPrnNNPNOJA7UhAGcde9dqEMOBnFPTsfyqPIJpyHnP4UxFkY7DNB+lMXOKdk/WkAg571zOv83A9K6XI7DjpXNa9/rwTVQ3FLYxulIeaWkra4hcUY5pKXqaBkkWN2TxW3pvJ4PasRM7h6VuaXjcM9K78L8RjMzdVx9r9DiqY+tXtXH+mjI7VQ4Pasay96RcdkKeeakgtZrydYoULMTjipLOzlvZhHGvfrXf6PpsGmWylVDTEZY+lfOYmqo3OunTcjM0/wAIwW6B7tt7/wB2tVdJtEAxGvPOKmk1GGNyJGJPrSC/tpOuV5wDXmyqNnWoJaFS40q0YfLCpJ64HSs5tIiIxGAcD7proGGfnQ5XrkVUuI/k3xnDChSkDUTmJNO3vtwVOehqu2j7eM8npXQyN5yCYL869aV/LMKyH7zDpWimzJwOOu9OdF6cis3aV4NdVdkjoPwNYt1CGyy8H0ropz1MpwM/ikPFOwQaQ4xxXSYjaO1FL2pCE710vgFS3jSzVLb7UxSYC2/57Hy2+T8elc0c5rpfAgX/AITGz3yvEmyXdIi7mQeW3zAd6TGjo/ijZzW3h/SZ3tlsoZrqUx2SnKLiOPkH1H3P+A0VH8S3kfQrMT6hcXs63rK8k9mLf5RBEEKqCcgjnd3oqFsUU9UYKUhXJCDn+VXvCuFW46jk1j3Ehknkc9zW54c2QQyMzgFs8V6fY8uWqMbUb26S8kCtwCcV0WjzST6E7yEE7a5/VIALlmUg7vSug0lI4dEMW9dxXmi2opWcTl7gZnHXO8fzrqdV40WMewrm2jLXqpuH3s5zXSamUfTEjDgkDOBT6ikr2OVnAEZz6V09rx4eHH8IrnHTf+7BAY9M11ESBNG8rcu4DHWjqEtTmCgPbNavhY4uZjms2UGMkHt6Vr+HITE7yOygN70MHsVLzUpItXZCo29M1Udt8rMB15zV3UNPae+d1YAE0y6gW2t0TcCcUluO5TyOtRS5CFj36VI2M+ntTZfuH1PSrewHR6K4j0Mt6DNZLazEJCCCOcYrW06IpobISCSOg7Vyslu5uNu3kt3qHsEUru512qNv0cMMdKi8Mtv06Qd+akv4ydEVeMgetY/h++FpdNBIcA9KAS0diC8jxdSZ9Sau2EhSwMfchz+eMGpdUs2a58yP5lb096fa2/8AoyIfvA7Tx2yP8/jXPi37qOvCfGdDaH7LAoClirDIzx0wf6/pXVLJ50yOmSnAz6HGea5ezi3b1YbgePp2H64P4V1GnIpt4WYld3zMM/hXlM9WJBfZUOB1PX61nCX5lHJwMVd1J8p/tEnI9PSqEYDJgnnjp61zz0Z6FLVFqJyZcH0NbMOSwGcgcVhxgbtwPI7Vq2kjEFWGDmsmbtmuhOCvXPOaVHy565qOLgKQeRmpFJPQc0xE25t2MdRTyTwTx6iogGyGzzT/ALxNVcVtRjh8npg1EwCgtjk8VYwep61C69fQc1NxtmawaOcscHParMrCRCFIy2cHHIPpVW6O1xkfQ1NBslhLF2BGOR39cVtSfQ48TFbnL6jMlrattAQEcL6CuMkYyOzN1JzmtzxNcMLx4DjgnODWAeuM5r3sPG0bnjy3GkjPWm5JGfzpT6cZpD1PrW5IzgfjThjP8qZkZ+tKDjPpQMsKSAPelP5UxSMYHIp5pMA5DDNczr2fPA/OukzyOMGuZ1vi4AJqobgzJyMe9JR7UVrbQQUoFFHehPUGSIOa3NMPzjHXNYada2tNI3ivQwu5jMo6wP8ATce1UkQuwUDJ7Vd1cg3fQ46Vo+HtLNxMHYce/YVxY6tGk5Nm1KDk0bfh3SmjiUqp3tzn0rfkt4I1IZy7Z5C9KjNwsMPkwHCj7zDvWBqOrFAYoiTngn0r5KcpVJXPVilFG1JPaquzZECBzms+ae3YnKgMODjpXKvcXAky+8jPJxUxum2B0+Zccg01TaJ5kzoorowHKHK9x6iia7jyu0/IefpXODUNvIJ2+h7VGblwcA/KeRT5CbnSRSqJWB5BqjeTeQdq8AOcfSso3bhAQTnvVe6upJMA5ODnNNRE2bLQ+dD5nzEY61jzxjzSquQfetjT9RRIRHICfaprm1trrLIPm9qadmDV0clNbHGR2qqRg46V0NxYmLDrlwO1ZV9CoIdOfUV00p30OacLalEdaKO9JzWxmHUV0ngCeG38b6Y86boyzqVIyDuQgBh6Z6+1c32rqvhuC3xA0sKquxMmFdtqsfLbgntn17c0PYEdB8WLa4tdO0pJEeOBJZI5Y5pfMmNwFTJ3/wAUYTYqewoqD4hRpH4F0LyxDtN7cZeK8a5WRgkYJywBXBBUD0FFZooxmU7cE/Wo1nnj4RyMVPjp3pvl816jieYmNkd5UO4nd/eoW6uEwqvhR2qQJgHBpPJHXPIosF0ROz7xIrDd3qSO5uDwz5XpTigPGMULGV6etHLqF1YbLkEMpAYfqKVb664XcMdMU/YSMZH1pBCAT7daLXFzIHYyISTz7VGl7cQ8KRjFS7SQOeKjMOfrTaGpKwv9oXO7n+dSGd5yC55qMQfjinquwY6mhRCXkOGc9KimBI4+tS5/P2prLnP0qiUEeo3CqEAIHTANRzSNvEgU5+tAi+bJp5QY9Kixeg/+053TY6krjHWqkqEsGDYYHORUoiw3c809lz6DmmloLYfHqk+wK+c46g1t6RMZZYZW/iJ+T9P/AK9c6YTnrWvo1x9nkBI3FSGx7dK5sRC8Dqw0kp2OstpsSFVAHy856A//AF66O3cR2pK/dVcDPXrxXMWxKTyKGyygkZ6Hgn+grYinItsdflPXvXks9RLQbeS7mYsegAPuao28gVmG45Pf8afdS87sZ65+pqmnyuD2NYTO6k9DciAJDADntV63diw475rKtnGQBnk5zV+2YhT1yG4+lZNHQb0LZXOOcVOuDjBwcVnWk/3gTV1ZlOSMYIoGTFse9LG55+tR+YN2feoPtGFOOuaVu4y6WHJqvNKka5dgPYVmX2qLaQF2b5vSufXVZdQcFASAea0UdDOb7HQXdyjKvyMAO+KLdwsJbaSArYAOMjvWXJM2weYTk9BVzTXwxjY5BGPqPWqjozCom4s5XxJp+1m1DzNzTMMDGBjtXNEYPBrrPFjFy0fIEDKMDoCf/rAH8a5M9K9vByc6d2ebi4KE0l2GnrTDwCM/jTyQMnFRsRmus5RvTjtTkx7fjTenGKUdemfagCdetOxt601COn505jn8aTAQ9fpXMa3/AK/3FdMx4J7Vy+stm49xVQ3EzLHWnEcU00dRWt9AYUooIx3oo1AmjIyM9K2NPxuGB1PesZR0B4rY04fOMnmu7DbmNQq3yl78D0rr7KMW1rHCvDuAWYdh6VzoiD6qpPRRk11enL51wrMOD19hXz2dVG67iuh6GEj7t2R6m5tokiBIkkGD7Csn7FEjKZctIedo7VqTnz7ue6blEO1M9yKgtbdndmxuYngmvJgrK51NXdkR/ZI5cqFPXpULaCztwhH06V1+n6UqqGkXJxW1HZxBfudulZyxCTN44Y8muNBnRlKq209aaNKlwMA9K9cbTIZeqjGKg/sKAZwKSr3B4c8xg0iR1O4dqZLpibwuSMdc16e2kRLEwCgH1xXM6rpwjkJK496ftbkSo2RzVxYi3KOoJUjkinAMgGcgH7rD1rWggEpMLnMb8KfQ1C1v5RMLjPbBqk+5k1YzxcKXMcoxJ69jWdqdr+7LovGORWld2h2Dtk/I/ofQ1DDKXRopfvL1FaxdndGcldWZyLABuKQ1c1CDyLllAwOoqpkV3Rd1c5GrOw2ul8ACFvGVkLhJHtykvmJFy5Ty2yF/2vT6VzZGR0roPBNs134y06NbmS2IkZxNEcMu1S364/LNNiR1PxVkWTStPZLwXxa5cy3DQ+SWIijEeI+gXy9vzZ5OeBRSfFC/n1Dw3pckz2zJHdNFGYiSx2wRZL5A79B2FFQkUzEGe/40DPtV8W6TXywqO3NQXUX2eVlI6V6iep5diEZ6cdaM9f0q6Ikhto5HAG8jrTI0jfUVhA4foKOYCsFHPOaUDjmrV7DHb6gkPGCcc1JqlvHZxqyjrjNO6EkUKUjtmr4tUewFxjr0qLTYVvZ2iYDIGaLhqVT9OlLgevOKmuoTa3yxN/EcCrD2nmXKxxcbhkn2o5tQKBIxjBz6k0uDtJP8quzQQwSLEwBJPc9TUXkxCZ+flHTJougsyv0GPw6UnAHXg9BWk9lDHCjtwGqKOyEjO44jWhuwJXKXBGSKTvyKuLbRzxuY85UGlsLL7asnZk7UXuBSPTjOaOpPGTUyRf6b9nfg0k8YjlKilfUqxEBwR6das2Emy6QZHzcHPp3qtnnNKjhHDAE4x0qZq8WiqbtJM6sSgXB3cEMOf5/pWhBcnYCfdfr3rGt5Gnjc8Elf6AU+KVi6BTxyPxNeLJWdj24PQ0pmZwfTNMQkj6dKbGxdBngZ4oJ8vPQj0rnlud9PRXNaxy74H8XBrQiYRN8zDpzzXO22oCPkg4zng9ajkluLh3KquGORt5P51Fi5S7HV/aYozu3j86sR3Ssp2sMdiK4Wa21QIGETJxwRTY9WvLcDzQ5P160OJcanc737WMLzkA81DfStHH5gOawtMv5LqJQRnnmuinhJt1DYx0qbGjlpcwUjm1WceYdkC9zXR2NvZW9uBEVwepxnFctcXD2r7ZPkiJzg9/Tiqdz8QZLWUWlrprysxCeYxwuauKb2OebS1Z1d8bWeYLDKjMpHCdRSwoYrhWXkFTj/AArJsxf3V4s00SRt/styK6V4v3O4LjHt3qW7MbSOV8XRhYJpOcMYiuenfNcUxJPXr19q7fxRI0uiFjnCyIn6k/41w59fWvbwH8NnmY1e8vQRm6+gqMk5z61I3C+/eov5V2nEIfr2pQRnrTcinKMnmgROnGDTjwMimrjAzn0p7HoSMY6UmMjk6c//AK65jVzmYe1dLKcdDXM6rzKD3q6e4mZp60oOKSitBC5pe9NpQaaAljGTWxYffT8qx4xkjNbNh97Nd2G3Mp6lu3QtPIx6nj9a6azAjVypO4Lx9a5/T2D3jegxXQwqFkOOnevj8fU568peZ61BWgVrmNoLS3hHLsMke9ael2YTDEc1A0P2i9T0VRW7bxbTj0rgnPod1KHVl6CLAGQPariIcfNUMC5K56Cr8YG0HFc7R0XZGq/xCnYA4qVR6UvlkjPelYNCvt6E+nOayNVsBNC3HbitxkbBzUM8Y2EYzVJ6ktJo87hUx3Rhbgnpj1q9d24nhWQKAXAwf9odaNXtzBfCQcdzVy3VZo3jPP8AGmPeui/U5JxsznliSVDFIBtfj/dNYd3C9vcHcPmX5WPt2Nb2tA2WpOuMLIqyKR+tZ94wvLYSfxqNre4rSJi1cwtXiElsJQOR1rAzwK6Vh5kLxn3Fc0wKkqeoOK7qDurHJUWtxK6j4d8eO9OP3cCXncVwPKbuM4+tcvW94Ks5L/xdYW0V3d2sjOxWWy/1qkKT8n+0cYrZmZ0/xKne48H6MTKJE+2zeWwlaUMPLjyfMYBnweOQMdBnFFVviTpEtlYabqc+vX+ryySPbiW5IKhQFbCHJ6FirD1BoqEMbpzsLlpxzlwM+1Ta7ERJ5g/iWqkjG009CvzNkE4q/fss+mxSkgHj+KvSR5j+ILNYdS08QPjevaqUMDQa3Cp7HFFpE1vfxvG+FblhVp3WXXEdeAOtINrpDtTtRLe5L8hhRr6/LH82QF71W1SSRdTXY/BI/nVrWiHij5yMY/GmuoR0sKmV8PRgE/Ss2wkNvdySrnKgVrKoXQo1z82KzrKLeZTux8oo6BHZ3NK+jTUraO4j27lYHOeaXSwTezPn7qYx6VnaNefZrprWU5QtkVdtrpINYlRiArrxSFtoZd6rXV7IxBJzwPSoJ1kWMht349a1RCV1dSBujc1HrSKJyqdxQ7Fpj9QB/sWAjOQMg5qxETHoG7ks1R36Z0eJQcnb0osZ0uNH8nOGWnZE3KmhFlv3jOWVhmrNtN9gvrg/w7yDSaZD9nuXmk4AXFV3BuY7hwOCTj/Gk9tAerLmoW+66iu4sZORxWfOxM7d6u6JerLbm3mPzIOM96p3A2zuMZIPaqTvqNaaEPFBBwMDn+dKcZJxVi0iSWYeY21F5Y+lKclGLlIulBzahHdluyu0DqpbAweT646fpVi2ctKwPGHzjuOKsLolhfQg2kxWQYIOc4/CmCya1lYT5DYJLeueP614kqkZyfKe77CVOC5jTViYlHGMZz9agkfftIHXg08OBAinacDGRUqW6zJGDwQ/JrCW51Q+EpvG0e0gkDPQDgV0OnSW1qkbPtwe+Op9B71SvYzFbBAF39QPWsNU1SeZjCo83+Fm5x9B2+tTuUlbY7y8v4Y7YbpooN3C7vvH6CuWk046kZjDdIyqu4N0JPpVPw74c1CXWUvdS835DktK+Q30Fd1cRRw27fux5khCjAxVSilqKm3K5y+nqbOWJTxuwCPeu5ZN9mrAYZcHnvXJ3ke1oiMYWTI9xXUWdwk1rjduO3pWMmdSjdJFeeygkIeRA7AjaWHQVBH4Yspb0Xf2SHzByXB6fh61qWrIwMbjnOAalWLyjuXkD3qlKy0MpQvoEVpHEeuWbGT0qVseSc9xzTnkG08ciq1xMFjJ3DnrScrgoX1OU8QLv8P3gzyk6nj0/wA5rhCTn3rudacvpOogDClA/wCOf/rmuG6sfY17OXfw2eXj9KiGkHHNREHHWpGJBPQn3ph4bJwD6ivQOBjcjAHU0q+1IemO/rSqTnB6UDLKHBwDj3oJ5JP5U1SB247UrZ6D86QEUreg4Fc5q3+u7VvykE8dDXP6sP3/ABVw3EzNooxS4rS2gCUtGKBwaEDJYxk8ZrVtn2RH6YrKXg+9X4z8nHTGa1q1vZUXImMeaVjY0UZmZjyB1rpIW3uzHpjNc3pB2w7u5JrbtZQEzzzXyFR+9qetS2NywjB+YjsK1ooxgHPNZlk3yrx2FbUaZXJGB2rklud0dkWYFyo/WrS/KB6VDbrtAB4JqwORxWT3NVsSLUnAxmos9AaUk9x9apMmw5sEcAc9DVWUnipN2Dg/hUbcjGOgqkJ6HNeILffFvA5Ws3TpnVIGzwh2H6Zrp9Qh823YEdq5S1HltNEexyK0i9DGquoeLrUNbQTqPuErn2NcnBKSB/dPyNXcaoftWkMO2Aa4AjyLp48ELIoYVvHVHJLRjLomKZsYweeK566XbcMR/FzXRXBEkKSd8bWrn7sfNn2rro7nNUWhV6103gGRYPGljMylkjSV2Udx5bVzPTFdV8NzMPH+lm3ZUnDSGNn+6rbGwT7V0MwNj4iS6dN4K0eTTBAkBv5sxQBgI28uPOdwBJP3voaKn+Jhuv8AhDdF+2HUTcC+uBI17OJSfkjxsI6LjHHrRUoowm3PGFZsADtRvkeLyiflxgcVLs6dKUL3Gea9NI89tEccsikfMPyoYusm9SS1S7PXpSFDgY6Ucom7kchklIc43D1pzSySoA+MinBOOT1pdnaiwCRzS7DETlf5U1ZJInO3G096fsOenFIUJIp8oXRGyneHX7wpJsuwfPzDvU23jr2o8vI+lHKJSTGJczK6sckg9jTp3ec78jOelM8sA5OPwp23jp/+qlylaALmWSIRt90cVEryW7ko3B7VKIyueeD0oKntRyiuKbuR4iORmmQSuiGLsaUR8ijy8ckUWGNVWjm8xDgkYNTZ3E5+pNIUJwcdPSlx7H86LCY0/pVqwhW4maI8blIx6mqpB/H0qxZXP2a9hmxkKwP+NZ1481No2w01CtGT7k1rbT2E0jW5I243p2IrUt76O7niL8qeCOgweP51bChby4Awyna3tyKwtRkijvY442AL9ugBHQV4Clrdn09SFo2RsyAQ3BQkY3fl/npWzYxgqSV3YH3e9cvFdyXDkyKC2ewx0/8A1V0Wn3GwDnrkZ9DRUIpr3TXubWMWsT7OQc5NWbezs5gpdBuAx6UJIklssZ5x3qdUUJwMY7is72NOVlqCGCFMQqCc5LMc7ahniV23MeF4X396k2lsk4x7dDT1iLqwbA+tLmuXGCWpzN4BvZWOM+taOjyAcMRnpgVjX7TXF7LHEzAIfzqxoFw0h2ufnGAaTidEbI6ec+TIXXO3H51atroXCfNhSOoqGZCbZGcgg8H1FUHultzHIgBz96hbEtJmy6EKcH86yb0gRZHbpir0d4s6cHJ6VQv1G9R0GcHFBLVjC1Yf8Si7Hdrf+oP9K4dup6+1d1rf7rTpj3EJ/wAP8a4Qk5wDxXsZd8D9TxsfbmQxxnGKiPX8KkbPOKjxkV6aPPA5JpVx2ph5PXinLn8TSAnU9RTj0po689qRuBx60hkDnD8Vz+qcS9+9bpJyT2xWFqn+uq4bkmcKdg0gFLWy2GxD2oHWj6UtLYCWOrm4BBz61RjPI+tWVDFSe1cuPn+6S8y6KtK5u2GUtIycnNadrJlgBkgmsuB9tgrZ7dK0rBSQG5wBmvnp7s9OnsdBHqEcDKCCzegq2mumM5kiYKaq2NpGIhKeXJ781bazmnQhApB7EVjyrqdSehs2Or2lyP3cgyeMGtRZVZWx+FeX3UN1p9wHRCOct6YrqtE1OS4tRvOSCKipTSVy4yu7HXYHy5pSBj1qs8yqm7PpWZc+I4LZ9hGdvX61KjcpuxstGCDwM1VcMtZqeK7KUDGQT6CrUGp216cI2D703Dl2J5h0w3LXHXB8nUZTjgjJ9+a6uaTAYelcfqUgXUxzx0IqqZE9iV5cQSIe2R/WuT1yHyZoWX7vT8Ouf1roTITJKvQsMis3WIhPpiOOsZKN+HIreGjscc9TCnBAfjhwGFYV9/rK35PmhUjPy8fnWFf8SqK6qO5zVNikeTXReBXjTxppryzRxRh3LGU4RhsPyH2b7v41z2PypD0GRkehrrZznf8AxCEK+HNFggSxt3jd1extCGUnYn73d3/uf8Aorz4BR91QKKlQQ7najOD2P0p3ofbApoI7g9KUHn1X0r0kecLjnPOKM54pM9s47Uuc9D7UwDryT07Uo703GfbFLn8qZIc8d6XP6UhXHIBxQMde1ABnnp2pG6+/WnYzSY7+lACFcZNKQCcUh6Y557UH3GMdKBi9ff29KO3v39KCeMUh4yOnNIBRgf8A1qT65o6E0d+aBic+tBPr1oPWk70WC4HOeDzjj2pN2MdDQeKTr0OM8UCudPpEwvI/L5Mnk7cHuVPH44qhdWJa7iMuCAd3TvVXS7qWzvo5U5YN93+8a3L/AOaITxBnhk6beq//AKq8HEU/Z1fJn1GDqKvQ13RkqNl48YJ6n+Va9q7IGweWAOD2NYocvMWJy2cVs27AxqzHnuawlsaQ00Ni0vGUgE+2DWnb3pkUgfw9vWsJUKHzAM4waltpisi4OR0IFZNXZ0RdtDrY5CR07Din3E4ht5D2xVK1m4Xniq+ou0iLEp5J5FI2tfUx9PvkkkuHYjPmHGahF/HZaq7IMo7flWdfWd5BcSLabcP74xWJHo+p2hW4DySyE8qxzkVqo3MZ1GmelPquI0bfxiqWmSTajDNJMhjTJWMdzjvVDRrO5uWJuYmVFXiNupP/AOqurihEWFCjAGOP0pW0Hzq5V095I8xScMueverFzJujyBg980+aMD94R8/c1XkYsrZ6YqOpbfMrmR4mydMk5/h/MVwx4GcV2/iVv+JbID02j+lcOSDnuTzXtZcv3bPCx3xoa2TjH41GSeacc5pnb1NeicQmOnpSjAJ568U0nnHbNKCMZqRlhTxjrSP93rTVYDv7Uk2enTjmkBASc89Kw9S5mFbJPrWNqefMFaQJZR/Gk70Z74peMHmtEAnQUDvR1oHWl1GiSLGR71fmUpCOO3NUrdd0yj3rVmiMjOg9K4cwn7sUa0VrcuWf7yzjQdPeuj062PkKcZ3GuesxtQIenAFd3pUCtFH9K8Go7HqUtSjqV+NO08sqnf0Ue9c9Y+Jtaju8eaoUc7GHHSuq1jTWMRdVDsuGCHvWDHpYmulZonU55XHWrpcttRVlL7J0dreQatarK6bd/wB5WH3T/wDXpmnReTqDRKvG7IxV+O1DyxPFH5Sqmwqw4IHrTrCBV1VgDx2JrGo0rnRC+lzSuQwtznIyK5W506a8dip9zXY6ioaLCntmue1S6fTrYbFO84wo7mlTKk7lex0e5t+SEYVpNAvXYYZOmR0Ncjb+KdWilllaNPLhGWQn5uuOK67S9Yt9Ytg4HLDDZ6qa1lBxV2ZQqxk7RFS4co8cwy6eneuV1xtl4rZ4IrpbhGS4J3c4x9a5nxIpVYm784NZwWo6j0K6S5YHuRjPtUpRJkuLdjkSR7lHoRWfA4PlHPUVZD+XcI/oRn6Vexy7mK6hVU8/MMHPqK53UTm5IHYV1N7H5dw0Z6A7hXLakNt4/PXkV1UNznrbFOk9KOc0V1nMGaKTtRQB2Xb0GOvvS7j60bfxpAtekecw9u9OB496bngfrQDgnntmmK47jHLH6Uqkjoab19OBQOg/WnYLjz6A9OtISB0pARSjHNILi5wvB69aQ89TTdxwMDpS5yKLBcXg45zS556kU0cnHSlznnpTsFxM5/ClyPrSZAHXmkGM/wBaVh3Fzz1oPPFJ1J4o2kD68UAAwW9abyTnFPO0YHTmmF88gVLkkUoNjgvrSZ2kc0iB5G+QFj7VqWXh27u2G5dqj1rKVaxqqXcyd7E8Z3DkEV01uzPFHKhwWYGWM/3h3A7Vtad4UhtwGkXJ96k1zTkt7ZLq3ADQ8Pjup/i+oP6GvPxPvq/VHpYKfs5WezOTu1C3zeWu0Nz1qzZzfdUkbc1DqIQXEEoP3gcj/Pt/OkBwqMAORz+Brhtoem/i0OrtgssAJOQRj61T8v7PdkDIXOV/wp2lzYQ5OcgY9vepbpd0u7JwentWWzNo66mpZv8AKFJyegPpUpBM/msvP3Rnnmq1ljydzLgnmrhOVG0Z28+1KxrzNIpSory+YBjDcn0x/k1o2djGy7mUEjGD6Vl3V4qlcL0yMVcsb9Y0HmPhQcn1IrRSM3eRfjASdiy4BHapd6xHLHKgZrNu/EGm2sYmeRRkc7jWQ/ifTLqTbFcrg9ATjFF7kuL6nTG5RxgHpyagPAyx9elULGeK5I8iUSKD8zKOlabgBVYjGazZUXbQ5/xQxGluT1OB+tcPk8/niuv8WPjToozncXB+veuNLH8TxXuZcrUjx8c71QJOevFMpTx1ppI/DFd5wgPU9e9Lk8HOaQdRR0b60mMlByOSf8KZKxHb8aVThQe9Rynng9KkZH/IVjakcy9fzrYByMdqxtSBE3PNaQ3EyjjinY4FJ2o71qrIApe1FJUgWLEF7tB71shW+0MoIA9aydNGb+LA71tTKVkkyMAnivKzB+9FeR0UVoyW3PzIe5b9K9B0LaYk/ACvOg224t09wDiu90aXyo19M15NfY9HDO+hvzIFuBuGV9asR28CEOQvTNLBsnQBhn3qZrRFHBrnjJnTKJUlK+WwUYX1qpp8e69kYduDT9Qm8ragGeKdpKtljjr0olqiootlS77TzgYxWZqlk8jiZVDumCRWpu2Xhz0qa4ACpIB8p4NODsRNHnE2lQz6p5kr+UrcshXr9Ks2sJtdWMlsx8lvvqOn4V3MlhbzlZCgyOlVGsYoztRAMnHSuiVXmVmYQpqLdipgToHA7VzniiH/AEWJgOj4NdnJZrbR8E1y3iUBrJgP4WBrGLuzSa905G3yqxnP3Wq7KQyH1qs8YSHPoTmponBUE85H/wBatWcqKOpSlvs83XK7TXNasQbzjjiuiv0/cBf7rZH0rlb2TfdsfTiujD73OeuV6D2o70V2HMIaKKKBHXsWQ4YFT70qvz64r0Ofw7bzZIUDPTNZVz4SHVBz7Vaq2M3A5MMMDPANO2j/APVWtL4buVPyj6VA2h3g52HNbKsyHSRQKrnIPPvScetWDpd4h/1TVEbO6UcxvVe3kT7FdBmc0uMjqKDBMOTG340eVL/cP5VXt+5KohjtmjI5IHWk8ubB+Q/lSeXN/cP5UfWEP2I8AbeTzTdy+vWnC3ncfLG9SJpt3IRiFu9J4gFRRBuGeab5nHoK0YtDvJONhH41oQeFLh8bmI+gqHiLlqkjn9+eeacCz8ICSe2K7S18HRggyZP1rbtfD1pAATGvHtWbqstU7HndvpF3dbSsZXnvW5ZeD2fBmYn2ruVtreBflUDHeo5b6CHPzjisuaUjTkSM608P2tqq/IpNaarDbr0AB71kXOtqMiPk1nSXtzcngkLmrVKUtwukbtzqkcQO0hj9ax5r6a5LKFyp4IPeq6QbuXOSKsKgA7Y9q6IUVEObsc3q9lNaRI6/PArY909j7VDG++M889a3tZiMuj3SqQCq7vyOa5e3kLKCO4/OvNxdJQlp1PQw9RyWpv6dIo6MQP5VsMcoxGMg9f8APauYsZdrLj+9yK6JHBQZ9ga4ZLU74PQ1rVQ0W7PJFPlLRrwwyev+FVrQ5jCKejYrQkiUxMCPmOcn+lRc0bOP1HUreGUrJJ+9YcKOST6Cqq295q1urNfC2gdWKxJ9/j19K6OTSNPcKht0UnqyDBOO1TWum2UOMJwOQo6CruhcjZz1j4bsYpkeQSXLgrtLnPbmrzeDxqNzbO1qkEUC7eRgsM8flXSpMkQbybdFI4zVkXUsrDIAOKXNbYfs433EgsobaKOOCNUVeMKKWdj5W4jnpins5ZOuDntVO+nCEjP8VQrsbVjlPF0ufs8e7J5Y+3auW4B61reIrjztS29o1Az+tZBI6elfSYSHLRR4OJlzVWHb1J9abt5xikznqeaQn14roOccSBnjmmFsDNMZ/TketRGTPU0AWlfIzjio5CCeKjRzznpSFstxSAd6isjURmXn0rVJyRxg1lagQ0o4qo7iZSxRQKDzWltBhTu1M6U4cDJpLsBp6EivqkWR8tb17AEuGX3rC0OQJqKEjiupvwGYtivIzHSpE6sP8LMFXP8AacP15rudNHvkVxFun/EzjOeRmu304kMD24rzKz0O7DbnVWGQOc4rUlbEeOo61mWZCgd6tyyDYa4rne1c5/UpGe72L2FbGnxkW6jPbtXIazqa209w7nBGOfatPR/EUb2qEnjHWtuRtaEqVnY27o+VKpOOTWnAA9vgjORXMnVIb6Z1Vh8tdFYvut0b2pO6C1x6QvGSo5XtTliAbJHNTMeMjrVOa7wdvcUmyLFfU5wkeM85ri9fmzYsM8nkfnW7qE5kkxnvXH+IJzgJ/d5rSmrsyqaJkXlCW1B4IdeMVlQymNSSDlGNbembZreHPAyUI9D2rNkt9q3XH3WBrU5SveN5lszjuM1x0/M8hxzk11spxbuoPY1ydx/r3+prpw63Oev0Ih0oNAzijpXUc4nSijANFAHsFn40gfAlG3PrW1Br9ncD74H0NcfNosTnOAKqPosiEGOQr9DW7pRYrs9IS7tpfuup+pqYLBIOin6V5gINRgPyTEgVKmo6tb47j2NR7Fhc9Ie2gb+AGmHT7dusYrg18R6iuA0TfgamXxTeLgNE9S6Mgujs20y2PHljH0pv9kWx42D8q5NfF1wBzG35U9fGEo/gfn2pezkGh1R0m2H8I/KmHSrVWzsH5VzX/CXy5PyNn6VGfFVw38DYPTij2cwujrk021A4QVJ9mt14EY61x3/CR3h6Rn8qadY1CQ8Iw5pqhNi5jtwsKDOFGKRryCPq4FcR9o1GU87h+NPFrdyn95Kea1WGfULnUy67bQrw2R3rPn8UA8RKayo9M/vEn8atR2aAD5R6VaoQW4XGy6rd3PAyAahWCeU7pJPyq+IAvSpFTHpWihFbBe5UitlUcdT1zVgRgdqkA5HTNKRx0qgsMAA+tJj9e9LjNMJ5J/SlsJA6LJG0b8q42keoIrhovlZkHBU8D/Cuh8S6mdL0WWWNiJ5P3UXHc9T+ArlLAyCys5X4Lx8e45Gf0NcGNtpY68LuzShnw46gk810FndAx5Pzbhn8a5qVcbZFPUVf06Yn5c4YcV5jV0ehTk1udVY3CC4ZVHBOea2LiVCCwJXjg+p9K4kXEltdKSeAe9dTZXiyrk8qw2nPY1lJHTF3FRi8YdcDaeBUtsu6QsSOOg9abFEiysqnAJ49qkcrAp4ByeOec0ka9C3GgVs7cnGetWNjZPYCks4g6iViDnnirN0ojZSpHpj2qmCWpWWMpHyRx1NZOpyhT82OBlsjsBW1PIBGzjGMZrzXxlq11Fp4eJJBFcSGFZv4QVwSPyIqqUeaRhXqKCbMm7uDPcSytzvbdzVUycAdf6VBFc/aYVkXqeD7H0oJ79a+ohblVj56TuyVn4xxTGkyc1HnAHvSDPNUSOLH8D2ppPfP596QsaQ9eaQMUOc54HtSh8g/oahZsngU5GHpwKQEu4k88+lZt8RvAGT6mtAHI+tZ17/rMZ4qo7gVOlKBikozVJjFxR7UppDxihgWLWQxybhwR0rtBILqNJASQy81wyHBHNdd4bPmRvEWzheK4sxp3pKfY2oS9+wW9qBdedvA2jGMetdLZMRIhzwRzWE7iLUREAo3x9/Wt+2jZhHjBOM14FTVHqUNDpbdwqj6VJLKGI+bPtWUzyQpyOAM/WnwyMxBLZIPNc/Kdt7GfrWhi+m8xT16qehrMh8L3sE8ccbYhcdz936V28IV1BIGO+asyIrPGVUH09q1jJrQzauzidO8P3NhqrFQzRMcsxPSu7t8QgJnp0ppjAPIHHao5nXcCpxg4qJ6lReli+8nyntWVeNgEgCrZceWDmsy7YnOOtZjtYyLiQlixPPauM1icyXUw7dq667P70jPAFcHrJZbvdyAT+dddLocdd3NDQLlsvAeuQQfp1q/cRYmvUHIZMisHTZfJvEfPBIFdNMQZyQPvRYpy3MOhy00o2R+55rmboYnbHqa3pjtQL3BH86wbrAnYA55NddA5avQhzSEiijpXQYiYooooA9oMeB600w/5NXzEAM00w810jKBhHv+VNa3HoOtaHlHsKTyvbigRnG2XuophtE/uDNaZiAPSjytxyKdw0Mz7En9zJ+lAsI8D5P0rTEWBQIjRcRmfYY+oQDmnrZRjnaPyrREXtTxF04qkwsUVtUH8IqVLccfL0q2seOcU8J+dUmhMrLCOmBxTxEB1NWRHk9KXZjqBTugIBHjr+fanbMdqm28dKTjkUXERFQDSY74qTtwKYfrQA0jnOOaYTxjmnnoaYfWgGNz+VNY4OeMdKU+xrE8T6wNH0tmT/j5mzHD7erfhn8yKG7K7BI43xlqwv8AVTBC+YLUFAQeGfuf6V0sungeF9OmjTiOJQ2PQ8/zJ/OvOQud2TnI5zXtPhq3W88L2cci70e3VSvtjFeVVlzO5003yu6OTiUPHjuO1NVWhlyDir11YSabetA/Kj7jjoV9f8+lI0eUG7BFcjPRXvaosrLHcQlZVBJ4zViyuxGfLk+bAxms2MGMkODgjAxU+BIMoTyOlJxuV7Sx0cdyQ4kBGFwcdiKtzzpndjcfvA46VzULywlsMSMdPSrK3ZGMMcdcHsKhwN4VV1OohvESADfjBzhfWnC78zD7sgZPNc2t/uRwigE8bjTBcPKu1X3Njt0FHI2P2yubN7f+ZEY42wzZXFM+IvhsW3w0txFGRLp8izvjqd3D/gMj8qveEtJN7q6ySZaKD94+e/oPxP8AKu41fT01TS7uxdAwuoGiKnvuBCj/AL6xXRSjY87F1OZ2PlaxlEMxjYgK36Hsa0WPb26CsVo3hmaKQYdGKvj1BIP9asw3pj2pJkoOjdxXqUK3L7rPOlEvHGcAZ9KDnPPFMSZJF+RwfbvSjrzXbzJ6oizBjjFMY5zzSlueaZkcnvSugDIHU89qB2/Wm5xz1NAPOM80wJwDnn9KoXgIk6VeUhsZyDVC8+9nmnHcCtjmjFGaM1QwJo6ijORQOpo6gPXrXV+Gz5cyL65BrlU5bnpXU6KCgt2PO48muXMXahY1oK8ybUz5Wo2zk+tdTpThxGfUVy/iBPl3r/A+RWpoV3viiJbgda+elrA9Oi7SsdpdWoks8r/CM1x0t5f2rsYYWcZxn3rshcYtCCflPesK8jYRfIdpPIPvWEJWep1yXUyrW/1W8lC+ZsJ/hBrQGqarabo2VmRT98VT/eQESPAzY6MtXotZjnIRk2nGCSK13OunODVmXtP8VRTEQXSmOY8BiPvVoS3AMbkHnqK5u40y3v2yZSG7FetX7ewuonWEzGSM9CaiSVjCoo83umvDc+YmSe1QzS5yasC3SCHZ3FZtwTsbPTNZrVik+hQcFlcgElugHU1y3iiNfIgYDbj5TkYOa7vw+1pJr9tBdzCJdrOpxksw6L+NYfxQTTFubeW2uGa8uWkaeE9EA+6cds11000rnBVmr8pxNiS8R/vLzmurjIeKF+eY/wClc5pUYMbnHGCK6GDK29up/uH+VOe5kttTkboFd3+9/WsGf/XP9a6O/Xh2z/GcVzk/Mr+xNdNA5qpH1pDS45zSV0GIlFLmigD33Z9CKbt681J1INLjr6YroAi2mk2cZ9amHuKTGRxxQIhKY7Ube9S7Tg0FeeO1AEWzntRs74qUD1FAGKaAj29KUL71JigAUwY0KO549KdgYI70vGaUDt0pq5ImMjrSjGOlGSM4ApDVjEPr+lNbHQ/hTmPXHaoz+YpiGseMZqNjz2px5Iz0HpTSQM5I9qBDWPfHSmk46n8hmoL+/tdOgMt5cJCuDjP3jjnAHrj1ritT8dTOTHpUflJniaQZf8BUyqRiUkdjqV9b6VZNc3JKoBlQMFpDn7o9+1eU6zq02s6g91L8q/djQfwJ2/Gq9zd3F05ee4klbOfmbIBPXHpUHQ1x1a3PoWlYE64r3T4dYuPClk3UoDGfqGP9K8MT73New/CC9EmnXtk334phIAf7rDn9QawaLjudjq/h6LUbbbtw68ow6rXD3Gn3GnzG3uYsHoH7H3r12NemOlQ32kWuo25SaMEHv3H0rKUVI6adRxZ5NJbbk3nGaYIQqjGAP1rrNR8JXllue2U3MXov36wzCrgquN4JBTowI9RWDvHc7FKM1oZZn2HYy9+CeP1ppzJgq+0Z5qe5sXLbtvSomtmXPPsKFIThZjkjLLt3HbWvbWiRqAFweM1W023aWQAgkA5Ndl4d0n7feB5F/cRfM59fQUat2BpRTZ0vhnTvsOkR7hiab52+nYflWw3ySRtxkOrfkaei/T04okHFdUVZWPPnLmdz5G1iD7NrN/ETylzIv1+Y1ntyPwrd8Wgr4w1pMYxeyfzrDxwK0MhoJBGODVlLqRBgkMKrkcmlHFOM5rZisXRco+DkLnjmnE5Hy8+9UT24HFCsVPysQa6YYpr4tSHBMvfXrTQcn0qDzyMBlz7ino6sQd3510QqwkJxLKE49ap3nL5HSrSHHWqt594HtW8fIkq470uOKOnFB6VVmMQU7OKbRSBEkf3h3rqbZvKhiz8uOawdNtzcXKADjOa1b5juZVOFHA/CvPzGd0oHRh1ZuRraqwaEMTwQM++RVLw9ceW7wM33H/SpIphe6OhYjcoxWFpkzJfTPk/Ka8iEdGjsvZpo9SiuQYUBbNXNiXCqGxjrXExamV2gt8tdLpV6J4zyOBXPKFjthO5vQWyiIIVUg9KRtJt3O7ylyDzVi1kQwpuIyBn8atrIhBAPQZNTc3sjEFiIJyUQbaubRGQccg4/OpgypG5JyWNU5JVZcZ+tS2RZD7mdTnpnpWNeXACkGpriXGWJwa5fW7547WeVT9wYB960hAzqTsjMl8V/2f4nS4iJza/dKjOT3rP1fWjr+ry3r7hHwsYI6L6fnmuedd8hbPLHkn61o2oA2oBnua7UrKx5bnzPU6LSlDBvZea1nOx4gTyIif0FVNDgzayv3OBn1q1cDN9IB2TbWL1kbW905i8Be3mYdmyfzrmHO52xXT3YIsrnnHyZ/HNcufWuuijlqh7YpppaTmtzETtRRRSA+gepz60Hjmkzge9KCMHua6RCg5FIfbvQO/rRmgBO3eilJ6U3pk0ALz1HWjP/ANejnrQD1poGLnvigeh70npRkcUxCr60vvTc0vaqAMjrSZpM5J9aXDHgAk/571VgEJ4qNskmsrU/FGkaYGWS6WWbZmOOMZ3+2exrkNW8dXtyWj05fslufusRmQjHRvTn0qJVVHcLXO01HVrDS0zeXMcbfwx9WY+nH9a4/VfHcj7o9Mh8tTx50w+YgjBGOn41yMkryyNJJI7u33ndiS3HrUZxn61zyryfwl8pJc3NxdzGa5neaZsbnkOTwMD9Khbnk8nrzzS4Gf50h6Y9TWDbe5QzGDikIxxTyetJ1qQGgc13Pwv1A2XjGGFmwl2jRHPTd94H65GB9a4cZyDV/TryTT9RtryNtr28qShgM42nP+NHQa3PqyJeOasooxVa0lS4to5os+XIgdd3UAjP9RVtBg4qDQUIvYc+tY2t+GbTVf36D7PfqPkuEHJ/2WHcfXpW8oz0p+zI5odnuVGTjseQXkNxbTy2VzHsnjPIByCD0YHuDVGSMALkcDivUfEnhlNatA0ZWO7h5ik7Y6lT/sn9K8rvGmt7prS4VoLhW2vGwOVOeR+feuWdNxZ3wrKSNTT4GKhY4y0szBIo+hYnt+fX0xXq2macunWUdsDudeXcDG5u5/Pp9Kw/C3h9rPZeXIHn7MIP7mev4/411e3B6GtqUOrOWvO7tHYQDApj8qfXmnnpUZ4DVucx8r+NcDx1r+Dx9vl/9Crn2HPFbnjFs+M9abrm7kb8zWGeaozE70ZHFHPWg4oAU57Uc9KVeRS4pANxxSEZp+OlBH5UWARJnjOAcgdjSzSebzikK0hHPFbU686ewnG5H1pBTjzTcV3068Z6X1IcQpw5PFNFWIUBINaTk0roEjd0G38oPKww2OAfSq2phklfB4rV0rDW7E89qo64FRXbHBYAV4VaUpVbyOyK91WGaZdRwsbdhwwzTIbMw3tx3Vzke1YiSO1yhUkEtXR2rPJcOW6HFZSXLqXTfM7DADyMnPatDT7+S1fAPWkmtgV3J2qts796h2a1OqKaZ29hrSMgDN06VrRamjjOeT1xXm0UzoeDjFXor65A+XoO9Q4ROiNV9Turq9RIMg4OKyF1ENIQH5rHWW4ugCznBp4tHjO7OSajlQOVy/dXBfCryx4rF8VR/ZfDgB+9I4zW3p1s0spdxnHArD+IUwSG0h7FjkVcfiSMaqXI2ziUi34INaVlGeBj5nO0VRsY2lkEa9a6zRrMXF6r4/dRdeO9bzdkcEVexvWUAtLGMEdF3H61nNJkyyluWP8AOtLUZ9sJUdT1+lYtzn7NHjgvICPoKwjq7m0tjO1ONUs7hfUCuN64rutRhM8Log6gsfoBmuFHeu2g9zkq7iH2pKUnrSdq6DIOB1opM+2aKkD6ADZB9qMUz2pR35rqJHAnB5pTwcU3HPtRnr7mgY7J446ik5NBJwRmm9TkmgB2aKM5ApKBC5Axg80ufXtTQcc0nbNNAPyD07Hn2pOxwD0zk9BVHU9WstHtfPvZQin7iLy7n2H+Neeaz4z1DU2aK3ZrS1z9xG+du3zH6Hp0pSmogk2dprXizTtILQj/AEm6XI8iNuFPozfQ9q4XVfFmq6tmN5jBAefKg4z6ZPc1hAYGCOlLzXNKq5bFKNhBwSc4z196PzpQPUUuOcVBQwg4yaTFPxikI60gEx3pvU+1ONNHQmkAhFJ2px9KDQMQDpT1wDg9KaMge9OXj60ID6T+HGoHUfA2muzFpIlMDE9SUOOfw/pXXqK8t+Cl6JdF1GyLfNDOsgB9HXp+G0/nXqijBqWjRbDlIBFWV5/HtVcDmrKAnABINJAYHjPxRbeE/D0uoS7ZJmPl20XTzH/wA5P0xXitp8VPE+JJJYtPvoY8GR54F3kZwAT19PpVH4meLx4m8WSxwsG02zzBb8feA4Z/xP6CuXTbOzeWVVEQ/K3Q+2fU81rGKJcj37wR8ULXxDqp0m+h+zXEhzaueFl9UPo2fzr0XP19818fx3EsLJLa7oZIkD7lck7lOd/selfTfgjxM/ibQY57yPydShwl1F23EZDD2Yc/nSmrAnc6J+SKY/CE1J19KZN/qm+lT0A+UvF4P/CYar0BNw386wj17YFb3jFceMNU9fPY1hHANUSxMUYp3Wk9qBCDNOprHHQZp3T60AKKQn0/Kl70HnigYn1pDzT/AK0lIBhFNIGakIB6Gk4PamBGFBOA2DjvT4txcKOvtTekijb2qVJTDIHAGa6qVaTfKybW1Oo00GG0UNwxOSKy9ck82TbngVY064aSJQzZO7H41BqkQEjlu/euGpFqq7nQmnFGGMxzK2feup0QefAZcZG7Ga5SRs9Oldz4YtSmlID1+9+dRWjyJXLw75pmnHbB48gfnUDacNxAxz6VrW6bTtYcUTR7CGx09K4+Y9JxMgaQsqccc1Ja2LJMIXxz0PetuGEmHdjjrU8liNiSY991JzGoGRFb/Zi6N/DzUjbpSFUferZe3WZRIAM4wfemQ2WxwzdSePakpalWJLG3EUanaOnb1rgvH8TzanbhMtsQnH1NeiyypboSeMDtXH6nJFc3ZkZcyDgc1dOSUrmOIjeFjnNH0h3KnaRnqa7CER2VuI0ABA5xWXHPIgwWVAOw61HeaikUZ+bPr71rK8zjS5US3LmaQ5b5epPtVAXS3bNtHCfIBVOS8mMnz8KwzkdxUujwFriQn7m8fjTtZCvdnX6DawNcyz3IHlIm059TXEeOLHTLTUA+nsu1uoWus1O6iTwJetbyASiXDMOteUNI7nLMWPTJNb0YmFViY9qQ8Cj8aDzXUYIKKSikB70M5z+BoB46GmZ96Xp14rqJHhu1O9KYGoBwetAEmaQkY96bkY9aAevFIB4Pf1pue1JnjApM80AOyegHXp9a5XUvHllZXFxb29m91NGdqz7sJuA6EdwDWl4j1E6ZoV1cKSJMCOM8feY4H4DJryIZ3ck8evWsqs+XQcVct3+o3GpXbXF3K0sh7+g9B6Cq4/L0oIBXOMUvXoa5731L2DnpS44oGc0uKAFHP1oI7Cg8ZIoxnnoaAE9qOpNLjFB68daBjW6U0DgU6TCgZowMDHekA3FAXJp2CKABjPrTENoGaUjApB160DPS/g3emDxbPaD5hdWrD6FcN+fUV72vIBHSvl3wTfjTPGWk3TBii3KIyqeWDfKR+ZFfUSDHB6qdp/A1LLjsPA596yPFj3p8MXtvpsnlX1zE0UT/AN0HqR74zitgD86qXMQmcueUx8h9KlFHyZe2VxZ3E0MsbBkO1gwwRUVviWWKJCFJ4y3TPrXuHjjwZFqttNcwKEuIzvVgPvfWvDruB4p3DgLIHKsvb8PxrRMzasWLuRmtgscaqVjcHacFhyefoD+le66XbTeGdbtLyDcYpbdBMF/5aIQP1HUV4TO2+x2ADeS3z9+RjB9hj9a+nrRItU0rSb5Fwk9rG6g+hUCnU3HTOmR1lRXQhlYZUjuKbN/qn7cVSsFazb7I2TG2TCfT1X+vvV2f/Uv34rMbPlXxmR/wmWqD/pseawT1zW94zP8AxWWpkD/lsawD6VZDFHvQR1oFLQIjQbn3HoOlSDNIoHQdBTqAEHSgc0dfrRnHegYo5FFJ0paAExSAU7FIeKAI8/vRj0pW7UAZmOD0FDryKcJcruJ7GhpCvPIYVJDfeH1pup3bSyGMrhlOG/CqltcSWsvmRthhUbs0krO7ZZjkmu+VDnmpE89lYks7Zbq7igdwiuwyTXpmj24jh8scADFedaegN/B/vivVtNj6nGa4M0XLNI7sDqm0SRwbjg9akntMwE45Aqz5Xl/MOatxKJkx7V5Fz1TO08BrYqMnHFW1UDCEHbiq7wyWkpZFyuegqVpyV5QgjpSYJErQIn3c46getNCFju/Wo1uWK4wxI4q1GrOuWXC9qQ7GVqcU1xCyxjHvXC6nPLaFvPiPy9Hr09k3ELjA9KwfEWmR3OnzfuxuKnHGefpWkGrmVZXi2eYS6zI5JToemaIbhro7XbPpWaUKkqRyDg5pATG25SQRXuLBXhzRPE9q+azOhmOdPj7ujbTj0qVtQXT9PO0gzNk4rHtJ2ZXRznK9fcVTnkLynLEjGK5PYST1Lc+qJ11eYaVc2RbKTPv/AByKpW0DT+ZtBOxdxqE5Hartlei3t7iLbuaUbc+1aWaM27lLvQaMc0hq7khnFFL2oougPdBx1FLux1pm4/gaBXUQiTOBzzS59KYD69KXPHX8KAHDrS5wck0zOKN3OO1AIcSfWkz70wnJweopd3HpTF1OL+IV3iGwtVP3maVvw+UfzP5Vwa9Biuh8b3Xn+JJI/wCGBFiGPXqf1Jrnh1rhqO8zWK0J1GQRSAZFCUv8WPXrSCw4dRR6mgD0pRQAYwKP1o780cUAIRSdKXtSHrQMRhlcEcZqHLwn1U/pU/bmmkZ/GkAIwcZU5xTgKjWPYxI6VKTntTENNNpTz04pKBk8LvG6yRnbIp3I3oR0NfWulXcd/ptreRNmK4hSRT6hlBz+PNfJCc9a+kvhjftf+BdPLkF4A0Dbeg2ngf8AfJFS9ionabCw2jgkYpqR7YzGf4elTxqcbqJRyGFBRQuIEdJFwPmXmvA/iT4aOn3zXsS7YZG+Yj+Fu2Pr/SvobAO4Adq85+LQht/CM0j4DySRxRn/AGicn/x0GhA9UeDwSbrVkMbSSswMbDoPX6npX0r4FkNx8PPD7GNkMdssWG6naSufpwa+alUsP3O7fuLMmcBADnj8P5V7n8GNak1Dw1d6ZNIXeynDxZ/55P2HqAwP51pIiJ6fLEJY9pyCMEMOqkdKYzloXBxvHDY9fb29Kn7fpWVcrLBqMlwpzDKipIo6Ljof1rIvqfM3jQY8Z6mBx++P8hWCfvZ9q3vGoK+NdVU9pufyrAPFUZsAadimjt604daYhOeKM0uKTvQAvajHekpe9Axe9FIKXvigAPXrSHrS8UnUD2oAjU5nb6AUrnHY02P/AFjn3xSydeDSsIQjvxijq1Cr8vJzSgZbrgV7WGblTRjJWZcsmCXUTc/fX+dezWUIFsGXJyM814nC3lupz0Ir3fTL06tZJqIKGSWJDNGgxtYADgfhXnZzSdoyR2YGoo3QuzfGeCCKZbghscjFW/lIPzYOcVCUPmZBwPU18/6nspp7D5Yd6Eg/N1FVzuUAOuK0VyU5BB9PamyorDBxSLTKELjdt2jI6e9WAC3IJA/lUPkbZMqeP89KuRxfLhjzQ2NsiSMBtxOaZJD5kyPyFh/fOfTHP88VJcbooWYLkIyhs8H5umKSdhNatHECISNzE9X9vpWkFZ3Zy1KnNpE8E1KF4dSnWTly5Zj7k5qsVFbfiqMJ4iusdCQaxGZRnPavsMJJOgpM8KqmptDQSvTimkZpd67sUvtmqSpvVE3YwqD2pqxhTmn8ZpefrWUqFKW47sgKEAtUZBzVo4xzSFA3PYVzzwrW0hpsrdKKlaMA+1FczhNFHtgzznsKXPXmk9s0Anr61uSPzkUvfAOKZk0me2M4osFxxbnHJxzTSfShm5xnFMz70IRIDz9aGKqCzZ2gEn6AZP8AKmAnHrVTV5DHot84PzLA5GPpTewHkl5cteXs9y+d80jOx+pqJeT6UmOB9KcBxXnt63NiRG5qRuqtVcAg1Mpyp9KAH0vbNIOcGlwRgUwFGScd6Tv2paTFAhO1BHeg9cUdqADHOf50h4HHWl7UmM8mgAAwtA5HWl+tHFACE8VGe1PxxTeR34oGPXt/WvcPgdeiTTdWsCT+5mSZF9mGD+orw5OvIr0v4L6gbXxo9qXwt5avHj+86kMo/wDQqTGtz6FBxx6dqG+ZSPSmofl4p2cHPakURDr+FePfHC/yml6WuCmWupQDzjO1f6mvYWwHBxXzr8WL4XnxBvYztIgiitxnoCFzn/x6qjuEnZHDODHFnIAZiyt1OMf4V3Xwt1aTQ/HVnaTMEgvFNu/IIUtyh/Bh+ZribQwmGYyqxO07Nv8Af7Z9utWLeRbb/SIHKXMTpJCVGRuUg/0rTlujPZn14TxnpUE3IlGMDHf6VBpOpxaxo9lqMJ+S6hSUAHpkZI+oOammP+tB/wA8VizVHy/49YN491f2lA4+grmyOc1veNjnx3rRx0umH5VgscGqM2HNOIAJ96QdM0vBxxkUCAY5xmjoDSHjgGg9MUDAcgfSl9aQcUvvQAvQnNHvRzR3oAOlJ0FL2xScgc0wIoeS5/2qcwFMtzkE57mnt165+lIQnGeT2pPMXbSMNwOM8+tVMSkY6V10K84R5I9yZRje7L8Ugdsc4+ler+CbiSfRkkhk2TwEq3ow968hgDKvJ/GvSPhpqCLc3Fi55cb09yOtbY2Eq2Du91Zl4VqFa3Q7u6mmksSot9tx2kU4DZ9qktCkksfmCSHMA37hn95znH6VYYYPUcCnoBnJAPsa+YdR9Uez7NLyLS24ATbKh3Z7/dqC5jSJVZj8pbbxzin/ACYJCjOPTr9ajypBwP8ACk5QfQIxmuolokExlLuFVDhX7NjqRV2Oa0jt/wB3G0kwYYJHHWqQ8sDAC4HHFPEgwOcZpKaWyCVNy+JiSx+fL5suGbjgdBTJE2qT3A49qlLqBjGaiuGxCx9qlNsqySPEvGK7fEU+3HIBNc1MrEhh+NdD4slEviG5I/hwv6Vig+tfaYSlz4WMX2PArytVkyltkzu4o/e+1Wig/Ck2L1o+oRRCqFf956ClDS47VPjjjpRjHSl9SXcfOQESHrijbIRjNTj3o6fSqWEj3DmIdp7mipscUULCw7Bzs9j5x09utGeMZ578UgxgkUAnua4xijrS4OQaTjjnApOD3wPWkFgJGcYpufQ+9Jnqc9KbnJ/rTC5KDxzgU2aJbmCS3IBEqGM++RxSAjAOcgVkeINft9HtpIt5a8dD5aL/AAkj7x+lKTSWoHmTIY3aJsb0JU49RSAGo1J3EnJyeSasADrmuB7mg0Lk81MAApwMU0dqeOR+lADUztFOHTmmjIX3zTh0pgLSHpS9RSHPegAHSjvQOlGDzzQMRwSpApqPlQfTjFPxz1qFfllI7GgRL0+lBx+FLng0jcigaEph608+tNI4FAgX610XgvUTpfjLR7wOqBLtFdm6KrHYx/AMa5tetWAcLnGaBn2QvBx74p/rWfo+oDVNHsdQAA+1W8cpUHIUsoJH4EkfhV/pUl7kW4hwD68D/P1r5S8U3i6h4k1W4Vi6veStEAOWUscD8sV9T6ldJY2VxeSY2W8TSn1+UFv6V8imVt6Txlt2QzNjo3b/ABqkKWxYt1muIgixqfKjJOwAfKvJJPcipXLXIZhEo8lFz5QxwBjJ9c9T71FDGsdvH5dxud1O5VyCnPQ+uQM/SpXAjQGKbcGX5wvGw/3T9Ov410rVKxm2j2n4Ma0b7w5dac2AbK5JjTqFjfkY9s5Fei3BwJfpXgvwiv20/wAfpYb8xXts0eAeN+PMGfcYb8692vGwJv8Adz+lcs92aLzPmHxuMePtfHpeyD9awDk1veNTu8e+ITnn7dJ/OsE9aCRR0FL/ACpBxzS980wExz6UjdsU7g0n8X0FAgzS5pPSl60gCgHrmj6UuD60xidDTSeKf1qJ+AcUMQ2EYi46nmlGcc0sP+qXHpT8ZFJARHj6UuzJ4pWABx2oXlcdq68Fb2qi+pE9hGAAzjAq9pGoy6ZqMF3ETujcMfp6VSI460xTtbrzmvamk7p7PQzjfdbo+h7K6j1C1huY2Gx1yMdj6VO5AOcdvWvPfhzrRYSaTK+Wxviz6Y5Fehsh2jI6+vavjMZh3h6rg/l6Hv4eqqkFIi3syjnAFG5xznIqbyPm3HOOlSLCo6VxnQmisASDxR5bev4VcSMMfegoFUliFI67iBgU1BvZXE2luVRleGNQajcpBYSSSnaij5m9Kiv9d0rT0JuL2IYHQHJNeX+LvGcutL9ltVaKzzjnq9d2GwFaq78tkctbEwprXc5zUrj7XqNxOD/rHLA+1VRjrSn3PAFIBzx3719nTjyRUex4MnzO4vsTRwTzxRnt3pDWrJQbeDg0hyBS85+lGDmpaHcaevFIBSn75X260oxjNRa4+gnTrRQc+lFFhnr+c9qXJ3dO1N6HNAI6+teOWOOe9B6YpKQkdfSkMYTx7YoGR9DTS2cccUg65PQUxEqknAGR7V5Trc4uNbvZN25WmOCD1xx/Tiu/1/WBpGlvKpHnyZjiB/vHufYcn64rypnJPBJ579a568vslxRZCDBNPxgdOKihfcKn6iucoQHmpBg1Ey4705DjFMBV6t9acDimn75FKOlAC9s0H86B3NBNAxBg048Cmr16UtAhTUMwO3cOoqXvSHBBFAAp3KD60e9RREglPQ5qY+tADT+tIRzk0ppD1oAZ34qeM9Mde1Qk5zT06YPegD6T+E+oC9+H9gmfmtXktiD7NuH/AKF+ld11rxr4H6hmLWNOZ/uvHcovpn5Tj9K9lTp7dqg0RzXxAuzY+BtYnwSPsxjOOuGIU/oxr5fCqkyJNuWAkEqOpHb9K+ifi/cGLwLNCmN9zPFECT0GST/IV85ghtwVC0hYBWDdBnkY9zj8q0jsKRds3iTDSQmRAG+XOMjt+tPRkXcZEZwy4XPGD2NPgW6lMdkVG4SMAhABDHGRn8O9CiW5KWx2sUVtoJwB1J5/Ot1a2pm73H6BfppHiXTNQJkIgu4nKp1KBvmH4jj8a+otQba8q/7ODXyfNI0jecUDiFQcAY4HQ/nX07Betf6Tp127h3ntIZGYdyVG79SaxqouLPm/xRJ53jHWpc53Xkh/Wsg9at6nIZtav5e7XEh/8eNVCcVImLzilHSijPFAB9KaCdx44px/pSD7ooELil4FIKXPHWgYnfilA5z3pM0A5oAWoZThWqU9KrzEgNSYEkfEQ+lPA4pIwNgz6U400BGwBbFKp4PpScZoHORW+F/jRXmTPYU9MVG2c1J9aay55r6Ccbo50y3pl7Jp95Fcwn5423Dn9K9HtvihaLzdWUqt6rzXlinBqYnI3D6cGuarg6eISc1qjaFedJ2ieqv8VNNAPlWUzY7nFUrn4qSGMraaeAT/AHm6V5sucD27ClJPPFZwynDLVoqWNrdzqbvx9r1w3E6xL0wi9vrWPc63qV2xM9/O+e27FZ547/lRgAcda7IYWjH4YpGEq1SW7Fdi53OzMfVjnBqKTlwO/epM+oqP70xJ7VpOOlkTF63YpFHaj2paYhO/Skx2pSaM0AHbikztyaPbvTX67aV7BYB0578ml4po496UGpRTDr3ooJAopXGj10EUY9elICR0oyQQMdq8c0FOcdetIW4IIoBPJxSHkc0gGEgHGKTOF5wB7/4/r+FB4PWuY8W6t9ntlsISRJOu6Q+ien4nP5UN2VwSucx4j1Y6vqZdHJt4vkiz/d7sfcmslE3EYGKcQe1PTgcVwN3d2aDAAp61IJqjZMtkcU4IM4zzSAmVww4608Dmo1QLz0qUHPGeaoBH+99RQDxzx6Urj7p9KaOtADhml6cCkHalIoGHoRQaP5UH3oEHQUnvxSn2pMGgCF/kcOOvepuCAR3prqGHvTYmJXaTyKAJM4pp9+Kd260hOMelADCMnnj0p0ecikPXH60i8HH50Aeg/CTUPsPju2idgqXkT27E9j1H5kYr6PTAUDnp+VfImjX76ZrFjfoRvtriOUE9OGGf0zX10rrIA8bhkYBlYdweR+hqWWjyj45T40XTIAchrlmKf3sJXiYVpA04CqiBSdpwW54/Xn8K9Z+Nt3IuqaPDH0WKVixHAJO0fpXkmxE2jzA5KAnZn5T6H1P6VrHoTLuXFRfLd5LgmZpMFTyWyMls/WnHYIQyyZlycqRwo7H8efy96TdbicmCJjCGUqr/AMQ9CRz61J5i+ebgQARBydnO3H93NbLoyXe9mV5lGFMbs28fvF6YPp7joa958G3CnwN4eAk3mOLyWbrllkPH6ivBsou5nRmDKVUnIAPr+HSvWfh3dKvgK3jDAm3vpVb2LFWH6CsquxUTx64/4/7vA/5bP/6EaiPWnyMGurgjvK5/8eNM6GswYoJpSKMEilHHegQhPFJ0FB5wPzooAUCjgGgA9qKBgOTkUDp6EUmecUuOeaAA+tVpT29asE+tVZOvXoaTAtKcLQTxTVOVFKelMBp5NA4bGeaaeTQPvZ7VdKfJUUuxL1Q8dsnmkP40vcml619OrM5tiM8nIFSodww3f0prA01Tgk1K0YPVaknIJ7Udcc8+lOYE85pucCtLIkcPfBoJyKOwHr3oGD9KtBcToOlRx85buae52qcUiqAgqJfEhrYAQeO9H0PSlAz0o70xBwevAppyOtOo5PFSxidiTUfJ5PU05s8KD9aDyKl6jQnJ7dKUDjNGOaUc0IbGE5NFNHXmish6HrwORjigMe/em56Y7UA4615RY/NNJ4oyCPekJ9KBjDzjPWvPvF25NfbccgxIV9uMfzz+degscnJrhPGyMNXtpCPleDA/Bj/iKyrfAOJzhBJz2NCk5qRRxSbOeK42aMUKGGMcUoUDvQpw2O1K64PFMQhyT7UAsvalB7U4fMc0wBiSmRTc805gdhxTCKAHjrTj69qaKXtQMO1KeRRTevPSgBwoPFJ7DqaOe9AgPINRH5ZQex61KTzTXQMhFADvwozzTYmLJ7ilOSKAEbjikHWnEUw5zQBNGAylX6Hg/Q19WeC9QOq+CdHvHK+Y1qiyBegZRtI/SvlJDz9a+gPgtqIuPBdzZE4azumwPRXG/wDnu/Kkyos4v4w3Ec3i+2t5ZZFhjtQzBOcE5wcfgPwrzuKULG5MILNHgE5+U5zlfX0/E12vxPYz+OpY4oGadUUbgeoC56fnXHp5lzsUyxosUJ2buAAMnH6nmtI2tqJ7k5Nzbo8bDy96q7DAJK9QRT5Y5YXNqzqVMgLBWypbGM59getQgRMrmSZwRGCgPJJz0J9MA09fJ2SBt2842BQMDnBB/Ct9UTe6uNlSZ5Dal9wRm2nPGe5z74/Ou28C3+fDesRkgeTOkmFGOsbLn/x2uFdYzAdpPmhsjB+XH/663vDF19nttYiD5D2nmPx0KkjH/j1ZVNhxepyiENls8k5pWPtTYRiIZHOKdnmshhk8UtHWjjI9qBDed30pwFIucn607kUAFNY4GacehqNuv1oGOzmjPzUi9KOnFACk881WfHmAe9TnOOartzKo980hFlcYxQxpBjtQTTGNxmkXhzinDg5pq9ST60eoh/1zmlHSgdaMe9fQ4Oop0l3WhzTVmKR3zUZHFS8UwjmumSJTHryuKbikU7ScdcU9uOapO6AAOeaMUA/LSnHQnBrRCaI5egANOximklpQPSn9/WslrJjasheQOlJ156EU48jFNxxkirZImexpOAMk0uMn+VNY7iOPlFSykJg88detGPSlH1+tHQZHSpYxo607uKTkDgUvUkGkBGQST25oob1J70VmM9a7k0ZBxzTeuaXK4zjmvJNRSMDgUd6TPYU13VI2dyFVRksxxik7AgbAzgZ9q4rxjLDPd2kaShnhD7wDnGcdfyNGueKXud0FixSEcGXoz/T0rl2lZiT1OeT3P1rCrUTVkUo21LAx0FHHAqpuk64o81gea57Fst7B1B5o9jzUCT9jUokGBQICPeheD1p25SPegAf3qBiuPlqMk4FSOwwQKjxkc0xDhx9aXtTR0xTugpAL2pDmjPaimAoox83NGKCaADrQRzn1oo5OaBkedk2f4WqXmmSLuXrSxtuQeo4oEKRTTTjSEce9AwTrjOPU16l8FtU+zeI9Q052IS8td6rjq8Zzn/vkvXli10HhDVf7F8WaXfszBI51WQDujfKQfwNIaZr/ABEEj+Ob+XzgqeYsYw2GB2c/hg9a5bFukcXLu5Uh1YAAc9B9RXR+OngX4gXzTRecqyJuUHG9cDIz71hQNLEUmSPHLqrOMjkc/jzW0NrPUUmriEqwjEMLfLFl+Cd5HVvYYxmpmD3B+SHAjjUPt44UYyf5mowLi3SOXzCgmRkVlblh0YU4o8ccZSUMZY8sqt0GcEH8s/lWmhLun/XyCZ5JZmujECI2UsAMD0wQPXGKjs5zA92VyFmtpUx24wcfhTpgUwqTb0kVWbb0/H1IqlfF7eTyN4ZUJUbeh7EioqfCHUjj+4PpS55pEBC9KU5z7ViMKOgNKOtI33frQAq5wKUkUgGKX8KBiNTMDPJNPINMxQAoIpOaXjrQaLgNYg4INQdZxUjNziol5lJFICz0FJjPNAz3p4piGYwKanT8ac5602MfIKBjznGRS0e3Wm79jYboe9d+X1OSo4y2ZnUjdEgAPehuaUeufYUhyxwe3aveWxzbMZjnnvTwNy03HTFOjJzmklqNiAZxnilxkH2pCCGzQThTzVvRNiQ2Ll2J64xUlMiGU9qkP0rOC0G2JSHJOKXPX9KPujcTVkjWOFCjqaQAY47UDnk9TS4zUlbCUmD0peScUfSkwTDqaOimm88UpqWMiPWigkEniiudvU0SPWAT3+tH0pofkY/Gl6AnHTvXmlDhz7c9f51wXiPXzqEptYGItUJzt/5aH1+ntW54r1P7Fp/2WNys9xwcdVTufx6fnXBgf/qrnqzs7IpIQguc08KAOetHfAFOAOa5yhdpxwRTWjBHK1IM4xS8EYNCApvCVPy0KTVojn2qJou6/lTAYDk0fNnrxQARThyKAHj7pNAOee1AHBFHt7UgFzxS54600dTSmgB+QOaWmDrTuaAFoJpO9LQAUUlKOlMA9OKZjy5c9mqTt1pHTeuO/agBTnNNIpUbcg9e/wBaMUDGjg1KCSpHqKjx1pwPajYRtajqMuqaiJB5eZvILlh0YIEPPYdKrojvPHBLcqiCUqWPKrn7x/DFU0WLY2+Xa24YTHB9SfpViMweQAFkMvmcEY27cdPrmtqeq0CV0x8K25mjW4kdYsncUGW6ds9OcfmaW3a2B3SxbwUPCnbhscdPfB96AQ0ccUVuTIXI3AnLei0+PzrlYbZYlLLuwFXGc84J79OK0/r/AIIl/X+REPKCSGQFiUwh6YJP/wCus+52hVUEht3THatNzLchI9oYwx4AA/hGST+tZ17K1xcCQqBgBTt44AA/pmoqPQFuAztoOaB0FFYDFBx2ppPzAfjTutM/j3etAElB6UmfWmsw2H1oGOR8jpQw+ao0bGBUjfMBzikA0kD/AOvTGcZ4oOB3zTSe3SgROoBXBFVQu2dhU6NTJQBLuHcUhjxindqYp4p/FUBFL9w5pUGUFNuCNoFPQfIKAHgGmsoYFTzTqQAb66cH/GjciWiI1ZoiM8qe/pVngrn16H1qPaDxjimqxiO08oe/pX0Eb03boc9rof64pO/41IR1xzTDWtupF+gpHT9ajkOF6c9KkGCuM1FLyygcUqnwjjuSou1QAMUcnmgAjvS89BQlZIHuIoOe3FNZi74H3RSuxVcdzxTAcdBQ+wIcAQRx+VKR1pPc0vvQAnTPFNPHenZwPpTep6VMhoTk9f0oJOKcBimE9ajoUiM8GihutFczepR6qCBnnntSs6pGXb5UUZZj0AApucAHHHr61g+K777PpwtVOJLg4PPRB1/M8V5spWVy0cnql82p6jJc87WOIx/dUdB/Wq6rz+NNLY6DP0o/eHGCAK4nqaIlxxR3zUYVjwXo2H++aQEmRQMHp0qPySeQ549qQrMp7NTAl2kfSkIOM1B9o2nDgg1ILiM96AHYBHNN8s87fWnh1PQinDjmkBEThcGm9afIRtzUWcYoAdmlzSZzS5oAcDTgc1HkCnAj8aAFpRQKB70DDHtS9sngUgzzS59qLgKOlL1HvTc0vbkUxDANshHY/wA6fimy8rnuOaVG3KCO4oGFA60H60Dg0ASL19d3GP5VoZmlklu1iRAsiklcYXJ4AH4Vmn/V1dkVUY7ZQ6kKxIyBnAOMe2cfhWlPW5LuTFrhw12ZFU+cSSpwQfvZA/OmhdsCyi5zIZCNoJBXoQ36kU2QW6zbVd3hDj5uMkd/60qPbi53CJmhEmdr9WXPQ/UenpWi3Vw1toJIgSCNkkPmHO5AcFB0/HPNULtcTLhwwYZbHYntV5TEJd8ke6M5ygPT059uKzZMef6/1qKuw0S9gKXGKTtS4rEA6AmkA+UUrdAPWgUwAKD7mg4A7Uo65oPegZVRn85VUZJqZ/OWXDqBuHBFLnZIjAYwcVbvYisaHdnPNQBRbqaY/Q+tKTzTT696oQ63LO+1VJ70Slt+GGCOlTWm37UOcKRzRqMYW6yDnIpDIwafxUKkjmnqx6d6oCKfqBmp1GFFQOC0oBqx7UAAOeTQM78Cl6DJqPdhwc1pRn7OopdhNXViUdDjrSsA2RikXkcU4dBxzmvpaNWNWN1rc5JJpkKu0J2tyh6H0qXjtyKJEDoR145xUCOYm2t9wng1Mp+zeuw7KS0JxjvwaYy5dT7VIcMoZfwpOox3raya1J2DPy0vTLEdKaMkikdtzbc/WhuyCwg5bce9LjvmkHvSjnj0pIYeopf4TSH1oPIpiENHTH50HjGaAACfepaY7gfTpkcUxiO+aexxmoS2TmonJoqImRuOaKQdTRXG2XY9E1TVYdLty8mGlPCRA8sf6CuFu7ye/uWnuW3ufyA9B7U2aSS4laady7t3PX6fSm4AP06V41SfNp0NVGwwA9uKXacDilYkVEZGA61mUSDOOgGaXKqACag8w+tDfMPegCxvBXg0xie3SqokaM81OkobvQAhkBGGUEVGYY3GYzg+lSsoPaoXiZTlDigRHsdT1NODyoeucU5Zv4XqUYcYHze9ADRIzryKKaw2ECgGgB4pc00U4dKAFNKOnNJnilRSzY6ntQFrjxTgM+9dDo/hS81KPzFjOwfxdq6q3+Hw2AuQPoKylVUTeFCUkeaUbSO1ep/8INAvUjI9qT/hCYM9BU/WImn1WR5dg+hpVU+hxXqQ8E2+TwPyp6+CrfHaj6xEPqsjyto2I+6aiiV1YoynGcivXB4Nthxj9Kevgu0LZKj8qPrEQ+reZ5MYnx91jTfLf+4cV7Evg62znaMfSgeDrU/wDH0pPERD6seQLG4H3D7VZhO2JswbiygK5/hIPX8uK9X/AOEMtc8AA/Sj/hCrcptGCAMDjpVxxMUH1Z9zyw+bFFInkAs21lYjlcdMfWpDHdQh7Vk2AyAsu0Ehscc/Q16i/hGF8lmOSACSOcdKjbwlEWySTu5JPWtPrYfVTzF4rreLMxZ2ucLgfePvWYyyNMoMZG0YzjmvZB4Ugz82c9ffNRnwbaOeQPriolikwWFPItpAPyml2n+6cV61/wAIVakgcY+lA8EW34duKz+sIf1Y8kKNvxgnFLtb+6a9bHga269fwo/4Qi1A6Yp/WIg8KeS7G/umhkY5G0/hXq7eCrYH1pU8G2uMkDH0o+sRF9WZ5IUYnODV25j3WSEEkjtXpx8GWmMhR+VJ/wAIbbAYPApOvEf1Y8eKt/dNJsbOdpr17/hDLT0z+FA8HWYOCop/WIiWFPJIAwmGVOM1c1KMMI3RTnGDXqJ8GWg5Cj16UP4StXCggYHtS9vEf1U8hEUhH3TinLE4wdpr1n/hFLReNo/Kj/hFrPGNoz9KaxEQ+qnkyxNvJKmpdhznafrXqTeFbQDhRTF8K2h6rxT9tEX1ZnlT7yMBT+VRYfP3T+VewjwlZAfMoP4U7/hE7FVGEH5VLrrZD+qnkKO/GVPHtVlVZ1ztPvxXq6eFLBh/qx+VOPhexQ4Crg9a6sLmPsJPsyKmB5tmeT+W/UKR+FRS274+4T717APDNn02rmk/4ReyIPyj8q75Z1Ca96JCwElqjxpDJA2CrFOwx0qztLDIUkV61/wi9iR9xT+FR/8ACK2SMAqjHpisaObqm+W3uhLAt7nk7KUydrZ9MU0RnBGCTnk4r13/AIReyK52Dj2pv/CLWW77q+/FbPOoN6xEsvZ5MEbkbTz7Um09wa9ZPhSyP8IqFvClnuwAPyo/tqH8of2fI8sCkjODSlT0ANemnwtZjIKgVGfDVoSQABVLOYfyg8vmea7Se2PejafSvSB4atN3Kginf8ItZscgCl/bVNdBf2fM8xfOelRkda9QfwpZ46Cq8nhO1BB4xWbzanJ7D+pTR5rj5iBRXobeFLYH5TyetFZf2nDsV9TmcGOp/wA9qDRRXMYiP1NQN0NFFAEZqQdBRRQBFN0qFOpoopAXF6fhS0UUxFWWmRkhuDRRSAkJ+YU4dRRRQA8Uq0UUAKOoq/pYBmXI70UU3sVHc918LqBoEWABxV2QkA4PeiivPrbnpR2RTYnd1NNyeeaKK5zZbCgnb1NGTg8miimgEBOOpoDHHU0UUIkmjZuOT09acCcdTRRVMBcnB5PWgscHk0UUkAzc3qevrULO3mfeP50UVQEoY7hyaaCctyaKKkYFj6mmh22n5j19aKKAY+Jm/vH86AzFzyfzooqQYjseOTVcs3PzH86KKaGTRsdg5P505idw5NFFAmNJOTyaYxOBz2oooGh4J2nk9KjUnPU9aKKAY1yfXtUBJ2vzRRTW4hjE+X1NRFiGGCfzooq0Njy7Y+8evrTS7bT8x6etFFS9wQ5GbP3j+dAY7epoopx3Bkm446moSzc/MevrRRWpPQRXbafmPU96R3bK/MfzooqWND42Yk5Y9PWiZiB1NFFNbEPcYzttPzHp61AHbf8AeP50UUih7MSByetQ5OT9aKKtAxoJz1p6k5PJoookJ7DZCdp571C7NjqfzoooRKIdzep/OiiimUf/2Q==;" vertex="1" parent="1">
          <mxGeometry x="-140" y="-952.4999999999998" width="275" height="225" as="geometry" />
        </mxCell>
        <mxCell id="5de8GxAfkGyDar-mVyjA-251" value="" style="rounded=1;whiteSpace=wrap;html=1;fillColor=#f5f5f5;strokeColor=#666666;gradientColor=#b3b3b3;opacity=60;" vertex="1" parent="1">
          <mxGeometry x="647" y="-965" width="330" height="250" as="geometry" />
        </mxCell>
        <mxCell id="5de8GxAfkGyDar-mVyjA-253" value="" style="group" vertex="1" connectable="0" parent="1">
          <mxGeometry x="727" y="-953" width="170" height="227.79999999999995" as="geometry" />
        </mxCell>
        <mxCell id="5de8GxAfkGyDar-mVyjA-128" value="" style="ellipse;whiteSpace=wrap;html=1;aspect=fixed;fillColor=light-dark(#91c8d4, #ededed);container=0;" vertex="1" parent="5de8GxAfkGyDar-mVyjA-253">
          <mxGeometry x="70" width="30" height="30" as="geometry" />
        </mxCell>
        <mxCell id="5de8GxAfkGyDar-mVyjA-129" value="" style="ellipse;whiteSpace=wrap;html=1;aspect=fixed;fillColor=light-dark(#becfed, #ededed);container=0;" vertex="1" parent="5de8GxAfkGyDar-mVyjA-253">
          <mxGeometry y="45" width="30" height="30" as="geometry" />
        </mxCell>
        <mxCell id="5de8GxAfkGyDar-mVyjA-130" value="" style="ellipse;whiteSpace=wrap;html=1;aspect=fixed;fillColor=light-dark(#81dbf9, #ededed);container=0;" vertex="1" parent="5de8GxAfkGyDar-mVyjA-253">
          <mxGeometry x="140" y="45" width="30" height="30" as="geometry" />
        </mxCell>
        <mxCell id="5de8GxAfkGyDar-mVyjA-131" value="" style="ellipse;whiteSpace=wrap;html=1;aspect=fixed;fillColor=light-dark(#91c8d4, #ededed);container=0;" vertex="1" parent="5de8GxAfkGyDar-mVyjA-253">
          <mxGeometry x="70" y="45" width="30" height="30" as="geometry" />
        </mxCell>
        <mxCell id="5de8GxAfkGyDar-mVyjA-132" value="" style="ellipse;whiteSpace=wrap;html=1;aspect=fixed;fillColor=light-dark(#91c8d4, #ededed);container=0;" vertex="1" parent="5de8GxAfkGyDar-mVyjA-253">
          <mxGeometry x="70" y="95" width="30" height="30" as="geometry" />
        </mxCell>
        <mxCell id="5de8GxAfkGyDar-mVyjA-133" value="" style="ellipse;whiteSpace=wrap;html=1;aspect=fixed;fillColor=light-dark(#91c8d4, #ededed);container=0;" vertex="1" parent="5de8GxAfkGyDar-mVyjA-253">
          <mxGeometry x="70" y="147.79999999999995" width="30" height="30" as="geometry" />
        </mxCell>
        <mxCell id="5de8GxAfkGyDar-mVyjA-134" value="" style="ellipse;whiteSpace=wrap;html=1;aspect=fixed;fillColor=light-dark(#becfed, #ededed);container=0;" vertex="1" parent="5de8GxAfkGyDar-mVyjA-253">
          <mxGeometry y="95" width="30" height="30" as="geometry" />
        </mxCell>
        <mxCell id="5de8GxAfkGyDar-mVyjA-135" value="" style="ellipse;whiteSpace=wrap;html=1;aspect=fixed;fillColor=light-dark(#becfed, #ededed);container=0;" vertex="1" parent="5de8GxAfkGyDar-mVyjA-253">
          <mxGeometry y="147.79999999999995" width="30" height="30" as="geometry" />
        </mxCell>
        <mxCell id="5de8GxAfkGyDar-mVyjA-136" value="" style="ellipse;whiteSpace=wrap;html=1;aspect=fixed;fillColor=light-dark(#81dbf9, #ededed);container=0;" vertex="1" parent="5de8GxAfkGyDar-mVyjA-253">
          <mxGeometry x="140" y="95" width="30" height="30" as="geometry" />
        </mxCell>
        <mxCell id="5de8GxAfkGyDar-mVyjA-137" value="" style="ellipse;whiteSpace=wrap;html=1;aspect=fixed;fillColor=light-dark(#81dbf9, #ededed);container=0;" vertex="1" parent="5de8GxAfkGyDar-mVyjA-253">
          <mxGeometry x="140" y="147.79999999999995" width="30" height="30" as="geometry" />
        </mxCell>
        <mxCell id="5de8GxAfkGyDar-mVyjA-138" value="" style="ellipse;whiteSpace=wrap;html=1;aspect=fixed;fillColor=light-dark(#91c8d4, #ededed);container=0;" vertex="1" parent="5de8GxAfkGyDar-mVyjA-253">
          <mxGeometry x="70" y="197.79999999999995" width="30" height="30" as="geometry" />
        </mxCell>
        <mxCell id="5de8GxAfkGyDar-mVyjA-140" value="" style="endArrow=none;html=1;rounded=0;entryX=0;entryY=0.5;entryDx=0;entryDy=0;exitX=1;exitY=0.5;exitDx=0;exitDy=0;" edge="1" parent="5de8GxAfkGyDar-mVyjA-253" source="5de8GxAfkGyDar-mVyjA-129" target="5de8GxAfkGyDar-mVyjA-131">
          <mxGeometry width="50" height="50" relative="1" as="geometry">
            <mxPoint x="-60" y="77.79999999999995" as="sourcePoint" />
            <mxPoint x="-10" y="27.799999999999955" as="targetPoint" />
          </mxGeometry>
        </mxCell>
        <mxCell id="5de8GxAfkGyDar-mVyjA-141" value="" style="endArrow=none;html=1;rounded=0;entryX=1;entryY=0.5;entryDx=0;entryDy=0;exitX=0;exitY=0.5;exitDx=0;exitDy=0;" edge="1" parent="5de8GxAfkGyDar-mVyjA-253" source="5de8GxAfkGyDar-mVyjA-130" target="5de8GxAfkGyDar-mVyjA-131">
          <mxGeometry width="50" height="50" relative="1" as="geometry">
            <mxPoint x="40" y="69.79999999999995" as="sourcePoint" />
            <mxPoint x="80" y="69.79999999999995" as="targetPoint" />
          </mxGeometry>
        </mxCell>
        <mxCell id="5de8GxAfkGyDar-mVyjA-142" value="" style="endArrow=none;html=1;rounded=0;entryX=0;entryY=0.5;entryDx=0;entryDy=0;exitX=1;exitY=0.5;exitDx=0;exitDy=0;" edge="1" parent="5de8GxAfkGyDar-mVyjA-253" source="5de8GxAfkGyDar-mVyjA-134" target="5de8GxAfkGyDar-mVyjA-132">
          <mxGeometry width="50" height="50" relative="1" as="geometry">
            <mxPoint x="40" y="69.79999999999995" as="sourcePoint" />
            <mxPoint x="80" y="69.79999999999995" as="targetPoint" />
          </mxGeometry>
        </mxCell>
        <mxCell id="5de8GxAfkGyDar-mVyjA-143" value="" style="endArrow=none;html=1;rounded=0;entryX=0;entryY=0.5;entryDx=0;entryDy=0;exitX=1;exitY=0.5;exitDx=0;exitDy=0;" edge="1" parent="5de8GxAfkGyDar-mVyjA-253" source="5de8GxAfkGyDar-mVyjA-135" target="5de8GxAfkGyDar-mVyjA-133">
          <mxGeometry width="50" height="50" relative="1" as="geometry">
            <mxPoint x="40" y="119.79999999999995" as="sourcePoint" />
            <mxPoint x="80" y="119.79999999999995" as="targetPoint" />
          </mxGeometry>
        </mxCell>
        <mxCell id="5de8GxAfkGyDar-mVyjA-144" value="" style="endArrow=none;html=1;rounded=0;entryX=1;entryY=0.5;entryDx=0;entryDy=0;exitX=0;exitY=0.5;exitDx=0;exitDy=0;" edge="1" parent="5de8GxAfkGyDar-mVyjA-253" source="5de8GxAfkGyDar-mVyjA-136" target="5de8GxAfkGyDar-mVyjA-132">
          <mxGeometry width="50" height="50" relative="1" as="geometry">
            <mxPoint x="40" y="69.79999999999995" as="sourcePoint" />
            <mxPoint x="80" y="69.79999999999995" as="targetPoint" />
          </mxGeometry>
        </mxCell>
        <mxCell id="5de8GxAfkGyDar-mVyjA-145" value="" style="endArrow=none;html=1;rounded=0;entryX=1;entryY=0.5;entryDx=0;entryDy=0;exitX=0;exitY=0.5;exitDx=0;exitDy=0;" edge="1" parent="5de8GxAfkGyDar-mVyjA-253" source="5de8GxAfkGyDar-mVyjA-137" target="5de8GxAfkGyDar-mVyjA-133">
          <mxGeometry width="50" height="50" relative="1" as="geometry">
            <mxPoint x="150" y="119.79999999999995" as="sourcePoint" />
            <mxPoint x="110" y="119.79999999999995" as="targetPoint" />
          </mxGeometry>
        </mxCell>
        <mxCell id="5de8GxAfkGyDar-mVyjA-146" value="" style="endArrow=none;html=1;rounded=0;entryX=1;entryY=0.5;entryDx=0;entryDy=0;exitX=0;exitY=0.5;exitDx=0;exitDy=0;" edge="1" parent="5de8GxAfkGyDar-mVyjA-253" source="5de8GxAfkGyDar-mVyjA-130" target="5de8GxAfkGyDar-mVyjA-128">
          <mxGeometry width="50" height="50" relative="1" as="geometry">
            <mxPoint x="150" y="69.79999999999995" as="sourcePoint" />
            <mxPoint x="110" y="69.79999999999995" as="targetPoint" />
          </mxGeometry>
        </mxCell>
        <mxCell id="5de8GxAfkGyDar-mVyjA-147" value="" style="endArrow=none;html=1;rounded=0;entryX=1;entryY=0.5;entryDx=0;entryDy=0;exitX=0;exitY=0.5;exitDx=0;exitDy=0;" edge="1" parent="5de8GxAfkGyDar-mVyjA-253" source="5de8GxAfkGyDar-mVyjA-128" target="5de8GxAfkGyDar-mVyjA-129">
          <mxGeometry width="50" height="50" relative="1" as="geometry">
            <mxPoint x="150" y="69.79999999999995" as="sourcePoint" />
            <mxPoint x="110" y="24.799999999999955" as="targetPoint" />
          </mxGeometry>
        </mxCell>
        <mxCell id="5de8GxAfkGyDar-mVyjA-148" value="" style="endArrow=none;html=1;rounded=0;entryX=1;entryY=0.5;entryDx=0;entryDy=0;exitX=0;exitY=0.5;exitDx=0;exitDy=0;" edge="1" parent="5de8GxAfkGyDar-mVyjA-253" source="5de8GxAfkGyDar-mVyjA-138" target="5de8GxAfkGyDar-mVyjA-135">
          <mxGeometry width="50" height="50" relative="1" as="geometry">
            <mxPoint x="80" y="24.799999999999955" as="sourcePoint" />
            <mxPoint x="40" y="69.79999999999995" as="targetPoint" />
          </mxGeometry>
        </mxCell>
        <mxCell id="5de8GxAfkGyDar-mVyjA-149" value="" style="endArrow=none;html=1;rounded=0;entryX=0;entryY=0.5;entryDx=0;entryDy=0;exitX=1;exitY=0.5;exitDx=0;exitDy=0;" edge="1" parent="5de8GxAfkGyDar-mVyjA-253" source="5de8GxAfkGyDar-mVyjA-138" target="5de8GxAfkGyDar-mVyjA-137">
          <mxGeometry width="50" height="50" relative="1" as="geometry">
            <mxPoint x="80" y="222.79999999999995" as="sourcePoint" />
            <mxPoint x="40" y="172.79999999999995" as="targetPoint" />
          </mxGeometry>
        </mxCell>
        <mxCell id="5de8GxAfkGyDar-mVyjA-150" value="" style="endArrow=none;html=1;rounded=0;entryX=1;entryY=0.5;entryDx=0;entryDy=0;exitX=0;exitY=0.5;exitDx=0;exitDy=0;" edge="1" parent="5de8GxAfkGyDar-mVyjA-253" source="5de8GxAfkGyDar-mVyjA-128" target="5de8GxAfkGyDar-mVyjA-135">
          <mxGeometry width="50" height="50" relative="1" as="geometry">
            <mxPoint x="80" y="24.799999999999955" as="sourcePoint" />
            <mxPoint x="40" y="69.79999999999995" as="targetPoint" />
          </mxGeometry>
        </mxCell>
        <mxCell id="5de8GxAfkGyDar-mVyjA-151" value="" style="endArrow=none;html=1;rounded=0;entryX=1;entryY=0.5;entryDx=0;entryDy=0;exitX=0;exitY=0.5;exitDx=0;exitDy=0;" edge="1" parent="5de8GxAfkGyDar-mVyjA-253" source="5de8GxAfkGyDar-mVyjA-128" target="5de8GxAfkGyDar-mVyjA-134">
          <mxGeometry width="50" height="50" relative="1" as="geometry">
            <mxPoint x="80" y="24.799999999999955" as="sourcePoint" />
            <mxPoint x="40" y="172.79999999999995" as="targetPoint" />
          </mxGeometry>
        </mxCell>
        <mxCell id="5de8GxAfkGyDar-mVyjA-152" value="" style="endArrow=none;html=1;rounded=0;entryX=0;entryY=0.5;entryDx=0;entryDy=0;exitX=1;exitY=0.5;exitDx=0;exitDy=0;" edge="1" parent="5de8GxAfkGyDar-mVyjA-253" source="5de8GxAfkGyDar-mVyjA-128" target="5de8GxAfkGyDar-mVyjA-136">
          <mxGeometry width="50" height="50" relative="1" as="geometry">
            <mxPoint x="80" y="24.799999999999955" as="sourcePoint" />
            <mxPoint x="40" y="119.79999999999995" as="targetPoint" />
          </mxGeometry>
        </mxCell>
        <mxCell id="5de8GxAfkGyDar-mVyjA-153" value="" style="endArrow=none;html=1;rounded=0;entryX=0;entryY=0.5;entryDx=0;entryDy=0;exitX=1;exitY=0.5;exitDx=0;exitDy=0;" edge="1" parent="5de8GxAfkGyDar-mVyjA-253" source="5de8GxAfkGyDar-mVyjA-128" target="5de8GxAfkGyDar-mVyjA-137">
          <mxGeometry width="50" height="50" relative="1" as="geometry">
            <mxPoint x="110" y="24.799999999999955" as="sourcePoint" />
            <mxPoint x="150" y="119.79999999999995" as="targetPoint" />
          </mxGeometry>
        </mxCell>
        <mxCell id="5de8GxAfkGyDar-mVyjA-154" value="" style="endArrow=none;html=1;rounded=0;entryX=1;entryY=0.5;entryDx=0;entryDy=0;exitX=0;exitY=0.5;exitDx=0;exitDy=0;" edge="1" parent="5de8GxAfkGyDar-mVyjA-253" source="5de8GxAfkGyDar-mVyjA-138" target="5de8GxAfkGyDar-mVyjA-129">
          <mxGeometry width="50" height="50" relative="1" as="geometry">
            <mxPoint x="80" y="24.799999999999955" as="sourcePoint" />
            <mxPoint x="40" y="172.79999999999995" as="targetPoint" />
          </mxGeometry>
        </mxCell>
        <mxCell id="5de8GxAfkGyDar-mVyjA-155" value="" style="endArrow=none;html=1;rounded=0;entryX=1;entryY=0.5;entryDx=0;entryDy=0;exitX=0;exitY=0.5;exitDx=0;exitDy=0;" edge="1" parent="5de8GxAfkGyDar-mVyjA-253" source="5de8GxAfkGyDar-mVyjA-138" target="5de8GxAfkGyDar-mVyjA-134">
          <mxGeometry width="50" height="50" relative="1" as="geometry">
            <mxPoint x="80" y="222.79999999999995" as="sourcePoint" />
            <mxPoint x="40" y="69.79999999999995" as="targetPoint" />
          </mxGeometry>
        </mxCell>
        <mxCell id="5de8GxAfkGyDar-mVyjA-156" value="" style="endArrow=none;html=1;rounded=0;entryX=1;entryY=0.5;entryDx=0;entryDy=0;exitX=0;exitY=0.5;exitDx=0;exitDy=0;" edge="1" parent="5de8GxAfkGyDar-mVyjA-253" source="5de8GxAfkGyDar-mVyjA-132" target="5de8GxAfkGyDar-mVyjA-129">
          <mxGeometry width="50" height="50" relative="1" as="geometry">
            <mxPoint x="80" y="222.79999999999995" as="sourcePoint" />
            <mxPoint x="40" y="69.79999999999995" as="targetPoint" />
          </mxGeometry>
        </mxCell>
        <mxCell id="5de8GxAfkGyDar-mVyjA-157" value="" style="endArrow=none;html=1;rounded=0;entryX=1;entryY=0.5;entryDx=0;entryDy=0;exitX=0;exitY=0.5;exitDx=0;exitDy=0;" edge="1" parent="5de8GxAfkGyDar-mVyjA-253" source="5de8GxAfkGyDar-mVyjA-133" target="5de8GxAfkGyDar-mVyjA-129">
          <mxGeometry width="50" height="50" relative="1" as="geometry">
            <mxPoint x="80" y="119.79999999999995" as="sourcePoint" />
            <mxPoint x="40" y="69.79999999999995" as="targetPoint" />
          </mxGeometry>
        </mxCell>
        <mxCell id="5de8GxAfkGyDar-mVyjA-158" value="" style="endArrow=none;html=1;rounded=0;entryX=1;entryY=0.5;entryDx=0;entryDy=0;exitX=0;exitY=0.5;exitDx=0;exitDy=0;" edge="1" parent="5de8GxAfkGyDar-mVyjA-253" source="5de8GxAfkGyDar-mVyjA-131" target="5de8GxAfkGyDar-mVyjA-134">
          <mxGeometry width="50" height="50" relative="1" as="geometry">
            <mxPoint x="80" y="172.79999999999995" as="sourcePoint" />
            <mxPoint x="40" y="69.79999999999995" as="targetPoint" />
          </mxGeometry>
        </mxCell>
        <mxCell id="5de8GxAfkGyDar-mVyjA-159" value="" style="endArrow=none;html=1;rounded=0;entryX=1;entryY=0.5;entryDx=0;entryDy=0;exitX=0;exitY=0.5;exitDx=0;exitDy=0;" edge="1" parent="5de8GxAfkGyDar-mVyjA-253" source="5de8GxAfkGyDar-mVyjA-133" target="5de8GxAfkGyDar-mVyjA-134">
          <mxGeometry width="50" height="50" relative="1" as="geometry">
            <mxPoint x="80" y="69.79999999999995" as="sourcePoint" />
            <mxPoint x="40" y="119.79999999999995" as="targetPoint" />
          </mxGeometry>
        </mxCell>
        <mxCell id="5de8GxAfkGyDar-mVyjA-160" value="" style="endArrow=none;html=1;rounded=0;entryX=1;entryY=0.5;entryDx=0;entryDy=0;exitX=0;exitY=0.5;exitDx=0;exitDy=0;" edge="1" parent="5de8GxAfkGyDar-mVyjA-253" source="5de8GxAfkGyDar-mVyjA-132" target="5de8GxAfkGyDar-mVyjA-135">
          <mxGeometry width="50" height="50" relative="1" as="geometry">
            <mxPoint x="80" y="172.79999999999995" as="sourcePoint" />
            <mxPoint x="40" y="119.79999999999995" as="targetPoint" />
          </mxGeometry>
        </mxCell>
        <mxCell id="5de8GxAfkGyDar-mVyjA-161" value="" style="endArrow=none;html=1;rounded=0;entryX=1;entryY=0.5;entryDx=0;entryDy=0;exitX=0;exitY=0.5;exitDx=0;exitDy=0;" edge="1" parent="5de8GxAfkGyDar-mVyjA-253" source="5de8GxAfkGyDar-mVyjA-131" target="5de8GxAfkGyDar-mVyjA-135">
          <mxGeometry width="50" height="50" relative="1" as="geometry">
            <mxPoint x="80" y="24.799999999999955" as="sourcePoint" />
            <mxPoint x="40" y="172.79999999999995" as="targetPoint" />
          </mxGeometry>
        </mxCell>
        <mxCell id="5de8GxAfkGyDar-mVyjA-162" value="" style="endArrow=none;html=1;rounded=0;entryX=1;entryY=0.5;entryDx=0;entryDy=0;exitX=0;exitY=0.5;exitDx=0;exitDy=0;" edge="1" parent="5de8GxAfkGyDar-mVyjA-253" source="5de8GxAfkGyDar-mVyjA-136" target="5de8GxAfkGyDar-mVyjA-131">
          <mxGeometry width="50" height="50" relative="1" as="geometry">
            <mxPoint x="170" y="7.7999999999999545" as="sourcePoint" />
            <mxPoint x="110" y="24.799999999999955" as="targetPoint" />
          </mxGeometry>
        </mxCell>
        <mxCell id="5de8GxAfkGyDar-mVyjA-163" value="" style="endArrow=none;html=1;rounded=0;entryX=1;entryY=0.5;entryDx=0;entryDy=0;exitX=0;exitY=0.5;exitDx=0;exitDy=0;" edge="1" parent="5de8GxAfkGyDar-mVyjA-253" source="5de8GxAfkGyDar-mVyjA-137" target="5de8GxAfkGyDar-mVyjA-131">
          <mxGeometry width="50" height="50" relative="1" as="geometry">
            <mxPoint x="150" y="119.79999999999995" as="sourcePoint" />
            <mxPoint x="110" y="69.79999999999995" as="targetPoint" />
          </mxGeometry>
        </mxCell>
        <mxCell id="5de8GxAfkGyDar-mVyjA-164" value="" style="endArrow=none;html=1;rounded=0;entryX=1;entryY=0.5;entryDx=0;entryDy=0;exitX=0;exitY=0.5;exitDx=0;exitDy=0;" edge="1" parent="5de8GxAfkGyDar-mVyjA-253" source="5de8GxAfkGyDar-mVyjA-130" target="5de8GxAfkGyDar-mVyjA-132">
          <mxGeometry width="50" height="50" relative="1" as="geometry">
            <mxPoint x="150" y="119.79999999999995" as="sourcePoint" />
            <mxPoint x="110" y="69.79999999999995" as="targetPoint" />
          </mxGeometry>
        </mxCell>
        <mxCell id="5de8GxAfkGyDar-mVyjA-165" value="" style="endArrow=none;html=1;rounded=0;entryX=1;entryY=0.5;entryDx=0;entryDy=0;" edge="1" parent="5de8GxAfkGyDar-mVyjA-253" target="5de8GxAfkGyDar-mVyjA-132">
          <mxGeometry width="50" height="50" relative="1" as="geometry">
            <mxPoint x="140" y="157.79999999999995" as="sourcePoint" />
            <mxPoint x="110" y="119.79999999999995" as="targetPoint" />
          </mxGeometry>
        </mxCell>
        <mxCell id="5de8GxAfkGyDar-mVyjA-166" value="" style="endArrow=none;html=1;rounded=0;entryX=1;entryY=0.5;entryDx=0;entryDy=0;exitX=0;exitY=0.5;exitDx=0;exitDy=0;" edge="1" parent="5de8GxAfkGyDar-mVyjA-253" source="5de8GxAfkGyDar-mVyjA-136" target="5de8GxAfkGyDar-mVyjA-133">
          <mxGeometry width="50" height="50" relative="1" as="geometry">
            <mxPoint x="150" y="167.79999999999995" as="sourcePoint" />
            <mxPoint x="110" y="119.79999999999995" as="targetPoint" />
          </mxGeometry>
        </mxCell>
        <mxCell id="5de8GxAfkGyDar-mVyjA-167" value="" style="endArrow=none;html=1;rounded=0;entryX=1;entryY=0.5;entryDx=0;entryDy=0;exitX=0;exitY=0.5;exitDx=0;exitDy=0;" edge="1" parent="5de8GxAfkGyDar-mVyjA-253" source="5de8GxAfkGyDar-mVyjA-136" target="5de8GxAfkGyDar-mVyjA-138">
          <mxGeometry width="50" height="50" relative="1" as="geometry">
            <mxPoint x="150" y="119.79999999999995" as="sourcePoint" />
            <mxPoint x="110" y="172.79999999999995" as="targetPoint" />
          </mxGeometry>
        </mxCell>
        <mxCell id="5de8GxAfkGyDar-mVyjA-168" value="" style="endArrow=none;html=1;rounded=0;entryX=1;entryY=0.5;entryDx=0;entryDy=0;exitX=0;exitY=0.5;exitDx=0;exitDy=0;" edge="1" parent="5de8GxAfkGyDar-mVyjA-253" source="5de8GxAfkGyDar-mVyjA-130" target="5de8GxAfkGyDar-mVyjA-133">
          <mxGeometry width="50" height="50" relative="1" as="geometry">
            <mxPoint x="150" y="119.79999999999995" as="sourcePoint" />
            <mxPoint x="110" y="222.79999999999995" as="targetPoint" />
          </mxGeometry>
        </mxCell>
        <mxCell id="5de8GxAfkGyDar-mVyjA-169" value="" style="endArrow=none;html=1;rounded=0;entryX=1;entryY=0.5;entryDx=0;entryDy=0;exitX=0;exitY=0.5;exitDx=0;exitDy=0;" edge="1" parent="5de8GxAfkGyDar-mVyjA-253" source="5de8GxAfkGyDar-mVyjA-130" target="5de8GxAfkGyDar-mVyjA-138">
          <mxGeometry width="50" height="50" relative="1" as="geometry">
            <mxPoint x="150" y="119.79999999999995" as="sourcePoint" />
            <mxPoint x="110" y="222.79999999999995" as="targetPoint" />
          </mxGeometry>
        </mxCell>
        <mxCell id="5de8GxAfkGyDar-mVyjA-256" value="" style="shape=orEllipse;perimeter=ellipsePerimeter;whiteSpace=wrap;html=1;backgroundOutline=1;aspect=fixed;" vertex="1" parent="1">
          <mxGeometry x="592" y="-855" width="30" height="30" as="geometry" />
        </mxCell>
        <mxCell id="5de8GxAfkGyDar-mVyjA-257" value="" style="endArrow=block;html=1;rounded=0;endFill=1;entryX=0;entryY=0.5;entryDx=0;entryDy=0;exitX=1;exitY=0.5;exitDx=0;exitDy=0;" edge="1" parent="1" source="5de8GxAfkGyDar-mVyjA-256" target="5de8GxAfkGyDar-mVyjA-251">
          <mxGeometry width="50" height="50" relative="1" as="geometry">
            <mxPoint x="638.74" y="-840.1200000000001" as="sourcePoint" />
            <mxPoint x="679" y="-839.8800000000001" as="targetPoint" />
          </mxGeometry>
        </mxCell>
        <mxCell id="5de8GxAfkGyDar-mVyjA-260" value="" style="shape=orEllipse;perimeter=ellipsePerimeter;whiteSpace=wrap;html=1;backgroundOutline=1;aspect=fixed;" vertex="1" parent="1">
          <mxGeometry x="1002" y="-854.9" width="30" height="30" as="geometry" />
        </mxCell>
        <mxCell id="5de8GxAfkGyDar-mVyjA-262" value="" style="endArrow=classic;html=1;rounded=0;entryX=0.5;entryY=0;entryDx=0;entryDy=0;" edge="1" parent="1" target="5de8GxAfkGyDar-mVyjA-256">
          <mxGeometry width="50" height="50" relative="1" as="geometry">
            <mxPoint x="220" y="-840" as="sourcePoint" />
            <mxPoint x="510" y="-1060" as="targetPoint" />
            <Array as="points">
              <mxPoint x="220" y="-980" />
              <mxPoint x="607" y="-980" />
            </Array>
          </mxGeometry>
        </mxCell>
        <mxCell id="5de8GxAfkGyDar-mVyjA-263" value="" style="endArrow=classic;html=1;rounded=0;entryX=0.5;entryY=0;entryDx=0;entryDy=0;" edge="1" parent="1" target="5de8GxAfkGyDar-mVyjA-260">
          <mxGeometry width="50" height="50" relative="1" as="geometry">
            <mxPoint x="630" y="-840" as="sourcePoint" />
            <mxPoint x="1075" y="-867" as="targetPoint" />
            <Array as="points">
              <mxPoint x="630" y="-980" />
              <mxPoint x="1017" y="-980" />
            </Array>
          </mxGeometry>
        </mxCell>
        <mxCell id="5de8GxAfkGyDar-mVyjA-266" value="" style="shape=singleArrow;direction=north;whiteSpace=wrap;html=1;arrowWidth=0.4807686438927249;arrowSize=0.5627591646634593;rotation=90;" vertex="1" parent="1">
          <mxGeometry x="150" y="-857.81" width="40" height="35" as="geometry" />
        </mxCell>
        <mxCell id="5de8GxAfkGyDar-mVyjA-270" value="Feature transform" style="text;html=1;align=center;verticalAlign=middle;whiteSpace=wrap;rounded=0;fontSize=17;fontFamily=Times New Roman;" vertex="1" parent="1">
          <mxGeometry x="735" y="-708.26" width="154" height="30" as="geometry" />
        </mxCell>
        <mxCell id="5de8GxAfkGyDar-mVyjA-271" value="Vision Graph Neural Network" style="text;html=1;align=center;verticalAlign=middle;whiteSpace=wrap;rounded=0;fontSize=20;fontFamily=Times New Roman;" vertex="1" parent="1">
          <mxGeometry x="472" y="-1050" width="319" height="30" as="geometry" />
        </mxCell>
        <mxCell id="5de8GxAfkGyDar-mVyjA-352" value="" style="rounded=1;whiteSpace=wrap;html=1;fillColor=#f5f5f5;strokeColor=#666666;gradientColor=#b3b3b3;opacity=60;" vertex="1" parent="1">
          <mxGeometry x="234" y="-965.31" width="330" height="250" as="geometry" />
        </mxCell>
        <mxCell id="5de8GxAfkGyDar-mVyjA-353" value="" style="group" vertex="1" connectable="0" parent="1">
          <mxGeometry x="240" y="-958.3599999999999" width="327.5" height="249.04999999999995" as="geometry" />
        </mxCell>
        <mxCell id="5de8GxAfkGyDar-mVyjA-173" value="" style="group;aspect=fixed;" vertex="1" connectable="0" parent="5de8GxAfkGyDar-mVyjA-353">
          <mxGeometry y="68.10000000000002" width="40" height="40" as="geometry" />
        </mxCell>
        <mxCell id="5de8GxAfkGyDar-mVyjA-174" value="" style="ellipse;whiteSpace=wrap;html=1;aspect=fixed;fillColor=#F6F6F6;strokeColor=#d79b00;" vertex="1" parent="5de8GxAfkGyDar-mVyjA-173">
          <mxGeometry width="40" height="40" as="geometry" />
        </mxCell>
        <mxCell id="5de8GxAfkGyDar-mVyjA-175" value="" style="shape=image;verticalLabelPosition=bottom;labelBackgroundColor=default;verticalAlign=top;aspect=fixed;imageAspect=0;image=data:image/jpeg,/9j/4AAQSkZJRgABAQAAAQABAAD/2wBDAAgGBgcGBQgHBwcJCQgKDBQNDAsLDBkSEw8UHRofHh0aHBwgJC4nICIsIxwcKDcpLDAxNDQ0Hyc5PTgyPC4zNDL/2wBDAQkJCQwLDBgNDRgyIRwhMjIyMjIyMjIyMjIyMjIyMjIyMjIyMjIyMjIyMjIyMjIyMjIyMjIyMjIyMjIyMjIyMjL/wAARCABuAG4DASIAAhEBAxEB/8QAHwAAAQUBAQEBAQEAAAAAAAAAAAECAwQFBgcICQoL/8QAtRAAAgEDAwIEAwUFBAQAAAF9AQIDAAQRBRIhMUEGE1FhByJxFDKBkaEII0KxwRVS0fAkM2JyggkKFhcYGRolJicoKSo0NTY3ODk6Q0RFRkdISUpTVFVWV1hZWmNkZWZnaGlqc3R1dnd4eXqDhIWGh4iJipKTlJWWl5iZmqKjpKWmp6ipqrKztLW2t7i5usLDxMXGx8jJytLT1NXW19jZ2uHi4+Tl5ufo6erx8vP09fb3+Pn6/8QAHwEAAwEBAQEBAQEBAQAAAAAAAAECAwQFBgcICQoL/8QAtREAAgECBAQDBAcFBAQAAQJ3AAECAxEEBSExBhJBUQdhcRMiMoEIFEKRobHBCSMzUvAVYnLRChYkNOEl8RcYGRomJygpKjU2Nzg5OkNERUZHSElKU1RVVldYWVpjZGVmZ2hpanN0dXZ3eHl6goOEhYaHiImKkpOUlZaXmJmaoqOkpaanqKmqsrO0tba3uLm6wsPExcbHyMnK0tPU1dbX2Nna4uPk5ebn6Onq8vP09fb3+Pn6/9oADAMBAAIRAxEAPwCz3IA61HHCyknGO1XBGd/TFTSQgR11ORwxp31OQ8R7hCMDPvWLouf7SRjkj3rp9YgBAB5H0rMtESCcOVH5VvB3gYyXvneWeBACKx9W+ZpM9cVpaYxktd2MVlatLtlII4+lc0bqR1SfubnDSqxmIwT81eg6GP3Cf7ormQsZk6dTXT6S29wEGRjH41tWleJhRXvF7UeY8iuB1uKae9SO3ieV+oVRn/PWu9uyruqlie2B1P4d60NPiithu8uNG7sByR9a5I4hU9ldna6EqnWyOb8K+E7+1HmX+y3z0RuW+v8A9au1itYI/kCbyOhf/PFSQxeZkKrAY6t1xnrV+KJFXCfMScZHU/jXPVqzm7yOilSjBWiQpaqygTKrqDkKVxQ0CRMRbwxR+ozUvnwxuRuZ5M8Ki7s01gJDxZSY6/e/pWJrY5VIgvPcU6RakBHrUcrAfQ13XOJIyrqCKT7/AF7VBHZWx7/nVTXbwRhfmxWMuqbRxIa6YQbjuc05JM72GSGKIKHUDFUrmCCd9xYVyS6sSM+aakOrE/8ALWhUHfcTrx2sdB/Z0BPY1bRY7SI+UAZG6egA7muZtb+S5uEhjfLMcDNdEE8sJCWDvnqPT+I/rtrDENw0OjDpSdyeytyZjhiXPBcnt6CtcSL5whRgWjGWYcqntjuen0rHurxrRY7OzwtxKcBivC+rE+mOPypFulhVYoTiJTyzHJkfJzuPrnmvPbsehY6ZLlWPlxbVQDcT1J9ye/0q5ErzoA+Y4evzclx7j8+O1YenSAxb5D8vBOerGtX7WCfnJHfGMsB9O/NK5XLc1FaNIzsj4HHXkn696icQKufs5Yk8nv8A/qqlHKSd3kSZPdzjP4VMFKjPkQLn1FTcqMDw8eLrrOMNz70xvFl0wOQ351iC3bGdpx6jtTfIIIPPNfQqjE8D2rLd7qNxfjDkjHNVQHAz5hwelTJE4GcEinYyQMYx2rSMVFWIciv+9B4c0u+XOPMIJ7mpwjN91WNDRMowUI9B654oaVrii7ux1Pg2yby59Ql+9/q4yeigDLH9QK3ba4WJ5J2O0KvGe3oPx5/KqNmy2mjR2oIXI28t0J5P+frSCJrlJYskc/O2fTj+efyrxa8+aTuexQhywVhttctdTtdNkF8Kg7LGCcn+tXoJBLKp5AHfsDVRANm1BkMOPZQcVchQBghPGckeo7D+tcsmdsY6HSWR2Q+dgDBwgH8I/wAauQqS5ZiRnqQefpWZC7ysqIMBRjP861IYVGBuyazcjaFPS7LkbQYwHkZh1bP6VZBRgAoH41RRRGxbaPrV1cMMjpU3NFTR4N4feO5Z4pBnb61W1eTZclYwBt5wBVjwsg+1SsBVbVYHa7l2qTmvqNT4/qbGkeTdac0pAJAxnHSsWX9/dGOPHJxxWvoSGHR5VYAEg/Kf51R0WPztYbcM7e/41Segmi1ciLS7VSxO4ik06+g1CJ1wd46Dv+FV/Erb73YOccVB4aj2as7E4RIzI3vjt+eKxrScYXRrRheSsdRYlp9UEa4IT5gp6EjJH61qRwlo9kZLLgKD/eORg/Q4JrL0hil/OXLeaM8D+914+jEfga6uztQtuJWQDcuAvp2x/WvGme3FW0MyC2JLSEAbscDoP/rVJEN023HAJJx61euFO3aq4A6e+OM1WiwrcYG7PH0BrnZ201c1bUhYx6kdPSrsUuF3ZrFhlJJJ4J6/StOBuFx0B4zWdzpUTQRi/NWIyGOM8AVUiJaPBxu9qsIcdTSsO1jxDwuR9omNJqGqxw3bowIx39ak8NRlXlkJGD0HrWTq8LfbZDtOO1fVdD4lJc2p02nXC3WlO69CD1rL0B/+JvMpq7okRTRnVgOQe9YME5sNVDtwpbmhDS1djS1+M/biT9KraWximlI77VH/AH0MitbVYxfQJNE2T6VTsLcoXDjlsMBjvn/P51liH+7NsP8AGjb0tQI3kOf3m/AU9s8fyP6V1dncmfT48KfMG5nUe3p+dcvpsTKsKqecZH1Pf8OtdPpUS7JdoKKDhBnoG5xXkSPZRbuQVVT3AwPpWO0hUFTnls1sX7KEYA9FG33PesSPBc5PGT+Vc89Duo6osCQ8ehxWtbk7AAepJx+NYyIvC5x6VpWkjK4BHGODWLOm+htRErg9e2Kc7bTg5qGEZU5PpVgtljmmI+fIbya2BRBjHcHrTppnnTcynd160wxZPtmnhBivqmj4zQWHUriJAgU7fTNQz/vwWPGe3pTjFznJPFP2/LjGOO9NIWwltfz26eWSWUcA5rSsrlrkvuYrtwMnvk/0/rWW0RPOataefKuACeD8oHuaxqxvBm9GSU0dokwV0IjwxIO31GOn4V0OmtnkEElsk9j16fhXLxTeZ5MxJXevQdiP/rgVuWsrI0gOOGxx0GDXjyVmevFaFi7nL7RnjJIPoKyRIouQ2TjIxVm6l3huOc9PbOazmO9zIBjmsJnZRehrw4dAcjI7nvV+JmBxjtisi2cAA8k4xWlCf33OcFf1rFo6jctmyoBHSrYIIOeOaybacrIoJ7Vo+arDjGRQM8GGD24pD7DirxtYzKYuc8c1Fb24lvjbk8ZPNfWXufEFbj3o9Aeanu4fs1wI85BOKdcwLCFI7ik3qVYrAENjGCelKjeW4bPQ96Q+lBIGCfWh9UEdGmdOko8qHeAQVJbH6/rWhb3JA652qGJ9x1rD02cyxRDsMgZ+oqyZGXfjglufzzXi1Vyyse3SehsTSs5OPSqyZzt7d6bHIzMynuMmpCpUgg1zT3O+ltcuWrHevqOlawUxsCWA5z1rnIrvZLgLjjHBp1zeyTSrsVQoXHzcms7G0paaHUGeLrvH51LHeo3KMp9a4GSebBUEYz170yLVbqDKNIWx05ocRxqdz//Z;" vertex="1" parent="5de8GxAfkGyDar-mVyjA-173">
          <mxGeometry x="6.400000000000015" y="6.399999999999939" width="27.199999999999996" height="27.2" as="geometry" />
        </mxCell>
        <mxCell id="5de8GxAfkGyDar-mVyjA-176" value="" style="group;aspect=fixed;" vertex="1" connectable="0" parent="5de8GxAfkGyDar-mVyjA-353">
          <mxGeometry x="100" y="74.5" width="40" height="40" as="geometry" />
        </mxCell>
        <mxCell id="5de8GxAfkGyDar-mVyjA-177" value="" style="ellipse;whiteSpace=wrap;html=1;aspect=fixed;fillColor=#F8F8F8;strokeColor=#d79b00;" vertex="1" parent="5de8GxAfkGyDar-mVyjA-176">
          <mxGeometry width="40" height="40" as="geometry" />
        </mxCell>
        <mxCell id="5de8GxAfkGyDar-mVyjA-178" value="" style="shape=image;verticalLabelPosition=bottom;labelBackgroundColor=default;verticalAlign=top;aspect=fixed;imageAspect=0;image=data:image/jpeg,/9j/4AAQSkZJRgABAQAAAQABAAD/2wBDAAgGBgcGBQgHBwcJCQgKDBQNDAsLDBkSEw8UHRofHh0aHBwgJC4nICIsIxwcKDcpLDAxNDQ0Hyc5PTgyPC4zNDL/2wBDAQkJCQwLDBgNDRgyIRwhMjIyMjIyMjIyMjIyMjIyMjIyMjIyMjIyMjIyMjIyMjIyMjIyMjIyMjIyMjIyMjIyMjL/wAARCABuAG4DASIAAhEBAxEB/8QAHwAAAQUBAQEBAQEAAAAAAAAAAAECAwQFBgcICQoL/8QAtRAAAgEDAwIEAwUFBAQAAAF9AQIDAAQRBRIhMUEGE1FhByJxFDKBkaEII0KxwRVS0fAkM2JyggkKFhcYGRolJicoKSo0NTY3ODk6Q0RFRkdISUpTVFVWV1hZWmNkZWZnaGlqc3R1dnd4eXqDhIWGh4iJipKTlJWWl5iZmqKjpKWmp6ipqrKztLW2t7i5usLDxMXGx8jJytLT1NXW19jZ2uHi4+Tl5ufo6erx8vP09fb3+Pn6/8QAHwEAAwEBAQEBAQEBAQAAAAAAAAECAwQFBgcICQoL/8QAtREAAgECBAQDBAcFBAQAAQJ3AAECAxEEBSExBhJBUQdhcRMiMoEIFEKRobHBCSMzUvAVYnLRChYkNOEl8RcYGRomJygpKjU2Nzg5OkNERUZHSElKU1RVVldYWVpjZGVmZ2hpanN0dXZ3eHl6goOEhYaHiImKkpOUlZaXmJmaoqOkpaanqKmqsrO0tba3uLm6wsPExcbHyMnK0tPU1dbX2Nna4uPk5ebn6Onq8vP09fb3+Pn6/9oADAMBAAIRAxEAPwDEjsbiG7zJGUG3emR1FdzoEiyoc4Wql9AnnbdxdUwlL4cbypJkI53nrXnSZ9BBaM07m0EjSoyc5xk9ge4rBvvCNtdwyRNJIX3Z343D8vSuqnIE6knhhg09oCh3xNweuKUHbUmULaHO6D4Ti0y0ZIssXO5nI2/kK6WG2SLCgD2qaOTev7w5YDHSkJAJUdqbnchQexmaoiiWFsfecA/jXnHiFdniC+yAMyk/nzXoWryBkzkgqc1wHidg2uzvjAcK35jNd2XP94cuOVqZj57AVG2c5qQ5C9KYxB/vZ9cV7R5LI+S3Io78GlI6Z6etN4B6ZAoETRnP0FT5AHTGe/rUCdM9vSpR045pDPRrqN4EOSNxJJ+tZ1szR3WRuw3TFa2r4t7YyMOD61zUd263Cq6bQ3Q5r5Zq59VFI7dV8y23EjKgVLbXMYIjc4J5AFVtOYtHtC7sikeIGUkEg/qMUoockmajKTyB1qvMSGzyKZZ3ySKVJyw4OadcHeCQTwKZHLYxLol5WVjnAJrjPEozq7E/88o/zxXZlS7OxxyCK4zxCwOojjJEa5/Wu7AfxfkcGO1pmQecjNQknBqQnjIGKjY5OK9xHijc8UDmk5ANJknGabAmTipR7VEhznjipOQvBqQPRPEt0mIYSchnAxWZqMMf2NXXhoyPy/yKg10S3OZwCTE2QBXM6hq2ozFIbSPAP3i4NfMpXPqZy5UeiaRqqeQDG2SBz9ah1HWUhaIknzJGKqB1JriNI1WSLdG6lZhwV/vfSuxsNNErx3E4JkADKCPuE0+WxPOmrk+6S3uYy/3HwT7GthZt0QUnGRmoTAksQXHJGcntUefLTaedvSoZpdNWGEj96Mcf41wGuMzatJu4woFd8TgyH1UVwGtnOqSkei135ev3p5eP+Azic8VGWzyRTnOCcUwknAr2zyBrHJ+lIN2MilJwc00HP50MCZCenapM56VCnFTAg1Iz0GSFWtQmTvPc+pqtBZLJ0TPJwfyq83l/xnncSKr212onXBznhq+ai7H0spcxZGj2tshby1ZyeG281pIu2JduCMc0okSeP5nVGOcA1WluoIkOyVdwGCCcZqm7mfKy6HUAZIyeTVWXBYEDqazvPaZ8q25e5HFXbcmRNxP0/Cs5FRfKNbhWz1K157rbD+1pgO2B+lehPhCPQ5yf8/WvNtUk36ndE85cgV6GWr32zizB+6iszYHT8KjYk47UrNk8dqafWvaPHYhOcCgfTNJR2yOtJjHofbJ+tSKxXOOhqFeSPepM1IHf6hcEpgAKQMgn0rBk1H7NMEjUzSsPljTljW9qOmfbD5ZnkjjwclMc+/NZFr4Z+yXKzQTnIJ2En5sH1PWvmVY+k1exnyP4kuZN48u1jKAgE5YAnFPPh8bWe81CeWUh13I2MHHBAFdTb6ZDHGPPnY4GBjmtK3+wwZRYdxA4ZhnmndIfJJrc5Xwx4cu9gl1Ce4wDlYycf57fnXYxKIwBjnoKes4fHB9qazkBiQBg8VDldj5bFO4YKHAGcDnP515hcMXuJGHQuT+td9q12IrO4cnHykZ/SvPM5yT0r18tho2eXj5apByBgY5pjAZ4zSk4P1pCxAwa9Q81gB3zQTjgGmljt56VEZB2oAmVwDTs5HWqm/BzUpbPOaQHqU0hWVQ3XqMd6h3FF24IIOKdPErBJoic9wfWpDEWAY9PX1r5NH1ESVYyUUNw3U1ZVE25+8e9QRPucxoSx/lWrDbnyjnk4qwtcqYfKAAgUkxxEwORnoferKEMGzncvFZmr3a28TE4yR3pJXYTaict4juQlmY1zmR+h9Aa5Rn+c45HpT9Q1tNR1OWOMgxxjbGw6H1qmzlun519FgoqNI+fxU+abJfMB7kim+bgH9Kh3HoDTWb0rrOYkMnvk+lMZt3PSkzg03PoKQC7tvXO70pxkyORzURwBkmmbs96QHqMN3uizv3ZGfoa0LectAQch1bnntXHx3EkOSuMYAxWrHePjcB1ABHrXyzgfSQqXN2zdUucq5Y5yTnrWp9uZCVyvJ7HtXLQz7skZU5xkUst7sudqgkgdTRZmjmkdCLkKAScMfWoNLtjrPia3eX/AI9rQebICMhsHgfnisGS8mlk2kj5cV6B4O09bfRWuQf3lw5XPXAXgfzrSnDU5cVV93Q+dfENg+j+KtRs8bWt7ptoHoTkfoRU6OJI1kGcMM/Q+ldT8ZdPjtfFNtdxnBvbXLgesbFc/jx+VcHbXLRHkZjJORXq4epy6M8WSNI9c5FNyBkZzRkFA2Pl/Wk3cccCvRumjLUXJPWmbuDilJwKYw4470DEJOaQjoKG4OO/rTeFGKAP/9k=;" vertex="1" parent="5de8GxAfkGyDar-mVyjA-176">
          <mxGeometry x="6.399999999999992" y="6.399999999999939" width="27.199999999999996" height="27.199999999999996" as="geometry" />
        </mxCell>
        <mxCell id="5de8GxAfkGyDar-mVyjA-179" value="" style="group;aspect=fixed;" vertex="1" connectable="0" parent="5de8GxAfkGyDar-mVyjA-353">
          <mxGeometry y="130" width="40" height="40" as="geometry" />
        </mxCell>
        <mxCell id="5de8GxAfkGyDar-mVyjA-180" value="" style="ellipse;whiteSpace=wrap;html=1;aspect=fixed;fillColor=#F8F8F8;strokeColor=#d79b00;" vertex="1" parent="5de8GxAfkGyDar-mVyjA-179">
          <mxGeometry width="40" height="40" as="geometry" />
        </mxCell>
        <mxCell id="5de8GxAfkGyDar-mVyjA-181" value="" style="shape=image;verticalLabelPosition=bottom;labelBackgroundColor=default;verticalAlign=top;aspect=fixed;imageAspect=0;image=data:image/jpeg,/9j/4AAQSkZJRgABAQAAAQABAAD/2wBDAAgGBgcGBQgHBwcJCQgKDBQNDAsLDBkSEw8UHRofHh0aHBwgJC4nICIsIxwcKDcpLDAxNDQ0Hyc5PTgyPC4zNDL/2wBDAQkJCQwLDBgNDRgyIRwhMjIyMjIyMjIyMjIyMjIyMjIyMjIyMjIyMjIyMjIyMjIyMjIyMjIyMjIyMjIyMjIyMjL/wAARCABuAG4DASIAAhEBAxEB/8QAHwAAAQUBAQEBAQEAAAAAAAAAAAECAwQFBgcICQoL/8QAtRAAAgEDAwIEAwUFBAQAAAF9AQIDAAQRBRIhMUEGE1FhByJxFDKBkaEII0KxwRVS0fAkM2JyggkKFhcYGRolJicoKSo0NTY3ODk6Q0RFRkdISUpTVFVWV1hZWmNkZWZnaGlqc3R1dnd4eXqDhIWGh4iJipKTlJWWl5iZmqKjpKWmp6ipqrKztLW2t7i5usLDxMXGx8jJytLT1NXW19jZ2uHi4+Tl5ufo6erx8vP09fb3+Pn6/8QAHwEAAwEBAQEBAQEBAQAAAAAAAAECAwQFBgcICQoL/8QAtREAAgECBAQDBAcFBAQAAQJ3AAECAxEEBSExBhJBUQdhcRMiMoEIFEKRobHBCSMzUvAVYnLRChYkNOEl8RcYGRomJygpKjU2Nzg5OkNERUZHSElKU1RVVldYWVpjZGVmZ2hpanN0dXZ3eHl6goOEhYaHiImKkpOUlZaXmJmaoqOkpaanqKmqsrO0tba3uLm6wsPExcbHyMnK0tPU1dbX2Nna4uPk5ebn6Onq8vP09fb3+Pn6/9oADAMBAAIRAxEAPwC4Rt600g9vyp/bPrTCeMDr616tjEZ65phPHFOckA+vpTDzgd6BCE8ZphIHenYGcZHvzioJJ4oIjJLIsUYGd7naDT0W41qP5OemPU1znizXF0zTvIhfF3cLhcHBRD1b8s49OtQal46srcOliklzKOUmPChu4Nef3VzNeXLzzyNJJITuZj29B6CuerWSVkWkRKecelem/C8eba3sY6iZePqv/wBavMccjmvR/hPcBdavLQ9ZIRIPqp/+vXC1c0judrr/AIea9gE0Kjzo1+U/3h6VyMcTZMbLtZTtII5FexJArIARx2+lYmteEor4edbjZMB97oD9axlDsdVKpyux5y1r8u4ffHp2pY0k5y3HvWtJaTWchiuIdjdMtwD9KhEBGeF+jVjdrRnXaMlc3/T2pjYHFOz/ADqteXdtYRGa9nSCMAkFjywHXA6mvoOZLc8Ow5sdTgenvUU8ywRmWV0jVVLFnOOB/OuR1Xx4qZTSYs4zm4lHAPsO9cdf6le6i+bu4klwSQrH5QfUCsp11ErlO01bxxa24aLTV+0zAt++dcIuMFSB3zzXE6lqd5qkrS3dw0oJJCH7i+wFVeQuMcd6O/p3rmlVci0kRknI56dxTccY9KkxkCkIyKxGM710ngnURpvi7T5yxCPIIXPs/H5dDXOdKnjO0hlYgjkEHH+ewpgtz6ugAKgcfhVtF6gjI9DWV4c1BdW0Gw1Bcf6RArk4wN2PmA+hBraTrWZqVbrTLe+jMc8CyD1PUfSuWvvBl3DIG0h4ZUPBiumxt9wefyruADTigYY5pSipGkKjifNOpeP7+VtunJ9jRWyrkZceoNcvc3U92+65mklbJILHO3PXb6VF3yOT70YPfrXTKbluclkNJyck889vWkJJzTse1JjFQMSkb604dKaeWpANI6UgFP60mOM0DG4zmpF7Dp7imj0p3U8dqEB718H9Q+2eE5LNmZns52Taf7rfMMfqK9GXnB/GvEfgtemPXNQst5/fW4kX2KtjI/76/SvcFAHTpUtGiehItThRjPrUGDViL7tShnxqADzS4pBxj3pSeOOlamInWjHSjr0pSOhoGMxxTQOSakPQ4poB54pANxSU+jHNAhoFA4px60nGaYzrvhtfnT/HWlsGwssjQnPT5125+gOK+llHGegr5Gsbk2l1BcDOIZBJx14IJ/lX1tbSi4gjmC4WVVcD0DDP9aTLiTYqZMgfLyajHQfSkkuBbAMPvN0+lQij47FAGOlL0GKOa0MQP0puadTTQMU/dIHFQrJg7H4J71Lx+NMdAy4I/GkA7IxwKBxmoULo4B5WrAHGaYhD0plPamdaBkiHpwCea+nPh7fC/wDBGkTBmciHyGZjkl0Yqa+Yk/WvePgvqBn8NXdkzgvbXJKoP4UcAj/x4MaTKienjpnt0/CowFmdlkHyqflqZefxp0kQ4ZeKlIs+NuDQfrRihjzwKsxE70h6UtAPFACdKMHmlFIT6UAJwT06UoxQOBQAQaADGec0w8Zp5PJphxyCaBjkPevUvgrfeV4kvLE8C5t9647shH8gT+deWL6Cuu+HOoDTfH2jzu21Gm8lz7ONv88UmNbn1BCAq5I+lSgdjUaccenWnHjvSKufGdFFHaqMxv3valoFHegYYxTVIIJ96cTUWdsxA6GgRIeDRzSgZAFJ260DQn1prU7PGaa3f2oAQYz71btLl7S5iuY/vwusq/7ykEfqBVMHBqeP17elAH2HZ3Md3bQ3MTh45o1kDDocjOas1yXw5vHvfh9okkoAZYDAMekbMgP5IK6w8HHpUln/2Q==;" vertex="1" parent="5de8GxAfkGyDar-mVyjA-179">
          <mxGeometry x="6.399999999999977" y="6.399999999999939" width="27.199999999999996" height="27.2" as="geometry" />
        </mxCell>
        <mxCell id="5de8GxAfkGyDar-mVyjA-182" value="" style="group;aspect=fixed;" vertex="1" connectable="0" parent="5de8GxAfkGyDar-mVyjA-353">
          <mxGeometry x="143" width="40" height="40" as="geometry" />
        </mxCell>
        <mxCell id="5de8GxAfkGyDar-mVyjA-183" value="" style="ellipse;whiteSpace=wrap;html=1;aspect=fixed;" vertex="1" parent="5de8GxAfkGyDar-mVyjA-182">
          <mxGeometry width="40" height="40" as="geometry" />
        </mxCell>
        <mxCell id="5de8GxAfkGyDar-mVyjA-184" value="" style="shape=image;verticalLabelPosition=bottom;labelBackgroundColor=default;verticalAlign=top;aspect=fixed;imageAspect=0;image=data:image/jpeg,/9j/4AAQSkZJRgABAQAAAQABAAD/2wBDAAgGBgcGBQgHBwcJCQgKDBQNDAsLDBkSEw8UHRofHh0aHBwgJC4nICIsIxwcKDcpLDAxNDQ0Hyc5PTgyPC4zNDL/2wBDAQkJCQwLDBgNDRgyIRwhMjIyMjIyMjIyMjIyMjIyMjIyMjIyMjIyMjIyMjIyMjIyMjIyMjIyMjIyMjIyMjIyMjL/wAARCABuAG4DASIAAhEBAxEB/8QAHwAAAQUBAQEBAQEAAAAAAAAAAAECAwQFBgcICQoL/8QAtRAAAgEDAwIEAwUFBAQAAAF9AQIDAAQRBRIhMUEGE1FhByJxFDKBkaEII0KxwRVS0fAkM2JyggkKFhcYGRolJicoKSo0NTY3ODk6Q0RFRkdISUpTVFVWV1hZWmNkZWZnaGlqc3R1dnd4eXqDhIWGh4iJipKTlJWWl5iZmqKjpKWmp6ipqrKztLW2t7i5usLDxMXGx8jJytLT1NXW19jZ2uHi4+Tl5ufo6erx8vP09fb3+Pn6/8QAHwEAAwEBAQEBAQEBAQAAAAAAAAECAwQFBgcICQoL/8QAtREAAgECBAQDBAcFBAQAAQJ3AAECAxEEBSExBhJBUQdhcRMiMoEIFEKRobHBCSMzUvAVYnLRChYkNOEl8RcYGRomJygpKjU2Nzg5OkNERUZHSElKU1RVVldYWVpjZGVmZ2hpanN0dXZ3eHl6goOEhYaHiImKkpOUlZaXmJmaoqOkpaanqKmqsrO0tba3uLm6wsPExcbHyMnK0tPU1dbX2Nna4uPk5ebn6Onq8vP09fb3+Pn6/9oADAMBAAIRAxEAPwDmyQTk89qax/dnHNKT2/CkP3DjpXrdTLocPqQJvH+tVOauan/x/SfWqfeulLQgM4pM4p1N70nohjgR3qaEfMDVcdaswfe6VrS3FJaG1bAC1YjkY4rn5CBK3rurobVdtq49q5+X/XP9a6sT8MSafUbnilXqKTqDSr1rxsX8RvHYrXA/fgeop3QCkmGZxSk5NeaWelHj3qNj8jemOKc3HemvkIwHp1r1LGTOK1I5vH5HWqdW9SP+luDng1T9K6IEi55o4oNJVNoBaswD5qripoWwwxVUtyZG/bg/ZX+lc5NxO2Oma6O2INo2R2rnJiBPJj1rtxPwomG40HmnD71NycdKcD39a8PFL3joiQSD/SPwo/iNOl/1uabXnlHoxOSccjtTW5U5yQBSk5zyQKbnCnk9OnpXpkHF6ic3bkdz3qp3NW9Q5vHz61V7mumOxA3vS0Z5oosgFWp4QQwx61XHSp4c7sjp2rSnuKRv2p/0Z65yU5nf6101pk2j8dq5qc4nfA712Yn4YkQ6jQPyoHWjHFAI3DNeJiviOiOwyX79MPAFPkO6Q4FREYA6mvP0KPRm+lNb7hOe1KTxyMimsflPHbNekZo4zUBm8fPrVXOKt6jxdv8AWqlbp6EITGTS4pKB1pjFHFWIMDviq461PDndzWtLcmRv2v8Ax6seornZ8faHwcc10ln/AMezeuOK5yfAuZcjvXbiV7sSIbsYDjvR0OaTjritTStJl1CVSRtj4zXhY2SizppxbINN0i41WfZGpCdS3pXYWvhextowJR5rnrWtbxQafbeXAAqjgsO9RHVLZeGJzXhVK127HbClyq7M7nPHWmtna474pT9M0x+UYDjivfRwHH6gT9rf0zxVUkdqs33N04z3qr1roSEFFFLSegCgVNDwwqAdanh+8K3pboiR0NlzbsB021zk4zcyf71dDZEfZ2+lc/MN90wAOSciuzFNKCbIgmx9pbNczqgXqcGvRdJ0wxWwUfIgHzMehrG8OaWkcfnS4Cjkk9zW/dXuY+pWJRwBXx+PxHtJtRPVoU7R1JZY7ZCMZfHdulVpbm0bosIGe9c5qOqyzkxxEgDkEd6yVuZVY+YHxjjiuJU2auSvY6bpx3qOT7jH1FPJ5+lRzEiM/Svo0eYcfff8fLEdzVdanvDm5YjuarnrXQmJbCsKSlxkijoetGohRViEjPNVxyanjGX64Na0txS2Ny1/1DADotZ9hAbjVAPVq0LMDyG57UukL5dxLN3JwKea1OTD+oYZXmdPAu90giyFTjj+I+tUdSYzXBtIidqnJ9zWnZEQW007cbFyD6msto2jt97cSy8+4B5r45JuWp67SSKsVpbxykAF2HBap/sCTAEKTxVuysmkCKq8nqa6a10yKOL5kyac6qjoVChzanIHIOBUFxwh9fT0qfqc9zVW5JCNX0aPJOUvDm5c+tVu9WbwYuGqvXQSLnigGkopAOFTwjkGoAasQD5s1tT3JlsbVsSIZcdduau6dFyoPTcSap2p2wE1q6OA8ZJ75rjzup7sIG+DjqaxjMlkIoyfncZ+mar3SGW/MK8qvGfartsNvHYHilsIBJdSSE85NfL81kerCPMzR021EagAcmtyKPA6DPeqVsmADWnbqCSTXPLXU7ForI//2Q==;" vertex="1" parent="5de8GxAfkGyDar-mVyjA-182">
          <mxGeometry x="6.399999999999996" y="6.399999999999939" width="27.199999999999996" height="27.199999999999996" as="geometry" />
        </mxCell>
        <mxCell id="5de8GxAfkGyDar-mVyjA-185" value="" style="group;fillColor=none;strokeColor=none;aspect=fixed;" vertex="1" connectable="0" parent="5de8GxAfkGyDar-mVyjA-353">
          <mxGeometry x="190" y="188.10000000000002" width="40" height="40" as="geometry" />
        </mxCell>
        <mxCell id="5de8GxAfkGyDar-mVyjA-186" value="" style="ellipse;whiteSpace=wrap;html=1;aspect=fixed;strokeColor=#330066;" vertex="1" parent="5de8GxAfkGyDar-mVyjA-185">
          <mxGeometry width="40" height="40" as="geometry" />
        </mxCell>
        <mxCell id="5de8GxAfkGyDar-mVyjA-187" value="" style="shape=image;verticalLabelPosition=bottom;labelBackgroundColor=default;verticalAlign=top;aspect=fixed;imageAspect=0;image=data:image/jpeg,/9j/4AAQSkZJRgABAQAAAQABAAD/2wBDAAgGBgcGBQgHBwcJCQgKDBQNDAsLDBkSEw8UHRofHh0aHBwgJC4nICIsIxwcKDcpLDAxNDQ0Hyc5PTgyPC4zNDL/2wBDAQkJCQwLDBgNDRgyIRwhMjIyMjIyMjIyMjIyMjIyMjIyMjIyMjIyMjIyMjIyMjIyMjIyMjIyMjIyMjIyMjIyMjL/wAARCABuAG4DASIAAhEBAxEB/8QAHwAAAQUBAQEBAQEAAAAAAAAAAAECAwQFBgcICQoL/8QAtRAAAgEDAwIEAwUFBAQAAAF9AQIDAAQRBRIhMUEGE1FhByJxFDKBkaEII0KxwRVS0fAkM2JyggkKFhcYGRolJicoKSo0NTY3ODk6Q0RFRkdISUpTVFVWV1hZWmNkZWZnaGlqc3R1dnd4eXqDhIWGh4iJipKTlJWWl5iZmqKjpKWmp6ipqrKztLW2t7i5usLDxMXGx8jJytLT1NXW19jZ2uHi4+Tl5ufo6erx8vP09fb3+Pn6/8QAHwEAAwEBAQEBAQEBAQAAAAAAAAECAwQFBgcICQoL/8QAtREAAgECBAQDBAcFBAQAAQJ3AAECAxEEBSExBhJBUQdhcRMiMoEIFEKRobHBCSMzUvAVYnLRChYkNOEl8RcYGRomJygpKjU2Nzg5OkNERUZHSElKU1RVVldYWVpjZGVmZ2hpanN0dXZ3eHl6goOEhYaHiImKkpOUlZaXmJmaoqOkpaanqKmqsrO0tba3uLm6wsPExcbHyMnK0tPU1dbX2Nna4uPk5ebn6Onq8vP09fb3+Pn6/9oADAMBAAIRAxEAPwDx33oAzS8+lJiqAUY6ig9KOMUh6UAQS9B9am7ZqCTkr9am64FIBeKjJ5IqU4AqL14phYdjjmkZR0xSjoBSHmvocM26MWzme41GCsNwwB1r1v4e6yL/AEz7BK+JrfhM/wASV5F0NaWmandabcCe0lMcgGM47elYYnDfWKTp9ehvRreznzH0AE3Nxyo6VIsG3ouc+1ePw/EnXIF2lYJMcZI5ok+JGvvjBhB9AteF/Y1Zno/X6aORznpSZOKXJHajHHXmrOABSN0pc5x601+BQBXIPmJ9atjp0qqDmYe1WM9qSAGpmacTTMjPND2AUDK0tNX5gRThz0FfRYN3oqxzT3GkDtRGSDxnNKQc8AU3Bz1rZqzuK6asSv2560oHGQQPrQh3LgfgabjHFaruiB1IM55pC3Ix0pc96+TO0Ud8Ux/uninD3prHANICuP8AWDA5qyKrof3pz6VZByKEA1qZ0p7U3HBNAgT1HSnDimJyKf17CvXy6bacDGohwFMYdxTxSMBjgV6jVzJMahwQDUjACou9TLhlzTiDRF34p/amg+gFLnIxXyh2B14prdCKXpz1pjnknFJgRxH94x/CrFV4OWY1OfagBCaQ8Kadtpr4C0wBeAB7U8dKavb6UpHIOa2w9V06kWTJXQ4Yz0pevFIO3FOH05r6WOqORqxGRg0mfl9Oae3BwaQdcUNWZQdKKU4UnOKaXx0r5M6wNRMHAJIpwJ3DPFTH5kI9qAKkIyM1YAqGHgH61OKEAvQVDIegqY81BKcOo70wJRjilxkc9KQAU7AxRcRGHKNtbkHoamGCPl/Oojhl5pFJifB5Tt7V9Fh5OMIt7HPPVkuOM45pMc5qRuQO/v60wjiut67Ga0EbBycZqPPpxS+W0TsrNuA5BptfIHYN3c5NTRk8VXbLdO1WLaJ5ImO4A+lAyIjEjAetSA1AD8+CckHrUynvTQD81WkbMwqx1FVhzP0pgWRS0h9qUdKQAvANLt3Lzzmmr0Jz0p47H0r6TCSUqUYnNPR3I0YxNhjlO3tUxGQMHFMK71wRUJka3+VuU7V0N+zfkRbmLV8qpOdv4VTzWnqMYZgy4HHNZ/lN6ivkkdrhIjDfNkdqvacyhnUrndVTyWA6irVgrRy5yDQx8kipMoWdwOPmpOnGat3sJa6LAgZqL7KQPvChMOSRGDuB56U2FfnJqx9nIz8wpUhKjqKdw5GMHNDsF4qR4mC9RUDQuecii4cjEVvmOB1qcDPHeqwhf1FSoj8cit8NinSmuxE6TaJu4zmmunmDIA69DU4gYqGyOaDbH1FfRqrTnE5VCVz/2Q==;" vertex="1" parent="5de8GxAfkGyDar-mVyjA-185">
          <mxGeometry x="7.173333333333327" y="6.399999999999939" width="27.199999999999996" height="27.199999999999996" as="geometry" />
        </mxCell>
        <mxCell id="5de8GxAfkGyDar-mVyjA-188" value="" style="group;aspect=fixed;" vertex="1" connectable="0" parent="5de8GxAfkGyDar-mVyjA-353">
          <mxGeometry x="267" y="30" width="40" height="40" as="geometry" />
        </mxCell>
        <mxCell id="5de8GxAfkGyDar-mVyjA-189" value="" style="ellipse;whiteSpace=wrap;html=1;aspect=fixed;" vertex="1" parent="5de8GxAfkGyDar-mVyjA-188">
          <mxGeometry width="40" height="40" as="geometry" />
        </mxCell>
        <mxCell id="5de8GxAfkGyDar-mVyjA-190" value="" style="shape=image;verticalLabelPosition=bottom;labelBackgroundColor=default;verticalAlign=top;aspect=fixed;imageAspect=0;image=data:image/jpeg,/9j/4AAQSkZJRgABAQAAAQABAAD/2wBDAAgGBgcGBQgHBwcJCQgKDBQNDAsLDBkSEw8UHRofHh0aHBwgJC4nICIsIxwcKDcpLDAxNDQ0Hyc5PTgyPC4zNDL/2wBDAQkJCQwLDBgNDRgyIRwhMjIyMjIyMjIyMjIyMjIyMjIyMjIyMjIyMjIyMjIyMjIyMjIyMjIyMjIyMjIyMjIyMjL/wAARCABuAG4DASIAAhEBAxEB/8QAHwAAAQUBAQEBAQEAAAAAAAAAAAECAwQFBgcICQoL/8QAtRAAAgEDAwIEAwUFBAQAAAF9AQIDAAQRBRIhMUEGE1FhByJxFDKBkaEII0KxwRVS0fAkM2JyggkKFhcYGRolJicoKSo0NTY3ODk6Q0RFRkdISUpTVFVWV1hZWmNkZWZnaGlqc3R1dnd4eXqDhIWGh4iJipKTlJWWl5iZmqKjpKWmp6ipqrKztLW2t7i5usLDxMXGx8jJytLT1NXW19jZ2uHi4+Tl5ufo6erx8vP09fb3+Pn6/8QAHwEAAwEBAQEBAQEBAQAAAAAAAAECAwQFBgcICQoL/8QAtREAAgECBAQDBAcFBAQAAQJ3AAECAxEEBSExBhJBUQdhcRMiMoEIFEKRobHBCSMzUvAVYnLRChYkNOEl8RcYGRomJygpKjU2Nzg5OkNERUZHSElKU1RVVldYWVpjZGVmZ2hpanN0dXZ3eHl6goOEhYaHiImKkpOUlZaXmJmaoqOkpaanqKmqsrO0tba3uLm6wsPExcbHyMnK0tPU1dbX2Nna4uPk5ebn6Onq8vP09fb3+Pn6/9oADAMBAAIRAxEAPwDqk4ABqVQKZgYp4PTHFeGmfQNEoHSmOoweufSgvnHNMDnpn7tUKxDKR6da5XxDBwJF7da6p8ED1ArK1SATWzDHarjoyXqjB064/wBQWGcjY31zVHxfalTb3A6gGNv6VNZZVJIz1Rs1c1wC60ggDJGCDW0Xqcc0cVDNlPL7OMfQ1SmxDK64OCc80+MmKWSEkHoy027AdUk7MuPoa3juYS1ObuV2XD+hORUNWrv/AFmfaqvTFd8djkludR8PCkfjrTmkK7B5jMXAYD923UHgj2rpPifDNb+ENG3XFxcBr2YpPPHsdxsj4xjopyoz0xjpXNfD3YfG+niSE3EZEoaFfvSLsb5R71s+PBbx+BtGa1WxRHv7jMdnLKwjwkYw3mEkNxnjjnPWpYkevgqFbB6VLsB21z2l6sLu3DdDkZreaTABJ4GK8Lls7H0Sd1ckKcc8VG0X8XPFQyalbREK8gB6ml/tG1YZWZTn1NV7NslyGMxHaoLhdyEY4qwZI5v9W4b6VVlkwp9qOornIvth1CZT0P6c095d1m8ZPABGKh1FsaltPRhgmoWl3GYde4FbpdTmqHMatCba6hOOcbM+/wDnFVZjtSROwwVra12HzbKGYckAg+xHX9Kx5uYkPBwMH+lbpnKzAveHwOlVD14q7fACRRVLFd8PhOSW50/w9aVPHeltCG3b3yUGWVdh3MPcDJ/Ct74jzNL4V0Nw89xbtNI73E8SRMJTHHldigfw7Wyf72K4C0vLiwuYrm1meCaM5WSM8irGo61qWrBBqF/LchCSu/HBPfjvwOfahxuI9a0hTbXDW+44DdD6V008ri3OD24rIsbY/wBrMGALCtzUU2w4UDpXiO3Me/F+6cVqAuZpWZAxyc0mn2kgI86OXitm4ni0+3MrgEEDJNZlt41szMVeB/KXlnxwO3NbqLa0M5SitzXhiNv+8tZCfVWPIqwLlZ4mY/Iw+8DUkMlrfxCSBlywyhXpVGXclw528EfMPes5LUpSurnO6yxS/B9ec1XWXMm7PJG3FSeIsqY3788etUIXJMfPUVaWhzVHqW5oTPZ3UHQ48xD6+tc8yYQA4wwBGPUVvJIVukJPB+Q/Q1kXUeyTyuhVs/hVxZi0cxqOBcY9BVOrmoAreScVSzzXow2OKW4elGBRSdqok+g7FCdQZq0Zcy/Kem3FVNK5eRu5/WrykC7KnpXg9T6FrQwdbtRK8byKfKBBK4rkpdJnlv5YbYf6PN97kcDOea9NuYk43cq4wc1nTeH4HlWSPKgdcHrXXTqcpyVafMcppXm6RqJtF5t25Uk/d+tdHMolIcHPFINGjhYk5Zjxkmri2b28WGxis6kle5tFW0OP8URYt4W/2sVz9sxCxZHAODXWeJkBsfXa4NcpsMcQOe5qo7HPUXvFuX7pYHmqGpyAzRS4wJEwfrV1CHHPAIrMvwfsyL3RsU1uRLY57VgBecc8Vn1b1CTfeE+gxVTvXpQ+E4Jbge1IaWkqiT6P01SsCkDDY706dis4Y55NVNK1WCW3T5hnFOurlLiQhGyVrxLNbn0d7o2VjWa2w3bkUkYZQUccjvS2b7oEPbFWWwPmouQ4lQW6u+5vXNQ6i6rFyO9WpLhF6dawNTuS7YHrS3Ja0MDxBIDYyHvn+tYMkPmWzYyMjIq7r9xiJUB6dfpUdgvn20Cg5BBAJ9RXQlZHLUfvGRbz/KCx4UkEUy+IaFmHTHFPa32rcf7LVDKSLVlPOAaaWpm9jkbjm4kOe5qMdM1LPxO/1NRA8V6UVocDA0lL9aTBPemI9JsotStGS1CM2R8jAdfrV7ShqEGqvDcsTvPGB2ru5LaNZIiBjHTA6077LHv3bRnu2Oa8hyuj6COhYs8xRKh/hq0zgKcc1QlYo4KnPY1MzkoD61gy2rlK7faS2TmsK5mLSFuwrWvJDg+lYV0SJNo7Cqp7kTdkcrrdx5lxKv8Adp+g3YeJoz99XVgP51l6vKVvGxjBPNO0iXyb4E9G4/Ouv7JwP4jYuItr3yEc7cisOZhsXn7/ABXTzqv2iQ5zvirj5TiNc9QR/OiG5EjAuRtnb6moc1NdZE7Z9TUFegtjhFP1pvNLj1pKYHucXisL+7mixKp71sWWtWuoRlo5B5ndM9KxpIraZMtFywyfrWHd2DxzCa0dYnXtzivIsfV1KcOW6O1lmwjtnoc09LnzE46Yrm7XUJpl8uQLu7kVtwW5S3B3ZNZSVjnjoJPICSaxJju8xyfx7VoTudrAcc0mkWi32p29swGCcsD0Iqqa1Mqj0ucH4ltljSCRBywyT1GazbNtyCQfeU5xXYfEjRv7LeOSMotpO7GKNc7k2+vrXJ6XECjjP8Jrr6WOBu7ujpx84ifI5j/pXHXJILZ/vf1rrrY5tbcf7B/lXKXwwXx0DmphuTM56fmdyfWo6kn/ANa31NR969COxxvcQ0lLRxTEf//Z;" vertex="1" parent="5de8GxAfkGyDar-mVyjA-188">
          <mxGeometry x="6.399999999999986" y="6.80000000000003" width="27.199999999999996" height="27.199999999999996" as="geometry" />
        </mxCell>
        <mxCell id="5de8GxAfkGyDar-mVyjA-191" value="" style="group;aspect=fixed;" vertex="1" connectable="0" parent="5de8GxAfkGyDar-mVyjA-353">
          <mxGeometry x="165" y="65.60000000000002" width="40" height="40" as="geometry" />
        </mxCell>
        <mxCell id="5de8GxAfkGyDar-mVyjA-192" value="" style="ellipse;whiteSpace=wrap;html=1;aspect=fixed;" vertex="1" parent="5de8GxAfkGyDar-mVyjA-191">
          <mxGeometry width="40" height="40" as="geometry" />
        </mxCell>
        <mxCell id="5de8GxAfkGyDar-mVyjA-193" value="" style="shape=image;verticalLabelPosition=bottom;labelBackgroundColor=default;verticalAlign=top;aspect=fixed;imageAspect=0;image=data:image/jpeg,/9j/4AAQSkZJRgABAQAAAQABAAD/2wBDAAgGBgcGBQgHBwcJCQgKDBQNDAsLDBkSEw8UHRofHh0aHBwgJC4nICIsIxwcKDcpLDAxNDQ0Hyc5PTgyPC4zNDL/2wBDAQkJCQwLDBgNDRgyIRwhMjIyMjIyMjIyMjIyMjIyMjIyMjIyMjIyMjIyMjIyMjIyMjIyMjIyMjIyMjIyMjIyMjL/wAARCABuAG4DASIAAhEBAxEB/8QAHwAAAQUBAQEBAQEAAAAAAAAAAAECAwQFBgcICQoL/8QAtRAAAgEDAwIEAwUFBAQAAAF9AQIDAAQRBRIhMUEGE1FhByJxFDKBkaEII0KxwRVS0fAkM2JyggkKFhcYGRolJicoKSo0NTY3ODk6Q0RFRkdISUpTVFVWV1hZWmNkZWZnaGlqc3R1dnd4eXqDhIWGh4iJipKTlJWWl5iZmqKjpKWmp6ipqrKztLW2t7i5usLDxMXGx8jJytLT1NXW19jZ2uHi4+Tl5ufo6erx8vP09fb3+Pn6/8QAHwEAAwEBAQEBAQEBAQAAAAAAAAECAwQFBgcICQoL/8QAtREAAgECBAQDBAcFBAQAAQJ3AAECAxEEBSExBhJBUQdhcRMiMoEIFEKRobHBCSMzUvAVYnLRChYkNOEl8RcYGRomJygpKjU2Nzg5OkNERUZHSElKU1RVVldYWVpjZGVmZ2hpanN0dXZ3eHl6goOEhYaHiImKkpOUlZaXmJmaoqOkpaanqKmqsrO0tba3uLm6wsPExcbHyMnK0tPU1dbX2Nna4uPk5ebn6Onq8vP09fb3+Pn6/9oADAMBAAIRAxEAPwDkTzyTiqs5UhhVhiCcD86qykkEZ6V6yMjl7z/Xt1qvU93n7Q31qDmt0SFFGKMUuoxR1qxDncKgXmrEJwQPWuiluRI1hJttsDqa2tEAEGW7Vzhf5PpxXRWJ8u1VfpXg5pX9pU9Dtw0eU2oTmMHpzitWxgCR7h1JNZFu4IRSR97Nb9ptIAzxzXi1Nj1KRcijK4z0rRjQ4wKpopwG7VoxL8gHWsHsdETyd+VxVOQ/K/rjrVmRiB+FVGOUbivsj5lnN3Z/ft061AKmu+Z2+tQit4ghaQnk0tJ3oaAVetWIgMiq/Spo2/lVRlZEtXZdY8hcdxxW/EcIFOM4HFc5Ed0qEjvW/I2NoIAJ4r5iu7u56VLobNi4aVc44rfgvIIDl3GR2rmrMMFJGATwK2YNOWNd8vzswzXJKN2d1Nm9bapbzMB5ig+9a8TqVypyT3FcLe2o8sskTqw7iqlnrtxZO0LyMcDqKl0r7GilYx5icVWdsoe2KlmY5I7A1Xc5U19Wtz51nPXPM7VFUt0cXDelQj61sIO1HSlxgA0hpsA7VYgXLAVXHIq7p67p8+gqZNKDKSuyVvlmRRxg1uFfMkQgZxWO8ZkkQ44Dc1vWC+ZJGPU8ivmqjPRpG3aW/CA8dzVjVdYi0uNGYb2PAUVo29pujJAGcYrntYsV+1LJcAjKkJ6ZrCFnLU65K0bouaX4yt70eVc2phVsDzOoH1q9c6PBdtuA2nOTt/Suc0jR43vFSd1FtuBPviuvtrYqzxgSGNT8jJycdgauolHYijKTvc8+kYHIBqFuhNPkPzGo35Q4HSvpEeMYF0SZmqDnIqW4/wBc316VHW6RIpFJS5zRQxh0rQ0sFncjsKzutauijJmGei1z4h2pSZUPiRbiPyH5eAeTWrpvF2gz2BrMTooGcE8ir2nPm/ZAegzXgS2PQpu0j0rTU3RA9SRmkaxhu3ZZFDYPANM0qYCNfXbitUWwkbfG2DXFzWZ6HLdFODRLWBWbYAfenyKEUCLj1xxVt4ZB95iRms27uEWTZnGKvmuKKseVP1xTScLxSBueaQnGeeK+rPnjCucmZj71FzUtz/rmwe9RitkJCUUhozS2Yx+B9K3/AA5b+atww6gVgdetdR4WZcS88kVz4tfuWXS+NCOmx9x7Uujtu1CXuQODU97GEDlag0NMXkpI7ivBv7p3r4ju9PdiqknkV1Nk7Mo6Vy2mHcAMc109qQFHPIrgk9T1I/CWLlgF444rk7icvcOQM810l5KFiZjzgZri5tRSDB3DLEnmqhqL4ThQ+ACOc9qQtuU479qYCCM5pTypx1719efMmTcY85gCD61D2qWb/WHAxUXetL2AXtRigHJpT1psYmcn6Vt6BciG6QH7rkj9KxOhxVi3dkkUr1BBqJQ54OI07O52F2hkVx6HtUek27xSuzoQGbjmrVov2qwWQ9ScE02yZWcoNxKSFa+amuVuJ6VPVpnTaaxL7ehB610cL4HWuYtNyTcA1pG8Kjj8PeuKUdT0ovQ0LgmUMh4yOK8/1XQ7ma4Ktv2AkqUrtoZCz/N3FXFtUkJ6/UVUPdCbueJg846gU/JKmokOGFSnIz0r68+ZMqb/AFhqLFSzE+ac4pmasBAMGjPNLmkIFDGGPmqWIfMMdajWpoThgffGKuOibEdvoxxp0iDquDVWyfytXnUnALA4zVnR1wkiA/wZrMuHMOtBx/GBke9fL1HepI9OnokegaanmNjvmn6tE1splUcCqmjzln6dBW1qW2azCkda4pO0j0VrHQ5VfEsNuu11LMOOlWofE93Mv7u3+UdKq30cMbKvkqc/LnHNS2OYAxjPDdiM4rXSxrRt1P/Z;" vertex="1" parent="5de8GxAfkGyDar-mVyjA-191">
          <mxGeometry x="6.399999999999996" y="6.666666666666666" width="27.199999999999996" height="27.199999999999996" as="geometry" />
        </mxCell>
        <mxCell id="5de8GxAfkGyDar-mVyjA-194" value="" style="group;aspect=fixed;" vertex="1" connectable="0" parent="5de8GxAfkGyDar-mVyjA-353">
          <mxGeometry x="140" y="110" width="40" height="40" as="geometry" />
        </mxCell>
        <mxCell id="5de8GxAfkGyDar-mVyjA-195" value="" style="ellipse;whiteSpace=wrap;html=1;aspect=fixed;fillColor=#F6F6F6;strokeColor=#d79b00;" vertex="1" parent="5de8GxAfkGyDar-mVyjA-194">
          <mxGeometry width="40" height="40" as="geometry" />
        </mxCell>
        <mxCell id="5de8GxAfkGyDar-mVyjA-196" value="" style="shape=image;verticalLabelPosition=bottom;labelBackgroundColor=default;verticalAlign=top;aspect=fixed;imageAspect=0;image=data:image/jpeg,/9j/4AAQSkZJRgABAQAAAQABAAD/2wBDAAgGBgcGBQgHBwcJCQgKDBQNDAsLDBkSEw8UHRofHh0aHBwgJC4nICIsIxwcKDcpLDAxNDQ0Hyc5PTgyPC4zNDL/2wBDAQkJCQwLDBgNDRgyIRwhMjIyMjIyMjIyMjIyMjIyMjIyMjIyMjIyMjIyMjIyMjIyMjIyMjIyMjIyMjIyMjIyMjL/wAARCABuAG4DASIAAhEBAxEB/8QAHwAAAQUBAQEBAQEAAAAAAAAAAAECAwQFBgcICQoL/8QAtRAAAgEDAwIEAwUFBAQAAAF9AQIDAAQRBRIhMUEGE1FhByJxFDKBkaEII0KxwRVS0fAkM2JyggkKFhcYGRolJicoKSo0NTY3ODk6Q0RFRkdISUpTVFVWV1hZWmNkZWZnaGlqc3R1dnd4eXqDhIWGh4iJipKTlJWWl5iZmqKjpKWmp6ipqrKztLW2t7i5usLDxMXGx8jJytLT1NXW19jZ2uHi4+Tl5ufo6erx8vP09fb3+Pn6/8QAHwEAAwEBAQEBAQEBAQAAAAAAAAECAwQFBgcICQoL/8QAtREAAgECBAQDBAcFBAQAAQJ3AAECAxEEBSExBhJBUQdhcRMiMoEIFEKRobHBCSMzUvAVYnLRChYkNOEl8RcYGRomJygpKjU2Nzg5OkNERUZHSElKU1RVVldYWVpjZGVmZ2hpanN0dXZ3eHl6goOEhYaHiImKkpOUlZaXmJmaoqOkpaanqKmqsrO0tba3uLm6wsPExcbHyMnK0tPU1dbX2Nna4uPk5ebn6Onq8vP09fb3+Pn6/9oADAMBAAIRAxEAPwDu7hyrEzgA+oOc+nNYGuaY15ZyfZmUufujOee4PvXTypMCXQtsAx5ZXj8ayLq1jdWa3Uo3Tap4Yelc8ZuDudLpKaseL3Nu8UjqyiMrnO71HUfXniqnAJHIxxzXp+o6BaX9wZpo280gAkHAbHQ5rmPEHg2702E6hbf6RYj75x80f19RXq0cXCWjep51bCyp620OV5z60v8AHyKdznHGe/8A+ujBz24rsvc5LWGnqe2aaeFNOwOnOaZJkR9aHogS1L3h6HztXizng16NqT+VpzAHAxiuJ8GQeZqDSnnArrdflC2mP0rz2+aojvj8JynBJ9SakVugqPJHb/61OBBxXaInU55pc57U1RjBoxngUAeyObSYkiF42HG5Wz+lU3jO3nnI7c+taL/MSCh6D7p4pgtzknP44r5pyPahCxkvbllJKnPA6+1O02YwStBOgeF/lK9R+I/z3q68R78AHpVO7hyRIFAYdCKhSd7lzp3jY808c+Ff+Ef1JJbbJsLnJjGP9W+eUx/L2rlMDAGDx0z1Fe96nYReJvDU1lJ94rmMkfdkHSvCriM280kLA7lbB479/wBc17+Er88bM+dxVF05EBJPHUVHOSOM8VLgMcVDIN0gUDJJAxXRN2RlCLbOz8F24S38wjkmrviGQFlT0q/oFmLbS4yRjiuf1iYzX7YbgVyUlzTudfQoZHODyaVTjgjmm5JH3ulKpGa7RFhDyOakwpHJxUScjp+NKWz/AI0rDR7kig+gPtRIMA8dO9ORgOBUMjbs842nFfKs99RaZFLjbu78VVbByn41Zk+4OnXmqkhwSwBFSnqW4qwWJNpqO3gQzY3A9j/nj8a8x+IuinTtea6jQ+RdksR6PnkfqG/CvS5f3igj7wIIPpjmqPjjSxq/hifChpbcieJvUfxD8ea9HBVeWaPLxtJNaHiQXaGOSAP1qxpFp9r1SNMcAg1XlIAAGMZ/Kuq8G2IO6dh1r1K09Dy6cbHVXDi2088chePwrhppPNkZm7mun8Q3W2ARAnPSuU5wcjJzRh1bU3kAAUYNAPNI3FIp5roJLKYPIOPWnZ56cVGjY61JwfWkNHt455U1HKuBu709eBuzxSOQQcV8ryn0d9SNjgg9sZqtIwLY59qtEHYNwGaqyZH+6eKXLYdrkIIJ7f5//XV4bWt0WQ5WRNv0HQ/pWdMBH8w/h5qzFJ+4DfNwNvH5f1rai9TkxMbnhOo6a1prU9hvZmjlaM4XA4Neg6TbCy05RjHHNVta0bf4yluSB5coEgUdAT1/UVa1WdbayKBsHGMV6vPz2PI5eVs5rV7j7ReHBwBxWcfSns25ix5zTPlYHPQV3RjyqwhpAxzSDlsClc4603Pp3qyWWExjFSf8BqBc8e3FS8+uKQHtSsSnAPSpEZiMkcEdahXceOgNSLlVwelfL3PpGhW3FcAgmoWUtw2Oamwe3Q9aa4+X6VLY72KN2pdCq8AU22kG3YcA5GD6+1S3CkKcDJ61QhkAk28jPQDrmrg7MxrJOJFqaqzJJtHQ4OPu+v8ASuH1y6Ms+xTkDtXbeISLexaRG3KD36D6frXmkshlkZycE+9ezhI31PFq7jGwM9s9qYT0HY049M8Uw9CeMV3mIjDPDdaQEHp1of0puQRkdaAJk68dKkByORmoVYZ5PNTKc9qGM9sHA+9xSFzkYHemeaCO3amSTBQv1r5Ox9OWy2Rg0x2GewHqapSXOCcnC+tc9qPiEJP5KEntVxiTJ6HQy3UasQMufas1JA1wNqndnoRWbazTkEkEZ5zTlk3S7lOcdf8AGqtYxd2W9YtxqFmLIMUVkBJ65UV51dw+RcyxZyEbGa9Lv5/K0w3I5ZVwD39vzOB+Nea3qeXezJk8OetepgZty5Tz8TTSp83mVj060w9M5/CnnHPFNZh09K9M4CNuTnv6UmQTz1o4PIHSjr7UASr07fhUoUsOKhTA6jj19anDce5oYHqRugrA7uPShZvNVlzg5ribPW5pLhEOTjrk11emO025+M18tY+nUrlG9vJo3MUQJc8Cp9M0u3R0ku3XzW5x6VHqg8nDgDdmsuTxD/ZFq93NE0xIyQDyT9aqKMpu+p2NxJZxQN5kkcfGBuGKy44Fbf5bcEkjHQ1y1n43uPEnmLHaRwxg7fmbJrrtFU/ZgHx7AdBRLTchWauPlVpdHljAO4R5XH1rzzV8DVrtVOF8w8969IuXMD7R0YEHHvxXnGtc61eA/wDPUj9BXoZe7zOXFr938zP3EAk9fSmMc/LTxyfao3PNeueUNySOtJx60GkoESx4JqYYxg1FGACPepVYKOBn60MD/9k=;" vertex="1" parent="5de8GxAfkGyDar-mVyjA-194">
          <mxGeometry x="7.0666666666666815" y="6.80000000000003" width="27.199999999999996" height="27.199999999999996" as="geometry" />
        </mxCell>
        <mxCell id="5de8GxAfkGyDar-mVyjA-197" value="" style="group;aspect=fixed;" vertex="1" connectable="0" parent="5de8GxAfkGyDar-mVyjA-353">
          <mxGeometry x="50" y="108.10000000000002" width="40" height="40" as="geometry" />
        </mxCell>
        <mxCell id="5de8GxAfkGyDar-mVyjA-198" value="" style="ellipse;whiteSpace=wrap;html=1;aspect=fixed;fillColor=#F8F8F8;strokeColor=#d79b00;" vertex="1" parent="5de8GxAfkGyDar-mVyjA-197">
          <mxGeometry width="40" height="40" as="geometry" />
        </mxCell>
        <mxCell id="5de8GxAfkGyDar-mVyjA-199" value="" style="shape=image;verticalLabelPosition=bottom;labelBackgroundColor=default;verticalAlign=top;aspect=fixed;imageAspect=0;image=data:image/jpeg,/9j/4AAQSkZJRgABAQAAAQABAAD/2wBDAAgGBgcGBQgHBwcJCQgKDBQNDAsLDBkSEw8UHRofHh0aHBwgJC4nICIsIxwcKDcpLDAxNDQ0Hyc5PTgyPC4zNDL/2wBDAQkJCQwLDBgNDRgyIRwhMjIyMjIyMjIyMjIyMjIyMjIyMjIyMjIyMjIyMjIyMjIyMjIyMjIyMjIyMjIyMjIyMjL/wAARCABuAG4DASIAAhEBAxEB/8QAHwAAAQUBAQEBAQEAAAAAAAAAAAECAwQFBgcICQoL/8QAtRAAAgEDAwIEAwUFBAQAAAF9AQIDAAQRBRIhMUEGE1FhByJxFDKBkaEII0KxwRVS0fAkM2JyggkKFhcYGRolJicoKSo0NTY3ODk6Q0RFRkdISUpTVFVWV1hZWmNkZWZnaGlqc3R1dnd4eXqDhIWGh4iJipKTlJWWl5iZmqKjpKWmp6ipqrKztLW2t7i5usLDxMXGx8jJytLT1NXW19jZ2uHi4+Tl5ufo6erx8vP09fb3+Pn6/8QAHwEAAwEBAQEBAQEBAQAAAAAAAAECAwQFBgcICQoL/8QAtREAAgECBAQDBAcFBAQAAQJ3AAECAxEEBSExBhJBUQdhcRMiMoEIFEKRobHBCSMzUvAVYnLRChYkNOEl8RcYGRomJygpKjU2Nzg5OkNERUZHSElKU1RVVldYWVpjZGVmZ2hpanN0dXZ3eHl6goOEhYaHiImKkpOUlZaXmJmaoqOkpaanqKmqsrO0tba3uLm6wsPExcbHyMnK0tPU1dbX2Nna4uPk5ebn6Onq8vP09fb3+Pn6/9oADAMBAAIRAxEAPwDg1unXV1JxsZsVfnH2TWY5V+6V3VR+zsdRQbej5NX9RYSX6oDkqmOOwr1dloeW9R2tQi6hW4h6qQTiqV1LvSPI7VLpN1vllspjkE4XPcUmpRCO42jgDpQnca0KJ5NGBye46ClIBwQaVVLfKvfiqb3bHFF3T5hEikEDnj65FX5ZMXbr32nOOxqJPD880JdJkViPu/hTVtrpJFWddkoGP94mvGrTjKeh7VGjONO8jagK+WSw5IABFLK+EPJyO3tTLc7Uk3ZHz5UjpSiLzFlIPOOPeuWe520vhK5DAM68g8nJ6Vp6ZbLMoeXO0nAXPf2pIrQC2PmLk7aypNTa3PkRBlB4OBlj9PT61BaVjuks7JYigiDn0UZNcxqtv5c24Wu1CeNpzWDJr2s3c62Nn/oqEhSMEyOPrXc2+gReUm4yiXaN5Lnk4FU46XCMryseapqKlt2BuqCK7IumkfndUITGSBilMfNfR2PlrCS7hcCdOGDZOKtS3DXBDP2GAKhwSvvTh2ORkUWEwIx1p0GfPTaec4xTDnnHNKrBSrdD0z9OamavBoqm0ppsvJJqFhflkkZ1DElD3rYfUxd26tgBxzyBwR2pXWOaSznVQUdDyfUAVQ1G3jtCbmPgbgTuPfoK+fekj6uSvC/c0ZE+zYCuTEVyD7Vdso95Ax14OO1YkV+JYIYZN26NcFj0NbGmTbQuTwMDNEzOktDb+yCazkHm/KvTFR22jQ3ChgdsmeSe9aNq6tDIpAUHpinQQBBkMQe1ZJ2NLMktdKSFzI7x4A6qgDValLIAEU5PIz1xTUZvlPO736GnBjnBJJoc7lRp63PFQM//AF6UnnHFJzxmivqT48MleBRuz7Uh4pDRYLikkgfXrTc5BJGKU/pTTz7+tArm/o04ljhhYgmOXAz6MMfzqHWrd5VeMq3Hyg5xzWZazPDMrqvIPT+tdVeyx3dutyigxsPm9mHB/wAa8PF0+Spfoz6XL6vtqXK3qjAaJrcxhjk7MEnqa17SVhKCcbSSrfzrKuHErIOCFHDDuK0bQ+YmehHf1rnlsbx0djfs74jj09a14b1c7RyewNcyqt8pH6VZjnKuHXJxisXqbxdtzq7eYMoxzyasqw2g9c1lWc4KA8EdRV1pdvTpSsbWvseNH2o7U09QKOc+wr6w+HA54pGODgGlC5BYnmhiB1696TaQcrYnJoK4zSF/TilWOWdtsaliemBWcqqRapN7gzjp04wDW7plzI1kzoAwA2yxY6+jD0qOw8MXNywMoIX0NdA/hz7Fp0ktvuEqruKj+JRy3446fSuDE2qRPRwUvZT8mc7fwxxmKVDjcuCuO9SWk20kEdRTtRHm2YljwACOn8/yGarx4xv56jI+teda6PXlvodNYruQDGSDmormJoLgYbKt09j6VDpEx3KpPB+8a0b0B0XAGPWsnozWOpbsZOMH5R61aupGZVCnDD09KztPG47ScYGDWtGQOSR0xzSaN4ysjyTcPbNODcdj61qW/hq8lIyoWtm18GBj+9JJr6B1mfIKkch80oIQEkDpVu20e9uSNsZAPc16Fa+GbS3GdozWklrBAowoFYurKRqqaRxVh4PZvnnJNdNZaJa2oU7Rx7VbnvYYQRuAHpWXca4MFYxnNFpSKskbDPFbr2ArNudXRGwhzz0rIe4uLg/eK0qQ4OWyT61rCh1Y+a2xjanG8VvMyoTbucgj+A+h9qo2sm+PA7jn3NdayBkZCNwK4IxwRzXEW7GNihGGViCPxrjxVFU3zI7sPWctGbenyMrjkYzz7Vvg70w3pnH+e1cpby7ZWYdu1dHayBolYH/9VefJHoU2aFiu4fKMc81d2nnggA9aoWTFC3OcjIrUiQyqCzlRj9ai5rck82CEEnYAO1QS6xawqf3ik1x5N9Mx3uRmnpp5b77EmvoFh+7Pm7m7N4kQD92M1mS6rd3DYQMPekjsVQfdyKsJEF6CtFRigvcqLFNK26RuB1Ganjt1XnHNWNg7Ain4FaJJCsRLHzn0peh9BSmkJI4H40hIASCDjkc1xt/D9m1e5jDZ3tv9+eePzrr2b5SSwCjJJJ6DHP6CuAbVTq95d3KLtCyYj9kxgfyzXJjEuQ6cP8ZfSUB93AIGCK3rC53KoOAOlc5Iu5PMUY5/SrVhcHeV9+leS9T0qcmnqdbBIqTId+VIIx+NbwdRAjb8dulcQ900TK23HpXRWl8JLdWXBPQg1i0dKdyERkHnj607y8GpwgAx/OlC9q+nufNkOzikx71Lt9aYeOlADWGehpN30p1RtzQDEzTX7HmlPHNIAXIAOM4/woBHN+MtTFho7QIwE118i+ydzWJ4Z08XHhy/mx83nA4HooII/wDHv0rD8Qak+p63NKciJGMcak9FH+c123w5AbSLiJuR556+mBXnYiXM7G9P3Xcz7cF0K5znk0bWikDL2q9f2Q0/VZbdGyAdy+wxnFNKq4II+lcLPST5ldFuGSO6iCSfKQOtTWk7Wm5C3To3qKzYspKEBzk9atPGSATgnpUNXNFOx//Z;" vertex="1" parent="5de8GxAfkGyDar-mVyjA-197">
          <mxGeometry x="6.400000000000015" y="6.400000000000091" width="27.199999999999996" height="27.199999999999996" as="geometry" />
        </mxCell>
        <mxCell id="5de8GxAfkGyDar-mVyjA-200" value="" style="group;aspect=fixed;" vertex="1" connectable="0" parent="5de8GxAfkGyDar-mVyjA-353">
          <mxGeometry x="50" y="20" width="40" height="40" as="geometry" />
        </mxCell>
        <mxCell id="5de8GxAfkGyDar-mVyjA-201" value="" style="ellipse;whiteSpace=wrap;html=1;aspect=fixed;strokeColor=#004C99;" vertex="1" parent="5de8GxAfkGyDar-mVyjA-200">
          <mxGeometry width="40" height="40" as="geometry" />
        </mxCell>
        <mxCell id="5de8GxAfkGyDar-mVyjA-202" value="" style="shape=image;verticalLabelPosition=bottom;labelBackgroundColor=default;verticalAlign=top;aspect=fixed;imageAspect=0;image=data:image/jpeg,/9j/4AAQSkZJRgABAQAAAQABAAD/2wBDAAgGBgcGBQgHBwcJCQgKDBQNDAsLDBkSEw8UHRofHh0aHBwgJC4nICIsIxwcKDcpLDAxNDQ0Hyc5PTgyPC4zNDL/2wBDAQkJCQwLDBgNDRgyIRwhMjIyMjIyMjIyMjIyMjIyMjIyMjIyMjIyMjIyMjIyMjIyMjIyMjIyMjIyMjIyMjIyMjL/wAARCABuAG4DASIAAhEBAxEB/8QAHwAAAQUBAQEBAQEAAAAAAAAAAAECAwQFBgcICQoL/8QAtRAAAgEDAwIEAwUFBAQAAAF9AQIDAAQRBRIhMUEGE1FhByJxFDKBkaEII0KxwRVS0fAkM2JyggkKFhcYGRolJicoKSo0NTY3ODk6Q0RFRkdISUpTVFVWV1hZWmNkZWZnaGlqc3R1dnd4eXqDhIWGh4iJipKTlJWWl5iZmqKjpKWmp6ipqrKztLW2t7i5usLDxMXGx8jJytLT1NXW19jZ2uHi4+Tl5ufo6erx8vP09fb3+Pn6/8QAHwEAAwEBAQEBAQEBAQAAAAAAAAECAwQFBgcICQoL/8QAtREAAgECBAQDBAcFBAQAAQJ3AAECAxEEBSExBhJBUQdhcRMiMoEIFEKRobHBCSMzUvAVYnLRChYkNOEl8RcYGRomJygpKjU2Nzg5OkNERUZHSElKU1RVVldYWVpjZGVmZ2hpanN0dXZ3eHl6goOEhYaHiImKkpOUlZaXmJmaoqOkpaanqKmqsrO0tba3uLm6wsPExcbHyMnK0tPU1dbX2Nna4uPk5ebn6Onq8vP09fb3+Pn6/9oADAMBAAIRAxEAPwDQjBUMc9elV7k/us5q44xv4qjcn5MEV0xd2cclZHO6zBJMibOeaZpdpIsoLJjitNiT1Q4FTWzFW+4fSt1Oyskc/Im7jbOxK3vmY4q9qKnyjj0rStIAY84wTUN3ACOc9Kw9o3K7N1RSi7HJy5FnN64rl2YBSOnJrsb2E+XKFBJNcwdNuGV8rnJ4rqhNbnM4taG3pn/HiK6awlLWirjLVhafbtHYiNgc10Wn2+1F57VlVmmi6UHe5JeE+Rg/SvO9VjmN+xCE9cV6XdR5Tp2rmbuJRMflyfWooza2Na0OpS0VH+zAOMHNdFAcKQaoWkYxtAwPWtSKPAwBmtJy7mUIGm0Az0+tQS2qt1GasmWM/wAS/nSF4+oZefeuNNo77JlD7CvpUqWSAZwKsh0H8QpwkT+8KfMwtHsKiBQPSo5o93AqYSr/AHhimtIh7ipuPQy5bIE5xmoRpybiNta5ZMZzTdyeo5qlJk8qKUVkAMYGM1fhi2DA9KVWXruFSKy8ktSbBRQyVMrWe9irsTitQsvXIphK9MihNobVyhHZKnQYqcQD0qb5fWnZBANF2LlR5IPEOodQ4oHiO/z8z9KqLp0zOUAGfSlOmz9Am6vQ9lA4/asujxHf9Mj3pf8AhJL4Hg1mS2skRAbqe1Srp87DIUmj2UR+1ZfHiW+67vwzQPE19nOf1rN+zv5gXo3Q1IdPn7qaPYxF7Vl7/hJb49efxpV8R33vj61mx2cjoSFJxxQbKboEI/Cj2MRe1kag8S3o/wD104eJr4f45rKNpNtyVIwfSmpbyOCVBNHsYj9qzY/4Si975/OmnxRe5PUissWkufuH8qaYGQ4JPFHsYgqzNg+K7wDGM08eLrvuG/OsHyWIGOTR5J74zR7GIe1ka2l3ZeS6umA2jpVzw/d/bZLjeowrcVlqPs2hgY5k5P41c8IqAbgAc5qiJbNlHV5WN1IAuAvStvRpVm0cyMvOOtUL3TTLcyHf1rV022NtojpnPFHUhvQ5W6uGW7EgHG/FdPeyCLRhNt+8K5S5XMoB/wCen9a6nUx/xIolwelHUcuhiDUktLBcAlsZOPetu1lWTR2uNhJC5rj5UYR84wK6yxH/ABTZB/u0K9xyskjOttUjuIJ0bgjOM9am8NyC4mljkXlawlQxu5XAz+tbnhVSt3N6g0ahKyjdDL/VFtL8xlTtzSX0iSskiY560uo6W9zqLMcbc1SKlGZPQ4pq9wa0AtxzTJG6YFP6AdMelRvyPaqYkWtUYKUhXJCDn+VXvCuFW46jk1j3Ehknkc9zW54c2QQyMzgFs8VHYctUY2o3t0l5IFbgE4rotHmkn0J3kIJ21z+qQAXLMpB3eldBpKRw6IYt67ivNFtRSs4nL3AzOOud4/nXU6rxosY9hXNtGWvVTcPvZzmuk1Mo+mJGHBIGcCn1FJXscrOAIzn0rp7Xjw8OP4RXOOm/92CAx6ZrqIkCaN5W5dwGOtHUJanMFAe2a1fCxxczHNZsoMZIPb0rX8OQmJ3kdlAb3oYPYqXmpSRauyFRt6Zqo7b5WYDrzmruoae0987qwAJpl1Attbom4E4pLcdynkdaY3HzN0PSnNjPp7UMQOW79Kt7AQsp24J+tRrPPHwjkYqfHTvTfL5qXEpMbI7yodxO7+9Qt1cJhVfCjtUgTAODSeSOueRRYLoidn3iRWG7vUkdzcHhnyvSnFAeMYoWMr09aOXULqw2XIIZSAw/UUq311wu4Y6Yp+wkYyPrSCEAn260WuLmQOxkQknn2qNL24h4UjGKl2kgc8VGYc/Wm0NSVhf7Qud3P86kM7zkFzzUYg/HFPVdgx1NCiEvIcM56VHKC2APrUmfz9qTblvwqiUNGe/40DPtV826SXqRAYBHNV7lBDKy9cVKeo7EQz0460Z6/pV2OFVt0fAO4impGjagIsfK3ajmAqhRzzmlA45q3eW6Q6gkIAIJxzT9Tt47SNWQdcZp3QkihSkds1fFsj2Pn457VFp0K3krRuBwM0XDUqn6dKXA9ecVLcR+ReiPOQTirEtsDcrGh27up9qObUCiSMYwc+pNLg7ST/Kr0ttFE4jK7u5yepqIW6ee4GcDpk0XQWZW6DH4dKTIUZLYB6CtM2MQiRsfeqBLMSyuFOFHahuwJXP/2Q==;" vertex="1" parent="5de8GxAfkGyDar-mVyjA-200">
          <mxGeometry x="6.396666666666704" y="6.399999999999939" width="27.199999999999996" height="27.199999999999996" as="geometry" />
        </mxCell>
        <mxCell id="5de8GxAfkGyDar-mVyjA-203" value="" style="group;aspect=fixed;" vertex="1" connectable="0" parent="5de8GxAfkGyDar-mVyjA-353">
          <mxGeometry x="220" y="105.60000000000002" width="40" height="40" as="geometry" />
        </mxCell>
        <mxCell id="5de8GxAfkGyDar-mVyjA-204" value="" style="ellipse;whiteSpace=wrap;html=1;aspect=fixed;" vertex="1" parent="5de8GxAfkGyDar-mVyjA-203">
          <mxGeometry width="40" height="40" as="geometry" />
        </mxCell>
        <mxCell id="5de8GxAfkGyDar-mVyjA-205" value="" style="shape=image;verticalLabelPosition=bottom;labelBackgroundColor=default;verticalAlign=top;aspect=fixed;imageAspect=0;image=data:image/jpeg,/9j/4AAQSkZJRgABAQAAAQABAAD/2wBDAAgGBgcGBQgHBwcJCQgKDBQNDAsLDBkSEw8UHRofHh0aHBwgJC4nICIsIxwcKDcpLDAxNDQ0Hyc5PTgyPC4zNDL/2wBDAQkJCQwLDBgNDRgyIRwhMjIyMjIyMjIyMjIyMjIyMjIyMjIyMjIyMjIyMjIyMjIyMjIyMjIyMjIyMjIyMjIyMjL/wAARCABuAG4DASIAAhEBAxEB/8QAHwAAAQUBAQEBAQEAAAAAAAAAAAECAwQFBgcICQoL/8QAtRAAAgEDAwIEAwUFBAQAAAF9AQIDAAQRBRIhMUEGE1FhByJxFDKBkaEII0KxwRVS0fAkM2JyggkKFhcYGRolJicoKSo0NTY3ODk6Q0RFRkdISUpTVFVWV1hZWmNkZWZnaGlqc3R1dnd4eXqDhIWGh4iJipKTlJWWl5iZmqKjpKWmp6ipqrKztLW2t7i5usLDxMXGx8jJytLT1NXW19jZ2uHi4+Tl5ufo6erx8vP09fb3+Pn6/8QAHwEAAwEBAQEBAQEBAQAAAAAAAAECAwQFBgcICQoL/8QAtREAAgECBAQDBAcFBAQAAQJ3AAECAxEEBSExBhJBUQdhcRMiMoEIFEKRobHBCSMzUvAVYnLRChYkNOEl8RcYGRomJygpKjU2Nzg5OkNERUZHSElKU1RVVldYWVpjZGVmZ2hpanN0dXZ3eHl6goOEhYaHiImKkpOUlZaXmJmaoqOkpaanqKmqsrO0tba3uLm6wsPExcbHyMnK0tPU1dbX2Nna4uPk5ebn6Onq8vP09fb3+Pn6/9oADAMBAAIRAxEAPwDycH1NTgkqRnrVZW61MOV4617VjAzZzmU1HmpJ/wDWHFM9Ku4CGlHNBpBxQMd0FWLUbpVUetVuSa0NLgM10voOTSnPlg2xpXasdZpzhLgqONy4rM1n93Kso6x4zTor5Yb2Ln5d3NLrY2Anqm08+tfMSv7S56XQ6LQ7zKxuDwVya6WSXzSqA4HevOfDl+Vt1BP3ePwrrIdRV5Bhqxqw1OulU90uXNmZZcAAr1psnhzcA0U7KD2BrRt5Q4B4IJrWjiGTkDbj9azTsdCjfVHz4LgrwVyKsxyo/RvzqnimhSD7+te7DESi9T5xxuOm/wBbntUfSnEZ+tNPSvQp4iNTYnlYnWgc0Z4oFa3FYUDJrpdJt9lhJNjDEYFYVtEHkAfp3rrraM/YlVRxzj6V52NxFocqN6Ubu5z1zLk4Uc7gfyrVvWa60csMZCc4rJvR5UysRxyaXTL/ADI8Dk7WBPNeW43SZ0KQ7Sy0dnG4z15rTjvXRgRkA1DbRK8JEY6mlMZQ7W7dKTtI3jdHZ6VqqPAisRuBzXTxXwdOGGOua8pgmeFsg4rbttadE2l+lYukdcKllZnA8ZooI+YZpcV6B4gwimlakxSd6aAiIPpQDjrxzTypFC5IZTg89a6qeJcdJEtdixBINwHeuvtzi2QE4O3muSsliVi0rdD0rpVm3R/KeNvFY4x3SaNqXU53WHDXO1fuqMVVsCqzszHtU94GMm4jqaoFyjkp1JrmUXYbeqOx06AiJSverc9mWTOBkVNYW+21iIznYK11hDRggA49a5G7HpQjeJy7WrkdOaYYJY8DYTXS+QuWBXHpVlbZMDKg8UuYrlPLBS0nalzxXonjCdOlIc4p1JQA3FNQDcx96k7VHH/F9aQIM7XJrobC5UhA33SuM+9c6x+Y5FalhdW6abPHMTvxlfrXW4qpTshRlZkOpOBIUU9aq2Nu1xfwoBuGdze1R7jIwY5JNbvhcE30kZAwydccilKjyUGyoPmmkdtaW4FqgPbjpVyKErxjg1JZwn7N0yKuwRjowrwWz3ILSxlTwlJVODjNaJtgYlK8fhU17al4cp1HeltZEeIKx5UetJlWPERkmijNKK9Y8AKM0Uc0AJ3pkRyh47mnNxn2pkH+rpAK3U8U0HPHFIzANnml64wK7sE9XFmUxU+9XReFFzqm3ByyHtXOKcGup8EJHceKbOGS4WBJNy726A4OP14/GuzEw5qEkh0Xaomek2kGyNQevvU0se0g4qxFGJIVY5VucjuDTnjBjCnNfHt9D6GDTVwiYPGVIzVGe0jDgnKg+lXbfAbZmrMkQcAEZ7jikWj56pR0zSD3pfxr2D58B3pD0paDxQA1/wDVn6U2LIjUj0om/wBUx9qIyPLHsKBDSCW5pc5FLnJ71FJIVT0ya3w1RQqJvYUk2tCYfLxV3TJjBqNvKr42ODn0OeKx2uOnzH8KtQPhepJPSvUpV1WTjYxceRqR79bXsdxCBOyxXGM7sYV81NcM9tNFBIPmkwqY/irK8Ost/wCHrOV8NhQCfp2q+9hDI6ZLfuzlDu5BBzXydVKE3GW57tNe6mmSxJkuChG1irDuCM5/lVvaNuSSAOBTbQSxBwr7lZ97B+ck/wD66ueewdnaOHcffisrRfU0cpp7HzVS5ptLXrHjC9s0meOaB6Uh4BoAjuP9UwFOVtsa59KZKfk/EfzqQqCvNK4hhOeQT+FNdRIpU808jHSmnggiqW6AiWAZwBzUy/J04pxwMe9MfqCO1e9SpqEFJdTB6ux6b8NtYUxy6XI+CP3kQJ7dxXoAG58DpnrivAdGv5NP1KC6jJ3ow79a96tLj7TZxTgYEqhyPcivAzehy1edbSPWwNXmjyMmDleoxg9aHnU/KeQKidcn0BNNByDjscV4j3PQSP/Z;" vertex="1" parent="5de8GxAfkGyDar-mVyjA-203">
          <mxGeometry x="6.399999999999996" y="6.399999999999939" width="27.199999999999996" height="27.199999999999996" as="geometry" />
        </mxCell>
        <mxCell id="5de8GxAfkGyDar-mVyjA-206" value="" style="group;aspect=fixed;" vertex="1" connectable="0" parent="5de8GxAfkGyDar-mVyjA-353">
          <mxGeometry x="205" y="25.600000000000023" width="40" height="40" as="geometry" />
        </mxCell>
        <mxCell id="5de8GxAfkGyDar-mVyjA-207" value="" style="ellipse;whiteSpace=wrap;html=1;aspect=fixed;" vertex="1" parent="5de8GxAfkGyDar-mVyjA-206">
          <mxGeometry width="40" height="40" as="geometry" />
        </mxCell>
        <mxCell id="5de8GxAfkGyDar-mVyjA-208" value="" style="shape=image;verticalLabelPosition=bottom;labelBackgroundColor=default;verticalAlign=top;aspect=fixed;imageAspect=0;image=data:image/jpeg,/9j/4AAQSkZJRgABAQAAAQABAAD/2wBDAAgGBgcGBQgHBwcJCQgKDBQNDAsLDBkSEw8UHRofHh0aHBwgJC4nICIsIxwcKDcpLDAxNDQ0Hyc5PTgyPC4zNDL/2wBDAQkJCQwLDBgNDRgyIRwhMjIyMjIyMjIyMjIyMjIyMjIyMjIyMjIyMjIyMjIyMjIyMjIyMjIyMjIyMjIyMjIyMjL/wAARCABuAG4DASIAAhEBAxEB/8QAHwAAAQUBAQEBAQEAAAAAAAAAAAECAwQFBgcICQoL/8QAtRAAAgEDAwIEAwUFBAQAAAF9AQIDAAQRBRIhMUEGE1FhByJxFDKBkaEII0KxwRVS0fAkM2JyggkKFhcYGRolJicoKSo0NTY3ODk6Q0RFRkdISUpTVFVWV1hZWmNkZWZnaGlqc3R1dnd4eXqDhIWGh4iJipKTlJWWl5iZmqKjpKWmp6ipqrKztLW2t7i5usLDxMXGx8jJytLT1NXW19jZ2uHi4+Tl5ufo6erx8vP09fb3+Pn6/8QAHwEAAwEBAQEBAQEBAQAAAAAAAAECAwQFBgcICQoL/8QAtREAAgECBAQDBAcFBAQAAQJ3AAECAxEEBSExBhJBUQdhcRMiMoEIFEKRobHBCSMzUvAVYnLRChYkNOEl8RcYGRomJygpKjU2Nzg5OkNERUZHSElKU1RVVldYWVpjZGVmZ2hpanN0dXZ3eHl6goOEhYaHiImKkpOUlZaXmJmaoqOkpaanqKmqsrO0tba3uLm6wsPExcbHyMnK0tPU1dbX2Nna4uPk5ebn6Onq8vP09fb3+Pn6/9oADAMBAAIRAxEAPwDw9qjbgVI45qNulWA8jKD6Ui9aU/6sfSmrxQIdxnFb8P7zwjL83zJJyPbNc/61NFcSRwyQgnY/JFS02xp2IcmlFJilFbLYhi9qTtRRQAGkFL2pO1IDV8OaVFrWvW9hNLLDFJuZpIY97qAu7Cr3PGMVq+MvCtj4bitrnT9Se/tpXMbedD5bK21XVgO6srAg/WmfD0yr44sGt2RZgJDG0hwoby2xn2rp/ipfXt/oeny3sGnwvFePAILSUOI9sMWQxwOc9uwNS2xo8ybrTGp7daYakZJ/APpTF61IfuA+1Rg80AO70nQ5p2aaetMBc8UUUVoSBORSUopByaACjvQe9FIfQ6PwGobxpp6sFMbl1lLPs2xlCGbPYgZ/HFdF8R44R4V0u5jiuFM99NlprL7MjhY41BRNx7DBOeSDWD8PZUj8d6VvQSb3ZBGw+VmKEAN/s5xmt74jp9l8L6JZPA8Mjzy3Kxpc+eqKyoCA3b5lbj6HvUS3Gjzsgnmm8ipRDK54QketHkyA4K0rofKNP3Oe2KZ3q2LZiOhB45pstrJETuGcdxRdBYhPWk6c0pBwOOtDDCj1ouJobS8UlLWiJDp0pO9LSUwDtR3o7UpNIDc8HalaaR4qs728Li3QOsjLH5hAZCv3e/XkVreNNa0jUfD+naZpcokaC5kmdUtPs6oCiKBgkk/dP4Yqp8O5Fi8c6c7uFVBKxYvsC/u253YO369q3virEi2djM8cU93JOxfUYrcIs6+WmF8wH96V67sDO7pUMaLy6TaIBiNeecVDcaVaMPlhUk9cDpVsX9tJ1yvOAakYZ+dDleuRXm88j0OWJz7aRERiMA4H3TWbJp299uCpz0NdPcR/JvjOGFUZG85BMF+detWpszlFPY55tH28Z5PSqF3pzovTkV2L+WYVkP3mHSsa7JHQfga1jNmbgcrtK8GjitC6hDZZeD6VQwQa64SujCSsNPFJTjjHFNqyQ7Ud6XtSHOaQjpfAKlvGlmqW32pikwFt/wA9j5bfJ+PSuj+KNpNa+H9Jne2WyhmupfLsl+ZFxHHyD6j7n/Aa5zwIF/4TGz3yvEmyXdIi7mQeW3zAd66D4lPK+h2azahcXs63rK8k9mLf5RBEEKqCcgjnd3rN7lommnt2JyoDDg46U2K6MByhyvceornTdNsDp8y45BpBqG3kE7fQ9q4uQ7Wzo5ruPK7T8h5+lMilUSsDyDXNm5cHAPynkUpu3CAgnPejlFc1bybyDtXgBzj6VG0PnQ+Z8xGOtY11dSSYBycHOa2dP1FEhEcgJ9qdrISepjzxjzSquQfeqE1scZHautubW2ussg+b2rJuLExYdcuB2rSM7Gc4XOeIwcdKaOtXr6FQQ6c+oqj3rrTurnO1bQKTqKOaO1MTOk8ATw2/jfTHnTdGWdSpGQdyEAMPTPX2rp/itbz2mnaUksbx26SyRyxzS75jcBUyd/8AFGE2KnsK574bgt4/0sKquxMmFdtqsfLbgntn17c1s/EFUh8DaF5YhKm9uMvFdtcrIwSME5YArggqB6ColuUiFtBZ24Qj6dKz7jQZ0ZSqttPWvWY7OIL9zt0pW0yGXqoxivK+sHr/AFfQ8jGlS4GAelTwaRI6ncO1enf2FAM4FNbSIliYBQD64qvbE+wPMJdMTeFyRjrmpLixFuUdQSpHJFdLqunCOQkrj3qlBAJSYXOY34U+hpqVzKULMyQGQDOQD91h60C4UuY5RiT17GtBrfyiYXGe2DVC7tDsHbJ+R/Q+hq00zNmbqdr+7LovGORXOsAG4rroZS6NFL95eornNQg8i5ZQMDqK6qUuhz1I9SmaSnZFIRkdK6TE6TwAIW8ZWQuEke3KS+YkXLlPLbIX/a9PpXTfFR0l0rTyt59uLXLmW4MHlFiIoxHiPoF8vb82eTngVyvgm2a78ZadGtzJbESM4miOGXapb9cflmup+J9/Pf8AhvS5ZXt2SO6aKMwsdx2wRZL5A79B2FZspHpKIcfNUqr/ABCpIwNoOKeox0rwLH0PqRYA4pu3oT6c5qfZkZ70xgSDk09g0MTVbATQtx24rkYVMd0YW4J6Y9a9DuEUIQRmuJ1aHyb9XU4zya2g9DCpEW7txPCsgUAuBg/7Q61lLEkqGKQDa/H+6a6GBFkilRv4fnXHbNc/rB+yapLGvRgjjHbPWtEzlZhXcL29wdw+ZflY+3Y1Q1eISWwlA5HWt69P2q1WU8MBtb3FY7DzIHQ+4ropuzMai0OazwKSlORkehxSV6C2uclrHUfDvjx3px+7gS87iuB5TdxnH1re+JE7T+ENHZpfMT7ZN5bLK0oceXHk+YwDPg8cgY6DOK5bwbatdeKrKEXtzZEF38+0OJE2oWJU+pxiuh+JmjTabb2N7ea3f6tc7zAxvOQilElXbyccPg+9ZyGf/9k=;" vertex="1" parent="5de8GxAfkGyDar-mVyjA-206">
          <mxGeometry x="6.3999999999999675" y="6.399999999999939" width="27.199999999999996" height="27.199999999999996" as="geometry" />
        </mxCell>
        <mxCell id="5de8GxAfkGyDar-mVyjA-209" value="" style="group;aspect=fixed;" vertex="1" connectable="0" parent="5de8GxAfkGyDar-mVyjA-353">
          <mxGeometry x="280" y="108.10000000000002" width="40" height="40" as="geometry" />
        </mxCell>
        <mxCell id="5de8GxAfkGyDar-mVyjA-210" value="" style="ellipse;whiteSpace=wrap;html=1;aspect=fixed;" vertex="1" parent="5de8GxAfkGyDar-mVyjA-209">
          <mxGeometry width="40" height="40" as="geometry" />
        </mxCell>
        <mxCell id="5de8GxAfkGyDar-mVyjA-211" value="" style="shape=image;verticalLabelPosition=bottom;labelBackgroundColor=default;verticalAlign=top;aspect=fixed;imageAspect=0;image=data:image/jpeg,/9j/4AAQSkZJRgABAQAAAQABAAD/2wBDAAgGBgcGBQgHBwcJCQgKDBQNDAsLDBkSEw8UHRofHh0aHBwgJC4nICIsIxwcKDcpLDAxNDQ0Hyc5PTgyPC4zNDL/2wBDAQkJCQwLDBgNDRgyIRwhMjIyMjIyMjIyMjIyMjIyMjIyMjIyMjIyMjIyMjIyMjIyMjIyMjIyMjIyMjIyMjIyMjL/wAARCABuAG4DASIAAhEBAxEB/8QAHwAAAQUBAQEBAQEAAAAAAAAAAAECAwQFBgcICQoL/8QAtRAAAgEDAwIEAwUFBAQAAAF9AQIDAAQRBRIhMUEGE1FhByJxFDKBkaEII0KxwRVS0fAkM2JyggkKFhcYGRolJicoKSo0NTY3ODk6Q0RFRkdISUpTVFVWV1hZWmNkZWZnaGlqc3R1dnd4eXqDhIWGh4iJipKTlJWWl5iZmqKjpKWmp6ipqrKztLW2t7i5usLDxMXGx8jJytLT1NXW19jZ2uHi4+Tl5ufo6erx8vP09fb3+Pn6/8QAHwEAAwEBAQEBAQEBAQAAAAAAAAECAwQFBgcICQoL/8QAtREAAgECBAQDBAcFBAQAAQJ3AAECAxEEBSExBhJBUQdhcRMiMoEIFEKRobHBCSMzUvAVYnLRChYkNOEl8RcYGRomJygpKjU2Nzg5OkNERUZHSElKU1RVVldYWVpjZGVmZ2hpanN0dXZ3eHl6goOEhYaHiImKkpOUlZaXmJmaoqOkpaanqKmqsrO0tba3uLm6wsPExcbHyMnK0tPU1dbX2Nna4uPk5ebn6Onq8vP09fb3+Pn6/9oADAMBAAIRAxEAPwCnHo+oW8oIl3DoM1cgin83ZJtB710whXacj6VTNukpeTGCD19a8tyZ9C72tcqpZxmdJCgB5zVu4OwEDG3FRysAuQO4IFU7i4OSM8ZqN2TsVrohUbHXNUtH17+y/FloFnWJXRkkYjOFaq+pX6QozFvlAya8xvNRuJtSmuRIybuBg44zxXVSjqceIqJKx3vxD8QT6pqkGnCcSW9nvPTne/XJ71j6VDhGHUkE5rBtzLITLJIzSORksev+RXT6MhaOR/4QMCtZ6I5oGkoCLAo6CMn9BXLX/wDq5D/t/nzXUTkrc7BxsiI/z+VcxdEfY7gtzj5h+dTTQTOZlOZHPqTTccUHliTzmk713x2ON7iHikpTzSUxH0kl1975sjGBioZbgpDzwOtcnBrihRufH41Jda2rx7EJPFeO6dj6JyTNY3oJwTwOlUrq5CocdMVix3spkJP3aspuvJgo5UcmiMbGbbMjxAWGiz3DHBchR9K4bB3AkZ57/Wu+8c4g0i3t14LP/KuHtyGAyK6aW1zgrr37Mt2iFjuPRRxXbaLbFLHLdZOfwrmrCxL3MMIPLHJHtXazBbW0wv8ACu0VNSXQmmrGbK6vdzP/AAjIrnb6MpY3PH8AFbMshigLHu6rWfq4ItZffAApwdhTZxRPApucdaUfypD3zXorY5HuJRR2o5PSkxHoNva+aCf4vTv+VaFnb5QZHIPNaK2fkzpKqDaTzVmayKSMUwFccV5Dke8olGWKNV6Dj9a0dLtNo3FR83PXtVeG1MkoyCQvWtyGIRRgEYwO1F9ClE87+IkxN1ZwDPG5vpzXOaXbs0oZkJXsK7DxXYf2lqSt1RVxn8aj0+ztbQKWbcw7CuiEkoWPOqRbqXLmjaebdTczH52+77Cl1G5D/IOfT61LNdAR8cDHyisiS9j8wkEM2OMetZpXeo7pIfc42RxDkr87e5q1baTJqtw0C9fLY8+uMViafI88siMSSXGK7K3uDomhXWrkdGCL64q0tSJbHlmr6Ld6LdGC6XB7Ed6zcHmt7xH4kl8QzrJImzA61hZFd8L21OOW43HFG2lakzVMD6AMIeJRtw4FCxsECOnOanICkMD9ae0iyLnJ5HNeEfRWKwjVWG0cA/nVfU7k28DMDjjtWgqDHHLVXuLNJFw4yx7U0HQ4a6udzF8goTyM9KpNqUMJYLtGPXrWh4k0B7eCa4gbbgEk54xXAF3cZZsk+veu7D0XU2PNxM/ZyOjutTa4QiNv/rVHIgWGO4X+MYOPWsa2uvKkG8HB61pLdJc2jRr91SHGK1qUZQdrHOp8yua+meXbxyXLkAFs5PtS3PiVb3wdf2rEBxN8o9sj/GuevdRaSH7MmQgU8Vj722lc8Hr78ilCHVkuelhAu7tmk71oabbxyW93K7cKmFB9az+9dEWYsDSUE0Y96oD6D+zjbw55ojtCw5k4P6VcltdgylVo8pKQRweo9fpXhH0pYREiGMHPc0Ku6QADipYxlcjJ9KXO1QeMk4+tIhtIzdRsluEW3OR5rbCwHIBPX8smvDZ41juZUXlFkIUnuAcZr6DmAghaZgfN2lIU7g4xn6da8N8QWwttcuIgMBSMV7WV29pY8nGy5lcymU81LBL5RJPcEfhTTmmYr3atGMtzzlNoa5LOW71C0NT8YpK55YSNtCue5DHvBK5IU8kCm9zVjA7U0oCpAFc8sJOO2ocxXJ5pc09osEUwqR2rnlCUd0Unc+mpAw7VCIGkOQuehJHbPpVqdmkQBQIyrZ3CktWnt/McFS8pLN6D0wK8Gy7nvc8rbE0FhK0QkwFjzgk9uapXkAkZ4Y/3gJQiQ/w464+tXDJK0ZSSZypOdo6daTb8vAA6YA4ocorYjllJ+8UmiJVt7FmK4Zz2+leLeLht8RXOcDOMV7jNgRt6YrxDxkQfEU3A4UV6mUvmxGpy41KNLQ5uWQqxGevQ1F537z73FWWjVx9Kh8oYxt5r3q1Gq53izyk0HnrnqKTzR6ijyRn7opfJXHTmo9lX7lXQvmIRyRTWlGOCKBCvcU7ylPQChU6/cLob5yhSeppCwJziniNfSl2elDoVHuw5kj6PEoORn/CjzW5PH4UwJvHofWpBEAcZr42x9K0NE5GAOop/m7x1NO8nHHGMUwrxuXgUvd7ktDbpsWzN14rwnxFP52uXj5yofaD9BXrXi3VTo+iPMilpGHyegrxWV2kkMjHLNyfrX0WS0vfc2eXj5q3Khgznig8jI60ik8+1P9xX0y2PIGkEcU3sc9afkqeKM9j3qWihhAxzSYxTiAeKQ9z7VDQ0xOv1pRQBQfalYZ//2Q==;" vertex="1" parent="5de8GxAfkGyDar-mVyjA-209">
          <mxGeometry x="6.399999999999996" y="6.400000000000091" width="27.199999999999996" height="27.199999999999996" as="geometry" />
        </mxCell>
        <mxCell id="5de8GxAfkGyDar-mVyjA-212" value="" style="group;aspect=fixed;" vertex="1" connectable="0" parent="5de8GxAfkGyDar-mVyjA-353">
          <mxGeometry x="260" y="158.10000000000002" width="40" height="40" as="geometry" />
        </mxCell>
        <mxCell id="5de8GxAfkGyDar-mVyjA-213" value="" style="ellipse;whiteSpace=wrap;html=1;aspect=fixed;strokeColor=#330066;" vertex="1" parent="5de8GxAfkGyDar-mVyjA-212">
          <mxGeometry width="40" height="40" as="geometry" />
        </mxCell>
        <mxCell id="5de8GxAfkGyDar-mVyjA-214" value="" style="shape=image;verticalLabelPosition=bottom;labelBackgroundColor=default;verticalAlign=top;aspect=fixed;imageAspect=0;image=data:image/jpeg,/9j/4AAQSkZJRgABAQAAAQABAAD/2wBDAAgGBgcGBQgHBwcJCQgKDBQNDAsLDBkSEw8UHRofHh0aHBwgJC4nICIsIxwcKDcpLDAxNDQ0Hyc5PTgyPC4zNDL/2wBDAQkJCQwLDBgNDRgyIRwhMjIyMjIyMjIyMjIyMjIyMjIyMjIyMjIyMjIyMjIyMjIyMjIyMjIyMjIyMjIyMjIyMjL/wAARCABuAG4DASIAAhEBAxEB/8QAHwAAAQUBAQEBAQEAAAAAAAAAAAECAwQFBgcICQoL/8QAtRAAAgEDAwIEAwUFBAQAAAF9AQIDAAQRBRIhMUEGE1FhByJxFDKBkaEII0KxwRVS0fAkM2JyggkKFhcYGRolJicoKSo0NTY3ODk6Q0RFRkdISUpTVFVWV1hZWmNkZWZnaGlqc3R1dnd4eXqDhIWGh4iJipKTlJWWl5iZmqKjpKWmp6ipqrKztLW2t7i5usLDxMXGx8jJytLT1NXW19jZ2uHi4+Tl5ufo6erx8vP09fb3+Pn6/8QAHwEAAwEBAQEBAQEBAQAAAAAAAAECAwQFBgcICQoL/8QAtREAAgECBAQDBAcFBAQAAQJ3AAECAxEEBSExBhJBUQdhcRMiMoEIFEKRobHBCSMzUvAVYnLRChYkNOEl8RcYGRomJygpKjU2Nzg5OkNERUZHSElKU1RVVldYWVpjZGVmZ2hpanN0dXZ3eHl6goOEhYaHiImKkpOUlZaXmJmaoqOkpaanqKmqsrO0tba3uLm6wsPExcbHyMnK0tPU1dbX2Nna4uPk5ebn6Onq8vP09fb3+Pn6/9oADAMBAAIRAxEAPwDr1jG3OMCozPBCP30qIMZyWrxW68ca/dKVa9MY77R1rFnvru4ffLdSuc5yzmt6eRTfxysdcsyj0R7nc+I9Es1ZZtQhBHPyc5rnNR+JGlW4K2sUlw/QegryfIJztGT3PNB4HQehwOtd9LJaEXeWpzTzCctjR1/X77XbgSXUg2g/LGvRRWWcDnHakk/1gX0pTivRpUoQuoqxySk5atiY/AelLz07UdqOc9a2RAhoxzS4o6igBAMnrTT98/3RxSk7QTSL0HepkNCg8dOaQj3paT8KTHclOeeetKfYZ+tNAzjj8acOOma1V+pAp6YxSAn1zRnIpOccGqewdRi8ysfSl/lTY/u5PenAnoRxWcdVcbFpDmjGe1LnnJGadgQnNJ7dqUqR0o6KTUgMf72O1JjHTijbgc0uPf6VJSAUMSO1OA496jJyaUgSJc8cU7I4HbuKTFKBjmt0Q0KG7mmSH5TinYApkoyQMUTdkC3HDAUClAz1oxSkEDrSitAbG/xYopc8YPNJnBxQCE4z1prAE47L1pxO1QcdaTHvUWKE6ijjNGM0gHOaQxw96i6VKeCD6VGwAJ3HvUyAnbpkUgPFOQbhjvTRjIB5NbrYi44kDgjI9ajHzTY9Bmn8YNMi43E9DxmpqPWxSH9+OKd14pKKolidB15pMdT2NLjLYpGOcL+dJiQ3JYhs/QUAe3Sl7c8UUrF3EPTPekIOMZpce/FLnmpAQdT6VG2PxzUp4UioT1rOTGidOOpoI5yDR3/GnHGAewrpiZsYxwp4ohGUzSSEhcZ61Ko4AzWe8yugH60nJz70AZGaAuMnJwKskD8i5xzTF6AetGS77j07Clxgjn86Q9g+tIBk+1OPU0nPbvQAnWmkYxmlOOwpAPx+tZ3KFNRbjk1IelRNwazmUiyeaUEYwRSKwcblpQcYBGc10KV9UZWtoRS/M6g1LtAGaay/MD6Cndsd6EmpXKvpYXGTimOf4AfrT2+QMc81GODk9aG+gkhOad0GaOMZxR3IoBi9s0hOB/KlPCmmmk2CEGSetLwBRnPTt1oPXnkEc+1RoUMbjNRtyakYkHGBUYPzGsajRY7mF9w5UnkelWFYTRgjqf0qWS0O3hgBVQwvC5ZSvPWs5VVRle+g+RtE3bB6Ui8kVKsbOu4ECkkiZcgbc+tdarQkuZMj2ckQs25unAoAIz7VIsJIIGMA04QNnGRzUqcd7hySIh156UH9afsI9KFQlc8U/aR7hyMZ1FIeMYqUxknHFN2ccnI9KbqRFyMb0PTrTXOM1Js96idTnrUSqRtoNRZESeppB1NOI603q5rlnNGiR//Z;" vertex="1" parent="5de8GxAfkGyDar-mVyjA-212">
          <mxGeometry x="6.4" y="6.399999999999939" width="27.199999999999996" height="27.199999999999996" as="geometry" />
        </mxCell>
        <mxCell id="5de8GxAfkGyDar-mVyjA-215" value="" style="group;aspect=fixed;" vertex="1" connectable="0" parent="5de8GxAfkGyDar-mVyjA-353">
          <mxGeometry x="90" y="140" width="40" height="40" as="geometry" />
        </mxCell>
        <mxCell id="5de8GxAfkGyDar-mVyjA-216" value="" style="ellipse;whiteSpace=wrap;html=1;aspect=fixed;fillColor=#F6F6F6;strokeColor=#d79b00;" vertex="1" parent="5de8GxAfkGyDar-mVyjA-215">
          <mxGeometry width="40" height="40" as="geometry" />
        </mxCell>
        <mxCell id="5de8GxAfkGyDar-mVyjA-217" value="" style="shape=image;verticalLabelPosition=bottom;labelBackgroundColor=default;verticalAlign=top;aspect=fixed;imageAspect=0;image=data:image/jpeg,/9j/4AAQSkZJRgABAQAAAQABAAD/2wBDAAgGBgcGBQgHBwcJCQgKDBQNDAsLDBkSEw8UHRofHh0aHBwgJC4nICIsIxwcKDcpLDAxNDQ0Hyc5PTgyPC4zNDL/2wBDAQkJCQwLDBgNDRgyIRwhMjIyMjIyMjIyMjIyMjIyMjIyMjIyMjIyMjIyMjIyMjIyMjIyMjIyMjIyMjIyMjIyMjL/wAARCABuAG4DASIAAhEBAxEB/8QAHwAAAQUBAQEBAQEAAAAAAAAAAAECAwQFBgcICQoL/8QAtRAAAgEDAwIEAwUFBAQAAAF9AQIDAAQRBRIhMUEGE1FhByJxFDKBkaEII0KxwRVS0fAkM2JyggkKFhcYGRolJicoKSo0NTY3ODk6Q0RFRkdISUpTVFVWV1hZWmNkZWZnaGlqc3R1dnd4eXqDhIWGh4iJipKTlJWWl5iZmqKjpKWmp6ipqrKztLW2t7i5usLDxMXGx8jJytLT1NXW19jZ2uHi4+Tl5ufo6erx8vP09fb3+Pn6/8QAHwEAAwEBAQEBAQEBAQAAAAAAAAECAwQFBgcICQoL/8QAtREAAgECBAQDBAcFBAQAAQJ3AAECAxEEBSExBhJBUQdhcRMiMoEIFEKRobHBCSMzUvAVYnLRChYkNOEl8RcYGRomJygpKjU2Nzg5OkNERUZHSElKU1RVVldYWVpjZGVmZ2hpanN0dXZ3eHl6goOEhYaHiImKkpOUlZaXmJmaoqOkpaanqKmqsrO0tba3uLm6wsPExcbHyMnK0tPU1dbX2Nna4uPk5ebn6Onq8vP09fb3+Pn6/9oADAMBAAIRAxEAPwDBUKOvBPGe1PJMZyp9uvFLcREKRgjHIxxVJGccsOh/OuS6PU5WtiwtzuIALBQeanSSWWTESDgfePWq8bbmC4x7VsWNsSpb14Wk2kOzbLGm2D3N1HboD5kjBQevNeswW0draJbwjasUexR/X+tcx4Q0vbI2oSDgZEWfXua7AD5ffHWtqa6s5a8r6HjvxytYzY6PcBB5ouJogw7LtU4/Mk141j5cc49K93+NcIPheykOMpeD9VI/pXhDffPNbo5GOiuJYsKrZUdjVpLxHPz/ACmqBHelXjjAraNecSbGruDL8rA4phOcYNUELKwIbHtUi3LgYYAjPauiGIT+JEuPYsk89eaTFMSWNjxwfelY565/CuhTi9mTys9We0KStb3kD29zGcSRsOn09RVJ7VFkKgcYzXquvaFFrFng4S5iGYZgOUI6f8B7H615pMj2081vdRGGeF9kiE9Djt6j/Gvm5wcXoe5TqRmtSglvlwx4Ga6zSdNN5dw2ajacZcnsB1P9PxrBsQst0QCxKnoPX/HOP1r1HwxpJ0+xaeZR9ruMM4A4RR91P6mnBOTJrT5FdGtBbpbwpDGm1EGAMelT44xSgYA6/j3pGOCPrXWlY89u7ueZ/GtAfBULel9EPzDf4V4Ew7ivoD41tjwTCvrfRE/k/wDjXz+ScfWqRm9xnUGgCjij6UxCjpScdjihfQ07aKQCe3X3oUsvAY0oFGM002tgPsjaO5HqPWuI8ejw+r20eo6lDpt/Ip8mVxlSmeQ2O3TH0NdfqWp22j6Vc6jeSBLa2jMkhPGcdAPc5x+NfLPiDWb3xPrd3ql44IlOdoOQijKqoHsMD86lQ5tDZTcdj2/wfp2i29w8p1yw1EuwjjMXGD3GD3z0/GvRQmBgg5zjj1718gRksZPsaNFCYw7JHJjAUc9e+eR9TXvnwt8bHxDpraXf3PmanZqCsjcNPFjr7sO9P2ajsDqOW56FgdjUZ5qTt6U0CkiDzL415PhCIZH/AB8qf0NeAkDPWvfvjT/yKkfGf36/1rwI8r0FNCYzrzR9KcBRTJG96fnNJjNAoAWlAOOKSl60DPYfjh4o3fZvDVtIwChbi7A6En7in6ck/hXjcZkUhFboNxIr3jx34OGtwNdoNl7nJb++O2fU4rw2+spbK5lidGjkR9pTufeiLKktSeMC9dFVYl2oQNxxkAEjPvgGt/wZ50ertqWnh1vLGNJI3zgEliGB9iBiubsnE4itwqBt+Ax6Ek9/TGDXo/wfs47q58QRMgP+iRBvc72GR+FVJ+6THc9y0rU4NZ0uC/gyFlXJVuqHup9xVztXJ+HVfSX2Pn7NMwDD+63QH8a6w9MHrjqOhrI0aPNPjOP+KUHqJlrwAjAr3/40ZPhMj/pqteAdhVIhjR9aU9KTvTu1MkYTtBzQgwNx4JoZdzD070/rQAfj1o6UYpDz7UDPre6tPMQr1A7GvKfif4VDxDUYEzJHgsVHOK9jbLKSOuMVmavYrdWrxuARt9Kk13Pk+LbFcMrkAlsHA4IP9a9M+Dnm2/j27tJAQZbGUuue4KkZ/M1xfinS10rxJc2iA+XE4ARB8ygjcMfh3rb+Gd9aWHxA06W6llRpZGt9+eC7rhc+2cZrToZLRn0RbW8ckUkbqCp/X/PWrNuWjDW8hJkTgMf4l7H/AB/ClgXa8vY56Uy/l+zWclwq7jCu4L3I9PpWbNGeefGcf8Urx/z1XNfP/BXIr334xTRy+DRLGdytKhB/GvAui469s00RIQdBTqb1IpR0pkgeeM4pc8UHsaTHFAC0UgpaBn2K68kdKZKgdQDjBGCTU0gyNw9KxfFOoHSvCOq34xugtJGQH+9jaP51KNEfNPiXUHv/ABbqV9G3yveMIpB02g7R+grNhkEV3C0OY5I2yXU87wflP6CkchJgCisrYIXd39fb/wCvTzA8IdZIss6AoTwQCeCB78flWtjJvW59ZaFqcWtaLZ6pCQVuoUm46ZI5/UGr0o3RtwCO+R715t8FtVM/hu80iRv3unz5VD1CSDcPwzkV6RJgo3XGRWbVjRanmnxctEh8EXCo2EWVGUHtk4NeBHhelfQHxmYr4IlAA5mjH6k/0r5/7UIUho9ad/DxzSU5eKZAcjtmg0nzfhS5BNAwxzigU0n5qd2oA+yHO3qeK4D4uXf2XwJJDu2/a7mOHd6clv1Cmu/Zdw+nNeQ/HC4kTStJts/I88jsPUqqAf8AoZpIvoeLxp50oVnSLbuO5+59KuqjTF3acKI4wV8w8lQQAq+/PT0BqrtBljdiWd3ZT2wFx09+f0qy7RSxx+QhRhGN7Mc5f1H4ECuiC0uZ20Oz+GOtyaV44i+0ufJvgbOUn1PKEDvyvX3r6Ec5ibJGc84NfJEsy29/bXFruR4WWVcnoy/Nx+I6V9WWN2L7Rra8UEC4iSUA9RuAP9TWVTcqL6HAfGjnwTn/AKe4h/6FXgf8P4V738Zz/wAUM3/X7B/J68EPSs0D3Gr96n989qb707+HNUIOg4pBS4yKTP8AKgQg5p3400Dj60oFID//2Q==;" vertex="1" parent="5de8GxAfkGyDar-mVyjA-215">
          <mxGeometry x="6.399999999999977" y="6.3999999999999995" width="27.199999999999996" height="27.199999999999996" as="geometry" />
        </mxCell>
        <mxCell id="5de8GxAfkGyDar-mVyjA-218" value="" style="endArrow=none;html=1;rounded=0;entryX=1;entryY=0.5;entryDx=0;entryDy=0;exitX=0;exitY=0.5;exitDx=0;exitDy=0;fillColor=#ffe6cc;strokeColor=#d79b00;" edge="1" parent="5de8GxAfkGyDar-mVyjA-353" source="5de8GxAfkGyDar-mVyjA-177" target="5de8GxAfkGyDar-mVyjA-174">
          <mxGeometry width="50" height="50" relative="1" as="geometry">
            <mxPoint x="23" y="162" as="sourcePoint" />
            <mxPoint x="73" y="112" as="targetPoint" />
          </mxGeometry>
        </mxCell>
        <mxCell id="5de8GxAfkGyDar-mVyjA-219" value="" style="endArrow=none;html=1;rounded=0;entryX=1;entryY=0;entryDx=0;entryDy=0;fillColor=#ffe6cc;strokeColor=#d79b00;exitX=0.076;exitY=0.774;exitDx=0;exitDy=0;exitPerimeter=0;" edge="1" parent="5de8GxAfkGyDar-mVyjA-353" source="5de8GxAfkGyDar-mVyjA-177" target="5de8GxAfkGyDar-mVyjA-198">
          <mxGeometry width="50" height="50" relative="1" as="geometry">
            <mxPoint x="103" y="100" as="sourcePoint" />
            <mxPoint x="55" y="110" as="targetPoint" />
          </mxGeometry>
        </mxCell>
        <mxCell id="5de8GxAfkGyDar-mVyjA-220" value="" style="endArrow=none;html=1;rounded=0;entryX=0.874;entryY=0.843;entryDx=0;entryDy=0;exitX=0.116;exitY=0.186;exitDx=0;exitDy=0;fillColor=#ffe6cc;strokeColor=#d79b00;exitPerimeter=0;entryPerimeter=0;" edge="1" parent="5de8GxAfkGyDar-mVyjA-353" source="5de8GxAfkGyDar-mVyjA-195" target="5de8GxAfkGyDar-mVyjA-177">
          <mxGeometry width="50" height="50" relative="1" as="geometry">
            <mxPoint x="108" y="136" as="sourcePoint" />
            <mxPoint x="118.46279999999979" y="132.2092" as="targetPoint" />
          </mxGeometry>
        </mxCell>
        <mxCell id="5de8GxAfkGyDar-mVyjA-221" value="" style="endArrow=none;html=1;rounded=0;entryX=0.064;entryY=0.758;entryDx=0;entryDy=0;fillColor=#ffe6cc;strokeColor=#d79b00;exitX=0.975;exitY=0.351;exitDx=0;exitDy=0;exitPerimeter=0;entryPerimeter=0;" edge="1" parent="5de8GxAfkGyDar-mVyjA-353" source="5de8GxAfkGyDar-mVyjA-180" target="5de8GxAfkGyDar-mVyjA-198">
          <mxGeometry width="50" height="50" relative="1" as="geometry">
            <mxPoint x="20" y="170" as="sourcePoint" />
            <mxPoint x="82" y="155" as="targetPoint" />
          </mxGeometry>
        </mxCell>
        <mxCell id="5de8GxAfkGyDar-mVyjA-222" value="" style="endArrow=none;html=1;rounded=0;exitX=0.018;exitY=0.352;exitDx=0;exitDy=0;fillColor=#ffe6cc;strokeColor=#d79b00;entryX=0.888;entryY=0.818;entryDx=0;entryDy=0;entryPerimeter=0;exitPerimeter=0;" edge="1" parent="5de8GxAfkGyDar-mVyjA-353" source="5de8GxAfkGyDar-mVyjA-216" target="5de8GxAfkGyDar-mVyjA-198">
          <mxGeometry width="50" height="50" relative="1" as="geometry">
            <mxPoint x="62" y="213" as="sourcePoint" />
            <mxPoint x="74" y="162" as="targetPoint" />
          </mxGeometry>
        </mxCell>
        <mxCell id="5de8GxAfkGyDar-mVyjA-223" value="" style="endArrow=none;html=1;rounded=0;entryX=0;entryY=1;entryDx=0;entryDy=0;exitX=1;exitY=0;exitDx=0;exitDy=0;fillColor=#ffe6cc;strokeColor=#d79b00;" edge="1" parent="5de8GxAfkGyDar-mVyjA-353" source="5de8GxAfkGyDar-mVyjA-244" target="5de8GxAfkGyDar-mVyjA-216">
          <mxGeometry width="50" height="50" relative="1" as="geometry">
            <mxPoint x="62" y="213" as="sourcePoint" />
            <mxPoint x="74" y="176" as="targetPoint" />
          </mxGeometry>
        </mxCell>
        <mxCell id="5de8GxAfkGyDar-mVyjA-224" value="" style="endArrow=none;dashed=1;html=1;dashPattern=1 3;strokeWidth=2;rounded=0;exitX=0.998;exitY=0.459;exitDx=0;exitDy=0;exitPerimeter=0;fillColor=#ffe6cc;strokeColor=#d79b00;entryX=0;entryY=0.5;entryDx=0;entryDy=0;" edge="1" parent="5de8GxAfkGyDar-mVyjA-353" source="5de8GxAfkGyDar-mVyjA-177" target="5de8GxAfkGyDar-mVyjA-192">
          <mxGeometry width="50" height="50" relative="1" as="geometry">
            <mxPoint x="123" y="112" as="sourcePoint" />
            <mxPoint x="180" y="80" as="targetPoint" />
          </mxGeometry>
        </mxCell>
        <mxCell id="5de8GxAfkGyDar-mVyjA-225" value="" style="endArrow=none;dashed=1;html=1;dashPattern=1 3;strokeWidth=2;rounded=0;entryX=0.374;entryY=0.004;entryDx=0;entryDy=0;fillColor=#ffe6cc;strokeColor=#004C99;entryPerimeter=0;exitX=1;exitY=1;exitDx=0;exitDy=0;" edge="1" parent="5de8GxAfkGyDar-mVyjA-353" target="5de8GxAfkGyDar-mVyjA-177" source="5de8GxAfkGyDar-mVyjA-201">
          <mxGeometry width="50" height="50" relative="1" as="geometry">
            <mxPoint x="90" y="48.09999999999991" as="sourcePoint" />
            <mxPoint x="221" y="127" as="targetPoint" />
          </mxGeometry>
        </mxCell>
        <mxCell id="5de8GxAfkGyDar-mVyjA-226" value="" style="endArrow=none;dashed=1;html=1;dashPattern=1 3;strokeWidth=2;rounded=0;entryX=1;entryY=0;entryDx=0;entryDy=0;fillColor=#ffe6cc;strokeColor=#004C99;exitX=0;exitY=1;exitDx=0;exitDy=0;" edge="1" parent="5de8GxAfkGyDar-mVyjA-353" source="5de8GxAfkGyDar-mVyjA-201" target="5de8GxAfkGyDar-mVyjA-174">
          <mxGeometry width="50" height="50" relative="1" as="geometry">
            <mxPoint x="73" y="72" as="sourcePoint" />
            <mxPoint x="114" y="115" as="targetPoint" />
          </mxGeometry>
        </mxCell>
        <mxCell id="5de8GxAfkGyDar-mVyjA-227" value="" style="endArrow=none;html=1;rounded=0;entryX=0.981;entryY=0.662;entryDx=0;entryDy=0;entryPerimeter=0;exitX=0.04;exitY=0.28;exitDx=0;exitDy=0;exitPerimeter=0;" edge="1" parent="5de8GxAfkGyDar-mVyjA-353" source="5de8GxAfkGyDar-mVyjA-207" target="5de8GxAfkGyDar-mVyjA-183">
          <mxGeometry width="50" height="50" relative="1" as="geometry">
            <mxPoint x="217" y="90.5" as="sourcePoint" />
            <mxPoint x="267" y="40.5" as="targetPoint" />
          </mxGeometry>
        </mxCell>
        <mxCell id="5de8GxAfkGyDar-mVyjA-228" value="" style="endArrow=none;html=1;rounded=0;entryX=1.019;entryY=-0.057;entryDx=0;entryDy=0;entryPerimeter=0;exitX=0;exitY=1;exitDx=0;exitDy=0;" edge="1" parent="5de8GxAfkGyDar-mVyjA-353" source="5de8GxAfkGyDar-mVyjA-207" target="5de8GxAfkGyDar-mVyjA-193">
          <mxGeometry width="50" height="50" relative="1" as="geometry">
            <mxPoint x="215" y="61" as="sourcePoint" />
            <mxPoint x="168" y="62" as="targetPoint" />
          </mxGeometry>
        </mxCell>
        <mxCell id="5de8GxAfkGyDar-mVyjA-229" value="" style="endArrow=none;html=1;rounded=0;entryX=0.5;entryY=0;entryDx=0;entryDy=0;exitX=1;exitY=1;exitDx=0;exitDy=0;" edge="1" parent="5de8GxAfkGyDar-mVyjA-353" source="5de8GxAfkGyDar-mVyjA-207" target="5de8GxAfkGyDar-mVyjA-204">
          <mxGeometry width="50" height="50" relative="1" as="geometry">
            <mxPoint x="219" y="69" as="sourcePoint" />
            <mxPoint x="188" y="98" as="targetPoint" />
          </mxGeometry>
        </mxCell>
        <mxCell id="5de8GxAfkGyDar-mVyjA-230" value="" style="endArrow=none;html=1;rounded=0;entryX=1;entryY=1;entryDx=0;entryDy=0;exitX=0;exitY=0;exitDx=0;exitDy=0;" edge="1" parent="5de8GxAfkGyDar-mVyjA-353" source="5de8GxAfkGyDar-mVyjA-204" target="5de8GxAfkGyDar-mVyjA-192">
          <mxGeometry width="50" height="50" relative="1" as="geometry">
            <mxPoint x="219" y="69" as="sourcePoint" />
            <mxPoint x="188" y="98" as="targetPoint" />
          </mxGeometry>
        </mxCell>
        <mxCell id="5de8GxAfkGyDar-mVyjA-231" value="" style="endArrow=none;html=1;rounded=0;exitX=1;exitY=0.5;exitDx=0;exitDy=0;entryX=0;entryY=0.5;entryDx=0;entryDy=0;" edge="1" parent="5de8GxAfkGyDar-mVyjA-353" source="5de8GxAfkGyDar-mVyjA-204" target="5de8GxAfkGyDar-mVyjA-210">
          <mxGeometry width="50" height="50" relative="1" as="geometry">
            <mxPoint x="228" y="139" as="sourcePoint" />
            <mxPoint x="212" y="155" as="targetPoint" />
          </mxGeometry>
        </mxCell>
        <mxCell id="5de8GxAfkGyDar-mVyjA-232" value="" style="endArrow=none;html=1;rounded=0;exitX=1;exitY=0.5;exitDx=0;exitDy=0;entryX=0.034;entryY=0.702;entryDx=0;entryDy=0;entryPerimeter=0;strokeColor=#330066;" edge="1" parent="5de8GxAfkGyDar-mVyjA-353" source="5de8GxAfkGyDar-mVyjA-186" target="5de8GxAfkGyDar-mVyjA-213">
          <mxGeometry width="50" height="50" relative="1" as="geometry">
            <mxPoint x="233" y="140" as="sourcePoint" />
            <mxPoint x="269" y="193" as="targetPoint" />
          </mxGeometry>
        </mxCell>
        <mxCell id="5de8GxAfkGyDar-mVyjA-233" value="" style="endArrow=none;dashed=1;html=1;dashPattern=1 3;strokeWidth=2;rounded=0;entryX=0;entryY=1;entryDx=0;entryDy=0;fillColor=#ffe6cc;strokeColor=#d79b00;exitX=0.916;exitY=0.215;exitDx=0;exitDy=0;exitPerimeter=0;" edge="1" parent="5de8GxAfkGyDar-mVyjA-353" source="5de8GxAfkGyDar-mVyjA-241" target="5de8GxAfkGyDar-mVyjA-204">
          <mxGeometry width="50" height="50" relative="1" as="geometry">
            <mxPoint x="170" y="160" as="sourcePoint" />
            <mxPoint x="212.0867999999998" y="195.50599999999997" as="targetPoint" />
          </mxGeometry>
        </mxCell>
        <mxCell id="5de8GxAfkGyDar-mVyjA-234" value="" style="endArrow=none;html=1;rounded=0;entryX=0;entryY=0.5;entryDx=0;entryDy=0;exitX=1;exitY=0.5;exitDx=0;exitDy=0;" edge="1" parent="5de8GxAfkGyDar-mVyjA-353" source="5de8GxAfkGyDar-mVyjA-207" target="5de8GxAfkGyDar-mVyjA-189">
          <mxGeometry width="50" height="50" relative="1" as="geometry">
            <mxPoint x="228" y="73" as="sourcePoint" />
            <mxPoint x="233" y="115" as="targetPoint" />
          </mxGeometry>
        </mxCell>
        <mxCell id="5de8GxAfkGyDar-mVyjA-235" value="" style="endArrow=none;dashed=1;html=1;dashPattern=1 3;strokeWidth=2;rounded=0;entryX=0.982;entryY=1.099;entryDx=0;entryDy=0;exitX=0.262;exitY=0.031;exitDx=0;exitDy=0;exitPerimeter=0;entryPerimeter=0;strokeColor=#000000;" edge="1" parent="5de8GxAfkGyDar-mVyjA-353" source="5de8GxAfkGyDar-mVyjA-213" target="5de8GxAfkGyDar-mVyjA-205">
          <mxGeometry width="50" height="50" relative="1" as="geometry">
            <mxPoint x="130" y="128" as="sourcePoint" />
            <mxPoint x="221" y="127" as="targetPoint" />
          </mxGeometry>
        </mxCell>
        <mxCell id="5de8GxAfkGyDar-mVyjA-236" value="" style="group;aspect=fixed;" vertex="1" connectable="0" parent="5de8GxAfkGyDar-mVyjA-353">
          <mxGeometry x="100.00000000000003" width="40" height="40" as="geometry" />
        </mxCell>
        <mxCell id="5de8GxAfkGyDar-mVyjA-237" value="" style="ellipse;whiteSpace=wrap;html=1;aspect=fixed;strokeColor=#004C99;" vertex="1" parent="5de8GxAfkGyDar-mVyjA-236">
          <mxGeometry width="40" height="40" as="geometry" />
        </mxCell>
        <mxCell id="5de8GxAfkGyDar-mVyjA-238" value="" style="shape=image;verticalLabelPosition=bottom;labelBackgroundColor=default;verticalAlign=top;aspect=fixed;imageAspect=0;image=data:image/jpeg,/9j/4AAQSkZJRgABAQAAAQABAAD/2wBDAAgGBgcGBQgHBwcJCQgKDBQNDAsLDBkSEw8UHRofHh0aHBwgJC4nICIsIxwcKDcpLDAxNDQ0Hyc5PTgyPC4zNDL/2wBDAQkJCQwLDBgNDRgyIRwhMjIyMjIyMjIyMjIyMjIyMjIyMjIyMjIyMjIyMjIyMjIyMjIyMjIyMjIyMjIyMjIyMjL/wAARCABuAG4DASIAAhEBAxEB/8QAHwAAAQUBAQEBAQEAAAAAAAAAAAECAwQFBgcICQoL/8QAtRAAAgEDAwIEAwUFBAQAAAF9AQIDAAQRBRIhMUEGE1FhByJxFDKBkaEII0KxwRVS0fAkM2JyggkKFhcYGRolJicoKSo0NTY3ODk6Q0RFRkdISUpTVFVWV1hZWmNkZWZnaGlqc3R1dnd4eXqDhIWGh4iJipKTlJWWl5iZmqKjpKWmp6ipqrKztLW2t7i5usLDxMXGx8jJytLT1NXW19jZ2uHi4+Tl5ufo6erx8vP09fb3+Pn6/8QAHwEAAwEBAQEBAQEBAQAAAAAAAAECAwQFBgcICQoL/8QAtREAAgECBAQDBAcFBAQAAQJ3AAECAxEEBSExBhJBUQdhcRMiMoEIFEKRobHBCSMzUvAVYnLRChYkNOEl8RcYGRomJygpKjU2Nzg5OkNERUZHSElKU1RVVldYWVpjZGVmZ2hpanN0dXZ3eHl6goOEhYaHiImKkpOUlZaXmJmaoqOkpaanqKmqsrO0tba3uLm6wsPExcbHyMnK0tPU1dbX2Nna4uPk5ebn6Onq8vP09fb3+Pn6/9oADAMBAAIRAxEAPwDirCXOoNM/TcFFLraFJ2YDhhmoI3+x2SyPwWYHmr+qfv7KKZTkEAdK9VHlv4hogN/pcflOVZPSqNt5i61AH6jin6bJPZ3yp1jk/SrUoU69GU5Gc0BtdDdVhlk1BZFGCGFP8QBikakcbcnFR6ndvFqQXbkEj+dTa580cfb5etC6hHSwsbFfD0ZIB96oaVOba+eQkbQBkVoohGgR5HbpWZaRF2mIXOVFHQI6p3NLWLcTNFdw5JDDOBxUmn5lv3ZhlUjwDVbRbvzA1nOSCG4ye1WbB0i1S4h6ZXigW2hlajPLLfM0b7VQ/LjvUElzKEYg4Y9x0q8IgNWMTj5WPBpmrwLBIUUDp0FJlosX8rrpMEgYbhyeOtXdNwLBZnAy5qnqCsNFi4/hq1pzLNpUSgjKnmnYm5z8srzQLHjIA71I97LJZiDLfKOOe9M2dOtKEAOcD2ppFuw+K6YOrFTkdKT7TJHc+ccZpojGemKCvTjNLlE9Qubhp5lmIJI9KluLxrqJc54OajCkg8Yo2fnTsBYTUHa2EBGMdKhgujA7Lg5PFNAw3HX1pGBJFPlDQbkxXInXr3p808v2lbhSQ3Q0u0+nakMZI/nS5RXTJk1ImeORgAVPcU2+uGuJPMwSM4qAIc98e4pwyB174pcpVkWH1Az2yw46DFV7a7ks9yAfKelIqFdw20MueozRyi0JAcjIBOPenYxj0A/WmjB7gcU4HkKeg71SEHOccYozxijPGAM0dOgpgHXGBgClHem89vxpc9qZNw3dMjFLxx7UhyD1BoA560AHGevagkjp+VGKMZOaBDSDznpTivYUEnaenPekzzkHp196CxTyB2HY+tHbPHPY9aOAOOtGcZ7nNIRH7Dk4zTs47U3Bxg8UgBoBi5PXvTgeM03jg9zSg8nI96YXHfNjsB60KfUZpp59elAPA96dhXJCSABgU0/KMZoHfnrRjOaQXHZIHTr09qQknpxTdwAH60E5FFguKQcjoKXqegNNHoOaXgnI5p2C4hOaU89aQDAzSd+tKw7jPM9MGnK/PPFdVdeEwzMUzx6VlT+HLmHlc4964lWsdTpoyhgjA70uz+WOamk0+5Tjy249qYYZxzsOPpWqrEOiNKMDnPHoKTBpP3gPINN3HHIFV7cn2I/jtS844BqPd/kU7d9ar2yJVJi4OMYpcAZ547UzzOpwaTf7U/bRH7FkoUkbuhpKYXOOCDTQGYjAPek66BUSTgnrSBl7c0qwTP8AdQk/Q1Yj0i8deIT+NQ66ZaonfWuv2VwAFlHtzV8T204+VlP1rzN9GljYGF2XHoaVX1S1I2SMw96wdFM6bnpRtLd/4VP0praVbMOFA+orgYvEGp25w6NV2HxnPHgSI34ip9nIDqpNDtT/AAqPwqu3hu1boo/KspPGkRAzwfcVYTxjbnGSAalwmGhYfwtakY20z/hFLf8Au80q+LLQjkinr4qtM8svtzStILIjPhO3H8H603/hFLYNyvFWD4ptDnkfnULeKbY5Ax+dFp9g0JY/C9so6CrKaDaR9FXOfSs//hK4B0zUT+KlJ+UZ5oUJsV0b0ek2qchKsrb26cbFrk28S3D8IOPpUTapfzHIUgVoqEnuFycx8fMMUxoM9Rn6VfMQppTmtSzOa0U9VH51E9hG3VM81qmNR2FIYweM07sRjnS4D/B+lRnSoTztH5VuGLnrSNGN1O4WRh/2PDjlcUg0WLA4rdEY64H5UBR6ClcRh/2PEDnGeakXR4uMrwK2RGKeIhxVJisZS6XD3X9KnSwi4+Qe/FaKxjPNPVAOatAymlqgxhee/FTCD2FWRHzShAfWncD/2Q==;" vertex="1" parent="5de8GxAfkGyDar-mVyjA-236">
          <mxGeometry x="6.399999999999977" y="6.399999999999939" width="27.199999999999996" height="27.199999999999996" as="geometry" />
        </mxCell>
        <mxCell id="5de8GxAfkGyDar-mVyjA-239" value="" style="endArrow=none;html=1;rounded=0;entryX=0.034;entryY=0.665;entryDx=0;entryDy=0;exitX=0.978;exitY=0.334;exitDx=0;exitDy=0;exitPerimeter=0;entryPerimeter=0;strokeColor=#004C99;" edge="1" parent="5de8GxAfkGyDar-mVyjA-353" source="5de8GxAfkGyDar-mVyjA-201" target="5de8GxAfkGyDar-mVyjA-237">
          <mxGeometry width="50" height="50" relative="1" as="geometry">
            <mxPoint x="100" y="90" as="sourcePoint" />
            <mxPoint x="150" y="40" as="targetPoint" />
          </mxGeometry>
        </mxCell>
        <mxCell id="5de8GxAfkGyDar-mVyjA-240" value="" style="group;aspect=fixed;" vertex="1" connectable="0" parent="5de8GxAfkGyDar-mVyjA-353">
          <mxGeometry x="140.00000000000003" y="178.10000000000002" width="40" height="40" as="geometry" />
        </mxCell>
        <mxCell id="5de8GxAfkGyDar-mVyjA-241" value="" style="ellipse;whiteSpace=wrap;html=1;aspect=fixed;fillColor=#F6F6F6;strokeColor=#d79b00;" vertex="1" parent="5de8GxAfkGyDar-mVyjA-240">
          <mxGeometry width="40" height="40" as="geometry" />
        </mxCell>
        <mxCell id="5de8GxAfkGyDar-mVyjA-242" value="" style="shape=image;verticalLabelPosition=bottom;labelBackgroundColor=default;verticalAlign=top;aspect=fixed;imageAspect=0;image=data:image/jpeg,/9j/4AAQSkZJRgABAQAAAQABAAD/2wBDAAgGBgcGBQgHBwcJCQgKDBQNDAsLDBkSEw8UHRofHh0aHBwgJC4nICIsIxwcKDcpLDAxNDQ0Hyc5PTgyPC4zNDL/2wBDAQkJCQwLDBgNDRgyIRwhMjIyMjIyMjIyMjIyMjIyMjIyMjIyMjIyMjIyMjIyMjIyMjIyMjIyMjIyMjIyMjIyMjL/wAARCABuAG4DASIAAhEBAxEB/8QAHwAAAQUBAQEBAQEAAAAAAAAAAAECAwQFBgcICQoL/8QAtRAAAgEDAwIEAwUFBAQAAAF9AQIDAAQRBRIhMUEGE1FhByJxFDKBkaEII0KxwRVS0fAkM2JyggkKFhcYGRolJicoKSo0NTY3ODk6Q0RFRkdISUpTVFVWV1hZWmNkZWZnaGlqc3R1dnd4eXqDhIWGh4iJipKTlJWWl5iZmqKjpKWmp6ipqrKztLW2t7i5usLDxMXGx8jJytLT1NXW19jZ2uHi4+Tl5ufo6erx8vP09fb3+Pn6/8QAHwEAAwEBAQEBAQEBAQAAAAAAAAECAwQFBgcICQoL/8QAtREAAgECBAQDBAcFBAQAAQJ3AAECAxEEBSExBhJBUQdhcRMiMoEIFEKRobHBCSMzUvAVYnLRChYkNOEl8RcYGRomJygpKjU2Nzg5OkNERUZHSElKU1RVVldYWVpjZGVmZ2hpanN0dXZ3eHl6goOEhYaHiImKkpOUlZaXmJmaoqOkpaanqKmqsrO0tba3uLm6wsPExcbHyMnK0tPU1dbX2Nna4uPk5ebn6Onq8vP09fb3+Pn6/9oADAMBAAIRAxEAPwD2Yn5W+navDfjdfk6/pdltDLFavJz6u+P/AGQGvciBg54HevnH4s3JuPHl5E8ihIIolUnrnYMj+Zpx1LZxVt5Md1tnjM6puGEbGTjg5+vP0q5GY1y0qFwV4IOMN2b8OtVrNZJ2t7eCJS2/K+rZA4P5VcHn3IityFYIp2g8epP+fat4GTKsoRYpAchtn7sgYwcj9OtfRfw21Eaj8N9OO8NJbIbZgP4djYX/AMdwfxr54mMl0hDLuESYOBjCivXvgnfyTaFr1oQipDcLOqjrl1wf0RamoupUSz8Zm/4ooj1vID+j14S2Oor2n4yTf8UzbxnnddIfyDV4sfuisVsNiCne1NApQOaoQvSg9KWmMMjAPWgQvTH0oFA6YJpwoGfZDcrt9eK+VvHd19v8aazdBmctduCQM4UcD+VfU0z7ImY4+UZP4V8i6o7vqV1KCyxzzSsuDyfnNEdrlSZGimQvcyTpvMygqOpYjOQB6VZKILdGWUmXkFD2GODn3qqnkLNhCZY1IxgctyC1Wg8QnMn2bMSucxE9R/dzW6VloZtobOALeNkdmZgQ69AOeAPXNd58HrtbbxRqFi0u5Z9PYxhT3Vg5/EDiuDyqszyIHRlI5OBn1HuOtdJ8MbmO08f6crHL3CyW6cf31PP50TWg1udN8ZJT/ZemL2e5Yn6hB/jXkpGBXp/xck36ZpQ6H7TJ+PyLzXmDfWudFMRe9O6U0A04UyQHOaT+IfSlxik70AFLmk707igZ9ca1MLfSLuQEArC5yTxnaR/OvkkbBuEpaVlVl+R8DPXPuOvHevqHx3ci18G6tJ/06v0HUkYr5hjSSZEjhijGyNyzZxuA5JPuBnFOCvoORLFJMsEkflId4U7iuSMdMegOatP9phH2R22IZA2zd8oOBg/rVZN1wXkluAGSMbA3JfHG0fhx+FSRrCUlJd/M+Xbxnr13fTjH1reOi1JdrWHNHM0wswykq5UZf5Qx4JHqDjFXvDF68HjDRrtlLfZ7mNRjoqk7R/6FWawj+zEEsJC/yjtt5zz65H8qjWX7PJBcROS6OGcA4HByP5CiWwkzuvivKAbGAHPl3Ev5ABf6V50RkV23xPnD61bKBlcO4+hINcVnjjiuZFsRRzS4FIAc0D0pki59KQdKDyuRQFxQAoFGMUuKQ0DPpf4l3Bh8HahLGyg7Rg9QQWH+fxr5uKkIjNMrNIGLBeNpBI5/KvZde1NdY+CllcSscPBFDKUOSCjbCfrhc/jXjsLQrMGWFZVywAkH3gQcZ9+9VT10HJaC5hCII1cs0WW3D+LJAIPbt+lTOVlLmO32okYLBRnoNu4/p+dNha5ijWQKqCaNlDMOoPB4/D9Kcqy28SESIBNEDtD5O0no3vlRn8K3SaViNnckcyTSPOIF/dspcIPlB4HP1IqnKyEvOUBV84A6A/8A1qtTJ5Ue1ZhIHQOdvXn1989frUU8bC5NqJVePfncD8ucct+WBSa0E0X/ABXc/arrTXLbj9jRmPqSOaw2yafczeb9kBPMduIyPQgkUw9K5yxBS5xSUY4oEBGcD3p2OKb/AB04HAoGFNJGetOz1phx3oA7bS9UMvww1jSCBut7mOWNR3WRlB/8eArmoxcyPHaSFIgsx4YAbWOA3Pp8tV4Lt4ILqEM224iEbY9QwIP4YpwMTRkmSRpjKT6qAQDnP1yK0gKT0JYkjkkjSa4KKQQH6gdxgfX+dJbmHeTMjhdjcAdDj5SfbOKFMKxIscbrJvYk5z8vGAB7YJ/GpI903kW8Nou9d33BlmJOefp6VrYV76DIzDskDhmJQ7ccbWxnn9ahbyvIcEkSkjZgYAXnI/QVbLzXqpHtVvJiJGOMAZY/XrUE7ST7pRHlYVUHjHA4/nQ9hMzIgSxzxg8D0qcjqM1DDhmZgANxzgGpfxrmKADHFO9M00A0McKSe1AABkk06mp92nZoGHXvTShpGYhwAakHI5pARgjGT0q4jEyGeK1CpG6tgjKr6A/kapr2yMjrU8bsIWXzCqggkY44zgn8zVw0Ym9LF5GuAftiqkY87qowAxBP5YqPEqKs5nG7ewwHwc+ufx/nSOsS3RRZzJEJRlx/EMDPFIpto7tS4eWJZBkk4LDOMfl/OtuYSHsqpChSdS7bkZE7Dv8AgRUFwSkQaOUESjLgH7pz0P4gVNG0SSh5ImeIfwHgkDoM+vSq0jRqspfLZHHGOfWnPRBuU4Rg7Qc9+lS1HAMLjrjv61IMd65bjDpQwzgetL1pD9/6UwEHApdx7ClxjnFO7ZoGQOTvyRipY9xXIFRTBm6A8CpLa2Z4QzSlfpUtgNU8gVYt2jUTeYhJKjYQfunIycd+Cfzpq2zE43CpEhcyAbh8wI/Sqg9bjcWTBwkUiNDlztwzDlcdfz4pS0qKbfyFDGXJO3D9MY/WnmKa4MjyyAsiAn3AwB/Sn/Y5p47i5ln3FGRWyOWJOM5/Gt+aPUFBiMlzvWydeRK3yAAfORgn9Kp3TSNCsBX/AFQIUY6DuPer32Bvsss3mAMkgXvz75qrc2UqWqSiQclkxjpjH+NKU00HIzPi+4Ow9Kl705IGWMcg+9LsYkjIrnuh+zkNGM00c81KYzsOSOKBC2ByKdw9mxlL2p4ib1FL5TAH5hRcXKyE9Tz9ansAh3rJ0HSmNCe5HNS2ybGbODxSY+Rn/9k=;" vertex="1" parent="5de8GxAfkGyDar-mVyjA-240">
          <mxGeometry x="6.399999999999977" y="6.399999999999939" width="27.199999999999996" height="27.199999999999996" as="geometry" />
        </mxCell>
        <mxCell id="5de8GxAfkGyDar-mVyjA-243" value="" style="group;aspect=fixed;" vertex="1" connectable="0" parent="5de8GxAfkGyDar-mVyjA-353">
          <mxGeometry x="30" y="198.10000000000002" width="40" height="40" as="geometry" />
        </mxCell>
        <mxCell id="5de8GxAfkGyDar-mVyjA-244" value="" style="ellipse;whiteSpace=wrap;html=1;aspect=fixed;fillColor=#F6F6F6;strokeColor=#d79b00;" vertex="1" parent="5de8GxAfkGyDar-mVyjA-243">
          <mxGeometry width="40" height="40" as="geometry" />
        </mxCell>
        <mxCell id="5de8GxAfkGyDar-mVyjA-245" value="" style="shape=image;verticalLabelPosition=bottom;labelBackgroundColor=default;verticalAlign=top;aspect=fixed;imageAspect=0;image=data:image/jpeg,/9j/4AAQSkZJRgABAQAAAQABAAD/2wBDAAgGBgcGBQgHBwcJCQgKDBQNDAsLDBkSEw8UHRofHh0aHBwgJC4nICIsIxwcKDcpLDAxNDQ0Hyc5PTgyPC4zNDL/2wBDAQkJCQwLDBgNDRgyIRwhMjIyMjIyMjIyMjIyMjIyMjIyMjIyMjIyMjIyMjIyMjIyMjIyMjIyMjIyMjIyMjIyMjL/wAARCABuAG4DASIAAhEBAxEB/8QAHwAAAQUBAQEBAQEAAAAAAAAAAAECAwQFBgcICQoL/8QAtRAAAgEDAwIEAwUFBAQAAAF9AQIDAAQRBRIhMUEGE1FhByJxFDKBkaEII0KxwRVS0fAkM2JyggkKFhcYGRolJicoKSo0NTY3ODk6Q0RFRkdISUpTVFVWV1hZWmNkZWZnaGlqc3R1dnd4eXqDhIWGh4iJipKTlJWWl5iZmqKjpKWmp6ipqrKztLW2t7i5usLDxMXGx8jJytLT1NXW19jZ2uHi4+Tl5ufo6erx8vP09fb3+Pn6/8QAHwEAAwEBAQEBAQEBAQAAAAAAAAECAwQFBgcICQoL/8QAtREAAgECBAQDBAcFBAQAAQJ3AAECAxEEBSExBhJBUQdhcRMiMoEIFEKRobHBCSMzUvAVYnLRChYkNOEl8RcYGRomJygpKjU2Nzg5OkNERUZHSElKU1RVVldYWVpjZGVmZ2hpanN0dXZ3eHl6goOEhYaHiImKkpOUlZaXmJmaoqOkpaanqKmqsrO0tba3uLm6wsPExcbHyMnK0tPU1dbX2Nna4uPk5ebn6Onq8vP09fb3+Pn6/9oADAMBAAIRAxEAPwDxvoeaQj3o780dveqAQGlwCc0mead2oEJgelRSjkMO1TdqawyCKABTnB7UZ45qOE4DKeo5qWgBuMDmkPA57048U3AxQAz+KpozxUTAntT4zigD6D+CuotdeD57GR9z2d2VUHoqOAyj8w5/GvSgcqD3Irwr4Iah5Wt6np7HKz2wmUdyyNz+hNe6Kdw9e9SWj41HWjrxTR+VOPAqiROc040g5BFHagQdaCcHpQKT65oAhf5JQegPWp+MYNRyDKmliYmMg9RQA7rTSKd9KTBPP6UAMJ79qVOOaCO/6UgxuwKAOw+HOoDTvH2kStnZJKYGx6OMfzr6ciGVweCvBr4/tZ3tbiK5icq8LrKjDsQf/rfrX13YXUd3ptteRpiOeJJFHXAZQallo+O6d2pg5p/UfSqJCjtmkpc460AGcikxQOtKelAhO2MVCPkl9mqb61HIuV46igCQY9KQjjihG3rkGlOaAGnP0Pemkc8d6eTxxTKAJ4iAw4785r6W+Ft//aHw60vJcvbh7Z2Y9dh4/Q/pXzNH97PrxXuXwK1ATadq2mMxLRSpcKpPChl2nH4rmkykeFrxTqYvTjmnCgkUUdTz0oFJTAXPHAowB3pBxSkZ5oAD0o44z3o70uOP5UDIk+SXHY9Kkx1pkqkqCOop6tvXd+FAhMYFNIzUhFNNAxE44712PgHxQPCusz3UnMU1uYyPfcpH/s351xo6/wA6lZVdANuVB6e9IaREPanDFMzzQKCR2aXFIG4pQcjmgBaO1FFABR3oopgGBgio0Oxyp6HpUnODTZFyu7uKAHkcUnShTvUEelBoGMHWplyBkdaixzT15FAiHuDS9qbzSjNIBQKfimA04GgBTS5pD1ooGB60oo/GgD1NMBRilHSkH0xSg4zQIjX5HZB0PIp3FJIvAYduacMMAR3oGJjmjpSkU2gCEGlzTB1p2aQh2aVW9qb2oUd6AZIDS9800U8cmga1E6nNGccZpxGDRtyM5o0HZic0o+tKFOO1KIyT1FAco0/d5qOInLL6HI+lWfKLDqKheBkkDhh6UXDlYpxTasrAWGcim/ZnJxuFDY+Rn//Z;" vertex="1" parent="5de8GxAfkGyDar-mVyjA-243">
          <mxGeometry x="6.399999999999977" y="6.399999999999939" width="27.199999999999996" height="27.199999999999996" as="geometry" />
        </mxCell>
        <mxCell id="5de8GxAfkGyDar-mVyjA-246" value="" style="endArrow=none;html=1;rounded=0;entryX=0;entryY=0.5;entryDx=0;entryDy=0;exitX=1;exitY=0.5;exitDx=0;exitDy=0;fillColor=#ffe6cc;strokeColor=#d79b00;" edge="1" parent="5de8GxAfkGyDar-mVyjA-353" source="5de8GxAfkGyDar-mVyjA-244" target="5de8GxAfkGyDar-mVyjA-241">
          <mxGeometry width="50" height="50" relative="1" as="geometry">
            <mxPoint x="66" y="254" as="sourcePoint" />
            <mxPoint x="120" y="185" as="targetPoint" />
          </mxGeometry>
        </mxCell>
        <mxCell id="5de8GxAfkGyDar-mVyjA-247" value="" style="endArrow=none;html=1;rounded=0;entryX=0;entryY=0;entryDx=0;entryDy=0;exitX=1;exitY=1;exitDx=0;exitDy=0;fillColor=#ffe6cc;strokeColor=#d79b00;" edge="1" parent="5de8GxAfkGyDar-mVyjA-353" source="5de8GxAfkGyDar-mVyjA-216" target="5de8GxAfkGyDar-mVyjA-241">
          <mxGeometry width="50" height="50" relative="1" as="geometry">
            <mxPoint x="70" y="265" as="sourcePoint" />
            <mxPoint x="150" y="265" as="targetPoint" />
          </mxGeometry>
        </mxCell>
        <mxCell id="5de8GxAfkGyDar-mVyjA-658" value="" style="endArrow=block;html=1;rounded=0;endFill=1;entryX=0;entryY=0.5;entryDx=0;entryDy=0;exitX=1;exitY=0.5;exitDx=0;exitDy=0;" edge="1" parent="1" source="5de8GxAfkGyDar-mVyjA-352" target="5de8GxAfkGyDar-mVyjA-256">
          <mxGeometry width="50" height="50" relative="1" as="geometry">
            <mxPoint x="564" y="-840.1200000000001" as="sourcePoint" />
            <mxPoint x="604.26" y="-839.8800000000001" as="targetPoint" />
          </mxGeometry>
        </mxCell>
        <mxCell id="5de8GxAfkGyDar-mVyjA-660" value="" style="endArrow=block;html=1;rounded=0;endFill=1;entryX=0;entryY=0.5;entryDx=0;entryDy=0;exitX=1;exitY=0.5;exitDx=0;exitDy=0;" edge="1" parent="1">
          <mxGeometry width="50" height="50" relative="1" as="geometry">
            <mxPoint x="206" y="-840" as="sourcePoint" />
            <mxPoint x="234" y="-840" as="targetPoint" />
          </mxGeometry>
        </mxCell>
        <mxCell id="5de8GxAfkGyDar-mVyjA-661" value="" style="endArrow=block;html=1;rounded=0;endFill=1;entryX=0;entryY=0.5;entryDx=0;entryDy=0;exitX=1;exitY=0.5;exitDx=0;exitDy=0;" edge="1" parent="1">
          <mxGeometry width="50" height="50" relative="1" as="geometry">
            <mxPoint x="977" y="-840" as="sourcePoint" />
            <mxPoint x="1002" y="-840" as="targetPoint" />
          </mxGeometry>
        </mxCell>
        <mxCell id="5de8GxAfkGyDar-mVyjA-662" value="" style="endArrow=block;html=1;rounded=0;endFill=1;entryX=0;entryY=0.5;entryDx=0;entryDy=0;exitX=1;exitY=0.5;exitDx=0;exitDy=0;" edge="1" parent="1">
          <mxGeometry width="50" height="50" relative="1" as="geometry">
            <mxPoint x="1032" y="-840" as="sourcePoint" />
            <mxPoint x="1057" y="-840" as="targetPoint" />
          </mxGeometry>
        </mxCell>
        <mxCell id="5de8GxAfkGyDar-mVyjA-663" value="Graph processing" style="text;html=1;align=center;verticalAlign=middle;whiteSpace=wrap;rounded=0;fontSize=17;fontFamily=Times New Roman;" vertex="1" parent="1">
          <mxGeometry x="322" y="-708.26" width="154" height="30" as="geometry" />
        </mxCell>
        <mxCell id="5de8GxAfkGyDar-mVyjA-665" value="$$H_V$$" style="text;html=1;align=center;verticalAlign=middle;whiteSpace=wrap;rounded=0;fontSize=15;" vertex="1" parent="1">
          <mxGeometry x="1070" y="-855.31" width="60" height="30" as="geometry" />
        </mxCell>
      </root>
    </mxGraphModel>
  </diagram>
</mxfile>
